<svg xmlns="http://www.w3.org/2000/svg" width="41" height="41" fill="none"><g clip-path="url(#a)"><path fill="#868686" stroke="#000" stroke-width=".1" d="M35.849 25.613v.007h.05c.631 0 1.183-.443 1.314-1.06l3.181-14.745A1.35 1.35 0 0 0 39.08 8.18H10.246l-.6-3.099a1.62 1.62 0 0 0-1.58-1.299H.962a.632.632 0 0 0-.637.638V6.05c0 .35.281.63.637.63h6.049l4.712 23.925a4.964 4.964 0 0 0-1.764 3.788 4.967 4.967 0 0 0 4.965 4.965 4.967 4.967 0 0 0 4.965-4.965c0-.742-.164-1.438-.46-2.068h8.882c-.29.63-.46 1.326-.46 2.068a4.967 4.967 0 0 0 4.964 4.965 4.967 4.967 0 0 0 4.965-4.965 4.965 4.965 0 0 0-4.796-4.957v-.008H14.441l-.75-3.815H35.85Zm-22.736-2.89-2.295-11.645h26.347l-2.516 11.645H13.113ZM16.986 34.4c0 1.14-.929 2.068-2.069 2.068A2.072 2.072 0 0 1 12.85 34.4c0-1.14.928-2.068 2.068-2.068 1.14 0 2.069.928 2.069 2.068Zm17.898 0c0 1.14-.929 2.068-2.069 2.068a2.072 2.072 0 0 1-2.068-2.068c0-1.14.928-2.068 2.068-2.068 1.14 0 2.069.928 2.069 2.068Z"/></g><defs><clipPath id="a"><path fill="#fff" d="M.375.5h40v40h-40z"/></clipPath></defs></svg>