<svg width="124" height="42" viewBox="0 0 124 42" fill="none" xmlns="http://www.w3.org/2000/svg">
<rect x="0.5" y="0.500488" width="123" height="41" rx="20.5" fill="white" stroke="black"/>
<path d="M33.332 23.5525H30.752V24.8605H33.332V23.5525ZM34.34 25.7005H30.752V26.3965H29.756V22.7005H34.34V25.7005ZM30.752 19.1005H33.128C33.32 18.7765 33.536 18.3325 33.68 17.9725H30.272C30.476 18.3325 30.656 18.7765 30.752 19.1005ZM35.756 20.9125V20.0725H33.464V21.0685C33.464 21.3085 33.5 21.3325 33.776 21.3325H34.64C34.868 21.3325 34.916 21.2485 34.952 20.6005C35.12 20.7325 35.48 20.8645 35.756 20.9125ZM28.364 20.0725V21.8365C29.804 21.5485 30.176 21.0685 30.284 20.0725H28.364ZM37.172 17.9725H35C34.772 18.3925 34.568 18.7765 34.364 19.1005H36.824V25.6525C36.824 26.2405 36.704 26.5765 36.284 26.7565C35.852 26.9245 35.204 26.9485 34.232 26.9485C34.184 26.6485 34.016 26.1685 33.86 25.8685C34.58 25.9045 35.276 25.8925 35.48 25.8925C35.696 25.8805 35.756 25.8205 35.756 25.6405V21.1885C35.636 21.9565 35.372 22.1605 34.76 22.1605H33.644C32.708 22.1605 32.492 21.9205 32.492 21.0805V20.0725H31.28C31.136 21.4645 30.644 22.2085 28.868 22.6285C28.784 22.4005 28.568 22.0405 28.364 21.8605V26.9245H27.296V19.1005H29.552C29.432 18.7405 29.252 18.3085 29.06 17.9725H26.84V16.9525H31.388V15.9325H32.528V16.9525H37.172V17.9725ZM47.456 19.4605V17.5045H42.956V19.4605H47.456ZM48.596 16.4365V20.5285H41.888V16.4365H48.596ZM43.436 22.7605H41.252V25.2565H43.436V22.7605ZM40.196 26.9485V21.6925H44.54V26.8645H43.436V26.3245H41.252V26.9485H40.196ZM46.784 25.2565H49.16V22.7605H46.784V25.2565ZM45.716 21.6925H50.276V26.8885H49.16V26.3245H46.784V26.9485H45.716V21.6925ZM52.964 20.7085H63.884V21.9325H52.964V20.7085ZM76.988 17.9845H73.196C72.932 18.5005 72.632 18.9565 72.32 19.3165C72.116 19.1485 71.696 18.8725 71.444 18.7405C72.092 18.0445 72.62 16.9885 72.932 15.9205L73.928 16.1485C73.832 16.4725 73.724 16.7965 73.592 17.1085H76.988V17.9845ZM76.664 20.1565H72.728V19.2805H76.664V20.1565ZM67.724 19.3045V19.8565H68.792V19.3045H67.724ZM68.792 17.0005H67.724V17.4925H68.792V17.0005ZM70.376 18.6685V18.1285H67.724V18.6685H70.376ZM71.744 19.8565V20.5285H66.704V16.3405H71.576V17.0005H69.692V17.4925H71.348V19.3045H69.692V19.8565H71.744ZM68.96 23.7325V24.2485H74.204V23.7325H68.96ZM68.96 22.6285V23.1325H74.204V22.6285H68.96ZM68.96 21.5245V22.0285H74.204V21.5245H68.96ZM73.928 25.9405H75.584C76.004 25.9405 76.076 25.8085 76.124 24.8965C76.352 25.0285 76.772 25.1845 77.072 25.2445C76.964 26.5165 76.652 26.8165 75.692 26.8165H73.808C72.548 26.8165 72.236 26.5645 72.236 25.6285V24.8845H70.664C70.28 26.0965 69.308 26.6845 66.608 26.9605C66.548 26.7205 66.308 26.3125 66.128 26.1085C68.396 25.9405 69.2 25.6165 69.536 24.8845H67.904V20.9125H75.296V24.8845H73.328V25.6165C73.328 25.9045 73.412 25.9405 73.928 25.9405Z" fill="black"/>
<path d="M94 19.0005L99 22.0005L94 25.0005" stroke="black" stroke-linecap="round"/>
<path d="M95 24.5005V20.0005L99 22.0005L95 24.5005Z" fill="black"/>
</svg>
