<svg width="313" height="135" viewBox="0 0 313 135" fill="none" xmlns="http://www.w3.org/2000/svg">
<g clip-path="url(#clip0_2664_187)">
<path d="M39.0172 127.155C39.0172 127.155 38.717 130.444 43.1189 129.915C47.5208 129.385 50.9489 128.41 52.8084 122.759L53.0021 122.167C54.7821 115.894 56.6121 109.656 58.4911 103.452C59.7091 99.4351 64.2071 95.7021 68.4551 95.1581L74.4971 94.3811L78.1161 93.946C78.9451 93.846 79.5181 93.9871 79.8351 94.3671C80.1451 94.7501 80.1761 95.336 79.9151 96.125L76.9031 105.27C75.0661 110.477 73.1461 115.673 71.1441 120.858C69.5821 124.902 71.1041 128.321 74.9341 128.714C78.1821 129.047 81.9401 127.815 83.8961 121.877L84.1311 121.165C85.3981 116.829 87.2371 110.64 89.6471 102.597L92.2661 94.6431C92.5011 93.8891 92.9511 93.2201 93.5591 92.7191C94.1761 92.2221 94.9221 91.914 95.7071 91.832L117.293 89.2411C118.199 89.1341 119.073 88.834 119.857 88.36C120.305 88.043 120.658 87.6071 120.875 87.1001C121.003 86.7041 119.946 79.7711 117.426 78.3071C111.678 74.9681 102.542 87.8201 101.045 88.0011L96.8041 88.5101C95.9721 88.6111 95.3991 88.4691 95.0881 88.0921C94.7771 87.7151 94.7431 87.1251 95.0061 86.3311L98.2911 76.3601C98.7841 75.0021 99.7521 73.8711 101.014 73.1801L101.303 73.0301C101.782 72.7881 102.192 72.4251 102.491 71.9761C102.828 70.9481 98.9151 69.9741 90.7491 69.0541C90.4091 68.9671 90.0571 68.9321 89.7071 68.9501C89.1171 69.0261 88.5671 69.2921 88.1391 69.7091C87.6741 70.1491 87.3281 70.7021 87.1351 71.3141L87.0551 71.5531C82.5341 89.8311 80.9621 90.4151 79.2131 90.6241L75.2231 91.104C70.3651 91.537 66.8241 91.734 64.6011 91.696C62.9881 91.739 62.4431 90.9681 62.9651 89.3831C65.5631 81.5021 71.7981 73.6081 79.8731 67.8861C84.3821 64.6901 88.3581 61.5671 90.4571 59.2261C95.7911 53.2741 100.238 46.5732 103.656 39.3347C103.973 38.6162 104.476 37.9959 105.111 37.5386C105.747 37.0812 106.492 36.8034 107.269 36.7341L109.516 36.4641C110.344 36.3647 110.917 36.5052 111.234 36.8855C111.551 37.2658 111.577 37.8513 111.31 38.6419L105.052 57.6401C104.39 59.4361 103.954 61.3081 103.755 63.2121C103.682 63.7461 103.789 64.2891 104.061 64.7531C104.332 65.2171 104.751 65.5751 105.25 65.7701C106.303 66.2121 108.119 66.2781 110.697 65.9691L115.186 65.4311C119.761 64.8791 123.305 63.9401 125.821 62.6121C128.337 61.2851 129.959 59.5131 130.688 57.2971C131.208 55.7141 131.081 48.7834 131.081 48.7834C131.517 47.2095 128.446 47.1381 127.611 48.6194C122.08 58.4261 115.81 58.4531 117.39 53.648L122.514 38.0941C122.799 37.2227 123.847 36.2223 125.659 35.0928C126.393 34.7607 126.975 34.1618 127.29 33.4161C127.394 33.0026 127.371 32.5672 127.222 32.1683C124.297 19.0976 111.311 33.053 109.983 33.2145C109.983 33.2145 98.8041 35.548 114.62 22.5015C119.993 18.0721 115.819 14.6822 102.098 17.8523C100.204 18.2927 99.1861 18.6994 98.6891 20.1997L98.5331 20.6778C97.5601 24.596 96.6441 27.8608 95.7861 30.4723L95.0041 32.8442C94.7731 33.5551 94.3171 34.171 93.7071 34.5984C93.0601 35.0625 92.3061 35.3501 91.5161 35.4331L89.5761 35.6644L89.4651 35.6729L83.5221 36.0513C81.9911 36.0821 81.0581 36.6119 80.7211 37.6409C80.5651 38.0841 80.5331 38.5613 80.6261 39.0212L80.7191 39.4648C80.7511 39.6747 80.8251 39.8756 80.9381 40.0547C81.0511 40.2339 81.2001 40.3875 81.3751 40.5056C81.5501 40.6238 81.7471 40.7041 81.9551 40.7414C82.1621 40.7786 82.3751 40.7721 82.5801 40.7221C82.9941 40.6468 83.3971 40.5231 83.7831 40.3534C85.3401 39.7726 86.9401 39.316 88.5681 38.9875C88.6381 38.97 88.7081 38.9593 88.7761 38.9506L90.0431 38.8C91.7081 38.6002 92.3061 39.2127 91.8371 40.6373L91.6791 41.1122C87.8731 54.6744 67.9441 74.2611 67.9441 74.2611L72.8641 59.3141L73.7181 56.7311C74.1611 55.3843 75.2091 54.3839 76.8631 53.7296L77.7301 53.2804C78.4661 52.9504 79.0491 52.3508 79.3611 51.6036C79.4251 51.4139 79.4371 51.2105 79.3961 51.0148C79.3551 50.819 79.2621 50.6381 79.1281 50.4908C77.9941 48.9608 76.6431 47.6058 75.1201 46.4685C73.2561 44.9824 71.9851 44.2801 71.3221 44.3574C70.8251 44.418 70.0881 44.8865 69.1231 45.7632C68.1581 46.6398 67.4381 47.2985 66.9741 47.7327L65.2191 49.4242C64.0721 50.4759 63.2091 51.0364 62.6291 51.1059C62.3821 51.1351 62.2281 50.9261 62.1781 50.4748C62.1461 49.8816 62.2391 49.288 62.4521 48.7333L66.5181 36.3831C66.7551 35.6294 67.2041 34.9609 67.8111 34.459C68.4291 33.9628 69.1751 33.6561 69.9611 33.5755L88.1991 31.3821C89.0191 31.2837 88.2901 11.8669 74.9281 24.7789C71.2281 28.3589 66.5351 30.792 62.2191 31.3115L45.1043 33.3691C39.4157 33.8984 35.1555 34.2189 32.3236 34.3305C31.6738 34.3229 31.0347 34.4999 30.4796 34.8412C29.9908 35.1454 29.6245 35.614 29.4456 36.1637C29.3131 36.5717 29.294 37.0083 29.3904 37.426L29.5291 38.092C29.5611 38.3017 29.636 38.5023 29.7489 38.6813C29.8619 38.8602 30.0105 39.0136 30.1854 39.1317C30.3602 39.2499 30.5576 39.3302 30.765 39.3676C30.9724 39.4051 31.1853 39.3988 31.3903 39.3493C31.8036 39.2738 32.2066 39.1491 32.5907 38.9778C35.1848 38.1359 44.8826 36.2295 43.9388 39.0971L39.8674 51.4459C39.6682 52.105 39.3817 52.7343 39.0156 53.3166C38.8411 53.6618 38.5381 53.9236 38.1728 54.0447C37.3944 54.1313 36.6071 54.0305 35.8757 53.7505L28.8981 51.2826C28.5222 51.1544 28.1198 51.1245 27.7289 51.1956C27.2038 51.2559 26.7097 51.4781 26.3143 51.8319C25.9189 52.1856 25.6415 52.6535 25.52 53.1715L25.3655 53.6444C24.0548 59.8071 10.2189 102.907 10.2189 102.907C7.78978 110.04 5.72708 115.819 4.03068 120.244C2.87398 123.264 1.67488 126.351 0.433282 129.505C-1.09912 133.403 1.60268 136.157 5.87078 134.667C8.44488 133.771 11.1156 131.481 12.7788 126.435C13 125.739 13.4314 125.129 14.0127 124.69C14.635 124.224 15.371 123.937 16.142 123.86L38.9738 121.118L38.9974 121.115C40.3557 120.958 41.1646 121.881 40.8137 123.165L40.7955 123.223C40.4931 124.232 39.8956 124.494 39.0197 127.156M53.0461 38.0029C53.2725 37.2623 53.6985 36.5991 54.2761 36.087C54.7881 35.6241 55.4271 35.3289 56.1091 35.2407C57.5221 35.0693 57.9551 35.8149 57.4081 37.4776L53.3444 49.8271C52.7962 51.4879 51.8157 52.404 50.4029 52.5753C49.7326 52.6538 49.2656 52.5047 48.995 52.1163C48.7243 51.7279 48.7157 51.1435 48.9788 50.3502L53.0461 38.0029ZM24.5178 90.7831L34.5982 60.1731C34.8251 59.4341 35.2497 58.7721 35.8255 58.2601C36.3403 57.7971 36.9814 57.5021 37.6649 57.4131C37.9162 57.3521 38.1789 57.3561 38.4279 57.4261C38.6768 57.4961 38.9036 57.6291 39.0866 57.8131C39.3741 58.1611 39.4001 58.6871 39.1654 59.3981L38.4213 61.6571C37.1968 65.3761 36.1419 68.6281 34.9641 71.4221C30.0465 83.0961 26.8043 88.4991 24.5178 90.7831ZM43.5456 114.864C43.3103 115.618 42.8606 116.287 42.2522 116.788C41.6356 117.285 40.8899 117.593 40.1046 117.674L17.273 120.415C16.4415 120.517 15.8649 120.377 15.5512 119.996C15.2375 119.615 15.2116 119.03 15.4716 118.238L19.2273 106.839C19.4643 106.085 19.9137 105.417 20.5208 104.915C21.1387 104.419 21.8849 104.113 22.6704 104.032L45.5004 101.287C46.3334 101.188 46.9054 101.327 47.219 101.709C47.5327 102.09 47.5604 102.678 47.2987 103.466L43.5456 114.864ZM50.077 95.0361C49.8426 95.7941 49.3903 96.4651 48.7773 96.9651C48.1644 97.4651 47.4183 97.7711 46.6335 97.8441L23.8048 100.587C22.9718 100.686 22.3967 100.549 22.083 100.168C21.7694 99.787 21.7434 99.202 22.0034 98.41C22.3868 96.152 23.4114 94.0531 24.9533 92.3671C25.3752 91.9351 33.7578 85.0781 38.6434 76.4541C41.4338 71.5161 43.7298 66.3111 45.4976 60.9171L46.2003 58.7791C46.4282 58.0391 46.8539 57.3761 47.4308 56.8631C47.9447 56.4001 48.5863 56.1051 49.2702 56.0171C50.683 55.8458 51.116 56.5911 50.569 58.2541L43.6844 79.1551C42.8743 81.6091 42.6873 83.2661 43.1235 84.1261C43.5596 84.9861 44.9844 85.2711 47.3978 84.9821L50.5147 84.6051L52.1398 84.4111C53.1351 84.2891 53.373 85.0211 52.8536 86.6071L50.077 95.0361ZM57.1151 73.6631C56.8801 74.4181 56.4301 75.0871 55.8221 75.5871C55.2051 76.0841 54.4591 76.3921 53.6741 76.4741L52.4255 76.6211C52.009 76.6741 51.752 76.6081 51.6526 76.4311C51.5531 76.2531 51.6031 75.8491 51.8138 75.2121L57.6791 57.4021C57.8781 56.6491 58.3041 55.9761 58.8981 55.4757C59.4921 54.9757 60.2251 54.6734 60.9961 54.6105C62.6561 54.4097 63.2141 55.1401 62.6691 56.8011L57.1151 73.6631Z" fill="white"/>
<path d="M312.335 41.4397L311.346 40.6439C311.099 40.4422 310.697 40.5111 310.288 40.8245C301.314 47.7403 294.88 50.6843 286.563 51.6843C281.686 52.2696 275.616 51.0502 269.46 48.2467L266.522 46.9564C259.805 43.9658 253.651 42.9393 247.151 43.7223C237.584 44.8701 229.063 49.7259 216.757 61.0363C216.347 61.4243 216.05 61.9183 215.9 62.4643C215.82 62.6563 215.794 62.8673 215.826 63.0723C215.857 63.2783 215.944 63.4713 216.078 63.6293C216.871 64.2643 218.35 64.0573 219.621 63.1253C227.895 57.0623 233.887 54.4323 241.219 53.5512C246.355 52.933 252.429 54.1334 258.789 57.0243L261.727 58.3153C268.459 61.3093 274.754 62.4003 280.969 61.6543C290.4 60.5213 298.425 55.9153 311.636 44.0493C312.054 43.6628 312.358 43.167 312.512 42.6175C312.651 42.0877 312.587 41.6416 312.334 41.4393" fill="white"/>
<path d="M217.766 2.42622C215.568 0.642423 213.438 -0.187679 211.591 0.0356209C210.278 0.285521 209.029 0.805124 207.924 1.56182C206.145 2.77672 204.208 3.73902 202.169 4.42142C195.783 6.51262 190.311 8.13652 185.185 9.47532C180.931 11.2225 172.37 9.57832 172.294 10.2772C171.964 13.2757 172.597 15.3484 173.988 17.3313C175.625 19.6646 176.917 20.3525 178.632 20.1447C179.674 19.9388 180.667 19.5338 181.559 18.9515C183.573 17.9415 185.642 17.0487 187.757 16.2773C192.957 14.3291 197.854 12.5355 202.577 10.883L202.762 11.4629C186.149 25.3889 171.099 36.4776 153.834 48.9154C148.845 52.5306 147.434 54.5072 146.65 56.8892C145.493 60.4032 146.809 62.1742 150.105 61.7762C151.554 61.6012 154.168 60.2042 156.807 57.9592C164.376 51.5079 170.101 47.2012 175.319 44.0452C181.799 40.1326 189.814 35.7959 198.249 34.7824C208.137 33.5927 212.782 36.4089 210.137 44.4402C207.159 53.4749 197.046 60.3522 184.564 64.0222C181.453 65.0052 182.418 63.7292 182.418 63.7292C184.329 62.2452 185.74 60.2062 186.462 57.8892C188.197 52.6184 185.012 49.9868 177.629 50.8745C170.114 51.7772 161.663 58.2172 160.009 63.2362C158.398 68.1322 160.42 70.0552 165.207 71.2872C153.207 78.8772 141.512 85.9462 131.157 92.0082C127.24 94.2892 121.23 97.5412 118.18 99.1112C114.56 100.876 112.467 103.778 111.355 107.526C110.167 111.524 111.929 113.484 115.09 113.103C117.595 112.802 120.686 111.107 125.011 107.212C128.769 103.867 133.703 99.6572 138.04 96.4892C140.728 94.4762 144.074 92.3862 146.711 92.0722C156.995 90.8342 158.741 109.733 158.751 110.026C159.482 125.846 167.454 122.77 170.766 120.386C173.812 118.191 172.782 115.143 174.79 113.714C176.456 112.524 177.926 112.988 179.505 116.413C181.083 119.838 182.987 124.916 186.147 122.422C189.289 119.948 183.411 114.708 182.06 112.674C180.708 110.639 175.173 103.339 176.198 101.534C177.007 100.109 180.667 101.537 181.695 100.85C183.93 99.3542 183.661 98.6522 182.761 94.6212C181.464 88.8112 198.333 77.6732 202.914 77.1252C207.926 76.5192 213.276 79.4942 214.671 84.8682C214.806 85.4262 214.789 86.0112 214.621 86.5602C214.225 87.6232 213.483 88.5192 212.516 89.1032C210.694 90.2962 203.438 92.1092 203.687 94.9602C203.783 96.0462 206.868 95.8972 206.868 95.8972L206.862 95.9012C209.955 95.9752 212.986 96.7772 215.714 98.2412C216.751 99.3212 218.48 99.8372 220.589 99.5822C224.014 99.1702 227.217 96.3752 228.869 91.3572C229.646 88.9942 229.758 86.4602 229.192 84.0392C228.626 81.6182 227.404 79.4042 225.661 77.6432C223.358 75.4082 220.592 73.7152 217.561 72.6832C214.53 71.6512 211.308 71.3072 208.127 71.6752C202.746 72.4462 197.571 74.2972 192.91 77.1182C188.821 79.5372 179.413 86.5742 172.033 91.6792C169.254 93.5782 167.122 94.6802 165.672 94.8532C164.357 95.0122 163.054 93.9632 160.704 91.4712C158.039 88.4182 155.536 86.7902 151.844 87.2352C150.077 87.4072 148.348 87.8572 146.719 88.5702L146.67 88.3372C156.926 81.8022 164.832 76.6342 172.007 72.1542C173.853 71.9362 175.739 71.5892 180.965 70.7192C204.41 66.8172 218.064 56.4982 222.156 44.0749C225.463 34.0382 218.804 27.7278 202.849 29.6441C196.255 30.4377 189.193 31.8908 178.006 38.1758L177.826 37.9537C187.405 30.778 198.728 22.5505 206.578 16.7838C210.395 14.0352 213.174 12.1353 216.537 10.7673C218.284 10.0753 220.016 8.66422 220.471 7.28402C220.926 5.90382 220.367 4.52262 217.765 2.42672M172.528 65.5892C167.732 65.9262 165.715 64.3592 166.625 61.5982C167.575 58.7102 171.871 55.6658 176.224 55.1428C179.517 54.7467 180.782 56.2812 180.164 58.1612C179.297 60.7962 177.177 62.6212 172.528 65.5892Z" fill="white"/>
</g>
<defs>
<clipPath id="clip0_2664_187">
<rect width="313" height="135" fill="white"/>
</clipPath>
</defs>
</svg>
