<svg width="285" height="95" viewBox="0 0 285 95" fill="none" xmlns="http://www.w3.org/2000/svg">
<path d="M40.7638 39.5806L48.4112 22.5373C48.8619 21.5275 48.1571 20.6308 46.9562 20.6914L46.4404 20.7149C46.0009 20.7384 45.5754 20.8764 45.2066 21.115C44.8379 21.3536 44.5388 21.6844 44.3395 22.0741L36.9611 38.5149C36.7614 38.9043 36.4622 39.2347 36.0935 39.4731C35.7248 39.7115 35.2995 39.8496 34.8602 39.8735L23.5633 40.4309L31.208 23.3896C31.6614 22.3798 30.9538 21.4824 29.7529 21.5436L29.2372 21.5665C28.7979 21.5906 28.3726 21.7288 28.0039 21.9674C27.6353 22.2059 27.3361 22.5363 27.1363 22.9257L19.7606 39.3652C19.5617 39.7552 19.2627 40.0861 18.8938 40.3246C18.5249 40.5632 18.0992 40.7008 17.6597 40.7237L9.99538 41.102C9.55722 41.1243 9.1326 41.2603 8.76393 41.4966C8.39527 41.7329 8.09546 42.0611 7.89445 42.4484L7.85379 42.5366C7.39023 43.5518 8.09438 44.4552 9.30207 44.396L15.4165 44.0944C16.6187 44.0352 17.3249 44.9278 16.8742 45.939L10.9889 59.0724C10.7902 59.4627 10.4913 59.7941 10.1224 60.033C9.75356 60.2719 9.32773 60.4098 8.88799 60.4329L2.24634 60.7621C1.80965 60.785 1.38653 60.9207 1.0187 61.1556C0.650875 61.3905 0.35105 61.7166 0.148798 62.1017C-0.325606 63.1183 0.381933 64.0278 1.59641 63.9685L6.66236 63.7174C7.86463 63.6582 8.56946 64.5555 8.11539 65.5647L1.20265 80.9095C0.748579 81.9193 1.45409 82.8153 2.65568 82.7568L3.17075 82.7339C3.60966 82.7099 4.0346 82.5721 4.40321 82.3342C4.77183 82.0964 5.07126 81.7667 5.27168 81.3781L12.8025 64.6599C13.0029 64.2712 13.3023 63.9415 13.6709 63.7036C14.0395 63.4657 14.4645 63.328 14.9034 63.3041L23.8656 62.8631C25.0692 62.8032 25.7727 63.7006 25.3186 64.7104L18.4059 80.0539C17.9491 81.0637 18.6546 81.9611 19.8589 81.9011L20.3747 81.8776C20.8135 81.8535 21.2385 81.7157 21.6071 81.4779C21.9757 81.24 22.2751 80.9103 22.4756 80.5218L30.003 63.813C30.2023 63.4234 30.5014 63.0928 30.8702 62.8545C31.239 62.6162 31.6646 62.4787 32.1039 62.4558L39.7323 62.0755C40.1751 62.0526 40.6038 61.9133 40.9746 61.6719C41.3454 61.4305 41.645 61.0956 41.8428 60.7015C42.2819 59.6971 41.5717 58.8118 40.3789 58.8704L31.9914 59.2912L38.7605 44.1947C38.9602 43.8053 39.2594 43.4748 39.6281 43.2363C39.9968 42.9977 40.4221 42.8596 40.8614 42.8355L47.3926 42.5144C47.8297 42.4911 48.2531 42.3546 48.6206 42.1184C48.9881 41.8822 49.2869 41.5545 49.4874 41.168L49.5308 41.0792C49.9923 40.0653 49.2882 39.1619 48.0798 39.2218L40.7638 39.5806ZM26.0885 59.5826L14.7936 60.1414L21.5579 45.0463C21.7567 44.6561 22.0556 44.325 22.4246 44.0865C22.7935 43.8479 23.2193 43.7104 23.6589 43.6878L32.6231 43.2455C33.8253 43.1863 34.5288 44.0803 34.0781 45.0914L28.1888 58.2235C27.9902 58.6138 27.6913 58.9451 27.3223 59.1837C26.9534 59.4224 26.5282 59.56 26.0885 59.5826Z" fill="#EE8A98"/>
<path d="M76.6826 84.9586C76.6826 84.9586 76.5546 87.4239 79.916 87.3788C83.2775 87.3337 85.884 86.8692 87.1426 82.7391L87.274 82.3083C88.4533 77.7013 89.6707 73.1236 90.9263 68.575C91.7395 65.6305 95.0834 63.1666 98.329 63.0952L102.946 62.9929L105.712 62.9538C105.955 62.9237 106.201 62.9493 106.432 63.0287C106.663 63.108 106.873 63.239 107.045 63.4116C107.175 63.6074 107.254 63.8324 107.273 64.0661C107.293 64.2998 107.254 64.5347 107.158 64.7493L105.121 71.4328C103.867 75.2282 102.549 79.0089 101.167 82.7748C100.089 85.7106 101.361 88.4229 104.315 89.0288C106.818 89.5431 109.669 88.9123 110.991 84.5722L111.152 84.0532C111.995 80.8712 113.221 76.3321 114.829 70.4357L116.601 64.6234C116.752 64.0812 117.082 63.6049 117.537 63.2702C118.012 62.9389 118.579 62.7646 119.159 62.7721L135.659 62.5466C136.334 62.5428 136.998 62.3852 137.601 62.0861C137.938 61.8807 138.199 61.5741 138.347 61.2109C138.433 60.9215 137.413 55.5857 135.433 54.277C130.918 51.286 124.288 60.2826 123.144 60.3001L119.903 60.3452C119.661 60.3761 119.415 60.3511 119.184 60.2722C118.953 60.1932 118.743 60.0625 118.572 59.8901C118.442 59.6941 118.363 59.4689 118.342 59.235C118.322 59.001 118.361 58.7657 118.455 58.5505L120.678 51.2638C120.839 50.7812 121.1 50.3372 121.444 49.9603C121.788 49.5834 122.206 49.2817 122.674 49.0745L122.892 48.985C123.249 48.8427 123.556 48.5978 123.773 48.2815C123.999 47.5298 120.963 46.4769 114.666 45.1229C114.407 45.031 114.137 44.9764 113.862 44.9606C113.426 44.9638 113.006 45.1232 112.678 45.4097C112.332 45.7107 112.081 46.1049 111.956 46.5447L111.901 46.7183C108.979 60.1964 107.789 60.5135 106.451 60.531L103.402 60.5727C99.6842 60.509 96.9711 60.3733 95.2623 60.1655C94.0243 60.0681 93.5822 59.4397 93.936 58.2805C95.694 52.5213 100.244 47.0448 106.275 43.3611C109.641 41.3045 112.6 39.2587 114.142 37.6558C118.081 33.5459 121.304 28.8138 123.68 23.6533C123.905 23.1346 124.283 22.6961 124.765 22.3962C125.247 22.0963 125.809 21.9492 126.377 21.9743L128.094 21.9514C128.336 21.9212 128.583 21.9468 128.814 22.0262C129.045 22.1055 129.255 22.2366 129.427 22.4092C129.557 22.6049 129.636 22.8299 129.656 23.0636C129.676 23.2973 129.636 23.5323 129.541 23.7469L125.305 37.6282C124.846 38.9573 124.569 40.3413 124.479 41.7434C124.452 42.1683 124.554 42.5915 124.771 42.9584C124.989 43.3253 125.312 43.6189 125.699 43.8014C126.522 44.2215 127.919 44.418 129.889 44.3911L133.32 44.346C136.817 44.2966 139.511 43.8703 141.403 43.0669C142.239 42.7713 142.996 42.2902 143.615 41.6602C144.235 41.0303 144.703 40.2681 144.981 39.4317C145.333 38.2744 145.027 33.0154 145.027 33.0154C145.315 31.8582 142.954 31.5573 142.356 32.6115C138.404 39.5932 133.59 39.1085 134.659 35.5998L138.123 24.2268C138.316 23.5895 139.091 22.9163 140.448 22.2072C140.719 22.1144 140.967 21.9646 141.174 21.768C141.382 21.5715 141.544 21.3328 141.65 21.0682C141.717 20.7503 141.686 20.4199 141.561 20.1197C138.918 9.98536 129.368 19.5077 128.353 19.5246C128.353 19.5246 119.838 20.3923 131.593 11.7828C135.586 8.86112 132.278 5.95762 121.834 7.2542C120.392 7.43529 119.622 7.65812 119.285 8.75745L119.18 9.10751C118.55 11.996 117.945 14.3946 117.365 16.3033L116.836 18.0368C116.686 18.5477 116.349 18.9844 115.891 19.2607C115.393 19.5643 114.819 19.7223 114.234 19.7164L112.751 19.7353H112.667L108.115 19.5427C106.94 19.4444 106.24 19.7707 106.014 20.5216C105.907 20.8581 105.896 21.2174 105.982 21.5596L106.067 21.903C106.13 22.2224 106.305 22.509 106.562 22.7116C106.818 22.9142 107.139 23.0196 107.467 23.009C107.488 23.009 107.51 23.0057 107.534 23.0023C107.845 22.9797 108.151 22.9184 108.446 22.8199C109.637 22.5034 110.853 22.2863 112.081 22.1709C112.134 22.1635 112.188 22.1621 112.239 22.1595L113.208 22.1473C114.481 22.1298 114.958 22.6417 114.641 23.6829L114.533 24.0296C112.015 33.9929 97.3009 47.2226 97.3009 47.2226L100.628 36.3087L101.204 34.4238C101.379 33.9143 101.687 33.4595 102.095 33.1051C102.503 32.7506 102.997 32.5089 103.529 32.4042L104.181 32.1349C104.453 32.043 104.701 31.8936 104.908 31.6971C105.116 31.5005 105.278 31.2615 105.383 30.9965C105.424 30.8467 105.426 30.6892 105.388 30.5385C105.351 30.3879 105.276 30.249 105.171 30.1348C104.251 28.8836 103.176 27.7527 101.972 26.7688C100.495 25.4933 99.5008 24.8585 98.9898 24.8644C98.3638 24.9895 97.7901 25.2983 97.3429 25.751C96.6259 26.3384 96.0955 26.778 95.7516 27.0698L94.4552 28.2095C93.9306 28.7491 93.2552 29.1201 92.5162 29.2745C92.3278 29.2745 92.2038 29.1055 92.1509 28.7595C92.1072 28.319 92.1623 27.8743 92.3122 27.4575L95.0631 18.4313C95.2173 17.8815 95.5541 17.3997 96.0188 17.0641C96.4835 16.7285 97.0488 16.5589 97.6228 16.5827L111.563 16.3902C112.191 16.3821 111.047 1.6182 101.173 10.3213C98.5451 12.7001 95.1611 14.0886 91.6094 14.2454L78.5369 14.4244C74.1846 14.3679 70.9227 14.268 68.7513 14.1248C68.2706 14.0626 67.7822 14.1449 67.3491 14.3611C67.0252 14.5384 66.7727 14.8213 66.6344 15.162C66.4962 15.5027 66.4805 15.8804 66.59 16.2313L66.7168 16.7463C66.7809 17.0662 66.9575 17.3531 67.215 17.5556C67.4725 17.7581 67.7941 17.8631 68.1224 17.8517L68.1827 17.8456C68.492 17.8224 68.7972 17.7604 69.0908 17.6612C71.0562 17.2323 78.4481 16.5692 77.809 18.6635L75.0568 27.6918C74.9265 28.1678 74.725 28.6216 74.459 29.0382C74.3985 29.1603 74.3109 29.2671 74.2028 29.3507C74.0947 29.4344 73.9689 29.4925 73.8349 29.5209C73.2201 29.5212 72.6132 29.3831 72.0599 29.1169L66.6266 26.6874C66.3441 26.5616 66.0348 26.5068 65.726 26.5278C65.3403 26.5203 64.9644 26.6486 64.6648 26.8899C64.3653 27.1313 64.1614 27.4702 64.0893 27.8466L63.9842 28.1913C63.1628 32.7529 53.834 64.278 53.834 64.278C52.1835 69.4841 50.7732 73.6942 49.603 76.9085C48.8038 79.1036 47.9754 81.3447 47.1178 83.6318C46.0579 86.4592 48.2184 88.7622 51.4484 87.9799C53.3989 87.5087 55.3792 85.9893 56.5056 82.3015C56.6477 81.8012 56.9646 81.3675 57.3995 81.0783C57.8794 80.7718 58.4399 80.6133 59.0104 80.6226L76.4631 80.3843H76.4807C76.8095 80.3514 77.1393 80.4363 77.4107 80.6237C77.6821 80.8111 77.8772 81.0886 77.9608 81.4062C78.0206 81.6279 78.0126 81.8622 77.9378 82.0794L77.9256 82.1218C77.7223 82.8623 77.2723 83.0124 76.6799 84.9573M84.7719 18.5706C84.9166 18.0384 85.2271 17.5652 85.659 17.2189C86.0509 16.9045 86.5379 16.7302 87.0416 16.7241C88.1219 16.7084 88.4768 17.3079 88.1063 18.5228L85.3575 27.5504C84.9888 28.7622 84.2634 29.3768 83.1813 29.3943C82.9743 29.4175 82.7648 29.3874 82.5729 29.3067C82.3811 29.226 82.2134 29.0976 82.0861 28.9338C81.9708 28.7313 81.9046 28.5047 81.8928 28.2723C81.8811 28.0399 81.924 27.8079 82.0183 27.5948L84.7719 18.5706ZM64.4525 56.2468L71.2724 33.8778C71.4179 33.3467 71.7275 32.8744 72.1575 32.5274C72.552 32.2141 73.0405 32.0407 73.5455 32.0346C73.7497 32.0124 73.9563 32.0385 74.1484 32.1108C74.3405 32.1831 74.5127 32.2996 74.6508 32.4506C74.771 32.6268 74.844 32.8305 74.8631 33.0425C74.8822 33.2545 74.8467 33.4678 74.76 33.6624L74.2551 35.3104C73.4262 38.0274 72.7153 40.4051 71.8925 42.4254C68.4673 50.8733 66.14 54.7038 64.4525 56.2495M79.7913 76.0165C79.6403 76.5588 79.3108 77.0352 78.8554 77.3697C78.381 77.7015 77.8131 77.8759 77.233 77.8678L59.7817 78.1041C59.5388 78.1353 59.292 78.1104 59.0605 78.0314C58.8289 77.9523 58.6188 77.8213 58.4466 77.6484C58.3165 77.4527 58.2379 77.2277 58.218 76.994C58.1981 76.7603 58.2376 76.5254 58.3327 76.3107L60.8721 67.9786C61.0268 67.4293 61.3637 66.948 61.8282 66.6127C62.2926 66.2775 62.8575 66.1078 63.4312 66.1313L80.8831 65.8917C81.1258 65.8611 81.3723 65.8865 81.6035 65.9659C81.8347 66.0453 82.0444 66.1765 82.2162 66.3494C82.3467 66.545 82.4255 66.77 82.4454 67.0038C82.4653 67.2376 82.4256 67.4725 82.3301 67.6871L79.7913 76.0165ZM84.2101 61.5273C84.0557 62.077 83.7189 62.5588 83.2542 62.8944C82.7895 63.2299 82.2243 63.3996 81.6503 63.3759L64.2004 63.6169C63.9576 63.6478 63.7109 63.6227 63.4795 63.5436C63.2481 63.4644 63.0381 63.3333 62.866 63.1605C62.7355 62.965 62.6566 62.74 62.6366 62.5062C62.6166 62.2725 62.6561 62.0375 62.7514 61.8229C62.9568 60.1913 63.6875 58.6694 64.8348 57.4841C65.1465 57.1913 71.3768 52.6728 74.8697 46.5346C76.8784 42.9828 78.486 39.2215 79.6632 35.3191L80.1376 33.7559C80.2853 33.2243 80.5973 32.7522 81.0295 32.4062C81.4233 32.0922 81.9119 31.9188 82.4168 31.9141C83.4967 31.8975 83.8516 32.4971 83.4815 33.7129L78.8256 48.9837C78.2771 50.7788 78.1833 52.0187 78.5443 52.7031C78.9053 53.3875 80.0082 53.718 81.853 53.6947L84.2351 53.6597L85.4774 53.6428C86.2373 53.6312 86.4425 54.2054 86.0928 55.3656L84.2101 61.5273ZM88.9738 45.9092C88.8226 46.4513 88.4931 46.9276 88.0378 47.2623C87.5631 47.5935 86.9954 47.7678 86.4154 47.7605L85.4605 47.7712C85.1419 47.778 84.942 47.7039 84.8607 47.5646C84.7854 47.2601 84.8162 46.9392 84.9481 46.6544L88.9168 33.6361C89.0414 33.0888 89.3571 32.6029 89.8079 32.2648C90.2588 31.9266 90.8156 31.758 91.3797 31.7889C92.6483 31.77 93.0986 32.3678 92.7304 33.5823L88.9738 45.9092Z" fill="#EE8A98"/>
<path d="M283.99 41.6745L283.206 40.9926C283.085 40.9091 282.939 40.8687 282.793 40.8781C282.646 40.8876 282.507 40.9462 282.398 41.0444C275.712 45.5623 270.858 47.2722 264.497 47.3658C260.766 47.4176 256.068 46.0039 251.253 43.3838L248.96 42.1653C243.709 39.3608 238.95 38.0851 233.982 38.1551C226.663 38.254 220.266 41.2518 211.153 48.8266C210.849 49.0915 210.635 49.4447 210.543 49.8364C210.489 49.9877 210.476 50.1505 210.506 50.3083C210.535 50.4662 210.607 50.6134 210.712 50.7351C211.118 51.0014 211.597 51.1352 212.083 51.1178C212.569 51.1004 213.037 50.9328 213.423 50.6382C219.596 46.7107 224.121 45.2001 229.728 45.1227C233.655 45.0681 238.357 46.4691 243.33 49.1699L245.628 50.3817C250.891 53.193 255.759 54.5259 260.511 54.4619C267.723 54.363 273.751 51.518 283.542 43.5918C283.853 43.3292 284.073 42.9759 284.171 42.582C284.225 42.4293 284.238 42.2648 284.208 42.1055C284.178 41.9462 284.105 41.7977 283.999 41.6752" fill="#EE8A98"/>
<path d="M218.516 60.9095C216.757 59.0632 214.643 57.5868 212.299 56.568C209.955 55.5491 207.429 55.0086 204.871 54.9786C200.863 55.1012 196.929 56.0877 193.343 57.87C190.276 59.3726 183.263 63.9436 177.749 67.216C175.672 68.4278 174.067 69.0915 172.959 69.1077C171.952 69.1218 170.923 68.2224 169.042 66.1456C166.903 63.6191 164.933 62.1845 162.112 62.2256C160.788 62.2087 159.471 62.411 158.214 62.8241L158.169 62.6436C165.85 58.523 171.765 55.2445 177.14 52.4286C178.551 52.4117 179.986 52.3006 183.976 52.0623C201.864 50.9946 212.038 44.2802 214.807 35.2014C217.044 27.8676 211.742 22.5521 199.547 22.719C194.507 22.7864 189.126 23.3195 180.725 27.1803L180.581 26.9972C187.722 22.3346 196.169 17.015 202.024 13.2808C204.871 11.5063 206.95 10.2925 209.491 9.52571C210.811 9.14267 212.099 8.21365 212.405 7.20453C212.71 6.19541 212.242 5.1055 210.181 3.30807H210.178C208.435 1.78058 206.774 0.980826 205.366 1.00035C204.389 1.07621 203.442 1.37007 202.595 1.86002C201.246 2.64436 199.785 3.21854 198.261 3.56254C193.419 4.63225 189.266 5.42123 185.37 6.02307C182.156 7.00257 175.531 5.06848 175.493 5.59155C175.298 7.54051 175.837 9.49224 177.008 11.0687C178.335 12.9671 179.347 13.5918 180.66 13.575C181.436 13.5087 182.19 13.2812 182.872 12.9072C184.397 12.3014 185.959 11.7917 187.548 11.381C191.482 10.3241 195.189 9.36146 198.766 8.4863L198.926 8.94003C186.589 18.1541 175.365 25.3391 162.483 33.3704C158.762 35.7057 157.739 37.0898 157.206 38.8307C156.423 41.3982 157.489 42.8443 160.007 42.8086C161.115 42.7931 163.079 41.9455 165.039 40.4578C170.657 36.181 174.924 33.3805 178.837 31.412C183.695 28.9697 189.72 26.3321 196.167 26.2432C203.725 26.1382 207.377 28.6445 205.588 34.5134C203.573 41.1148 196.013 45.5088 186.54 47.284C184.179 47.7774 184.882 46.8888 184.882 46.8888C186.311 45.9072 187.347 44.4576 187.809 42.7938C188.983 38.9417 186.458 36.6933 180.814 36.7707C175.071 36.8501 168.773 41.0475 167.655 44.7144C166.565 48.2904 168.178 49.9101 171.889 51.2296C162.904 56.0093 154.132 60.4234 146.365 64.1819C143.425 65.5956 138.91 67.5714 136.613 68.5159C133.886 69.5594 132.365 71.5884 131.625 74.3378C130.833 77.2689 132.245 78.8953 134.664 78.8603C136.579 78.8354 138.902 77.798 142.105 75.1981C145.208 72.6753 148.44 70.3131 151.788 68.1208C153.791 66.8134 156.298 65.5 158.314 65.4744C159.616 65.4196 160.91 65.7001 162.071 66.2888C163.232 66.8776 164.22 67.7545 164.939 68.8344C165.187 69.1838 165.424 69.5318 165.657 69.8745C168.079 73.4572 165.027 79.2898 164.946 79.4217C160.668 86.6249 165.353 88.0891 167.619 88.2137C169.706 88.3268 170.108 86.6249 171.482 86.7077C172.621 86.7751 173.183 87.4974 172.93 89.5581C172.676 91.6187 172.097 94.5195 174.325 94.5397C176.539 94.5653 175.282 90.1875 175.236 88.8175C175.19 87.4476 174.271 80.8556 175.937 80.8799C178.255 80.8799 177.983 83.502 179.004 83.502C181.762 83.3902 176.04 78.3641 186.391 68.3611C193.06 64.0412 197.862 58.9767 201.03 58.6778C203.1 58.7006 205.109 59.3719 206.772 60.5961C208.435 61.8203 209.667 63.5349 210.291 65.4953C210.411 65.9127 210.416 66.3547 210.304 66.7744C210.04 67.5366 209.488 68.1666 208.764 68.5308C207.401 69.2874 201.883 70.0791 202.161 72.2576C202.267 73.0876 204.632 73.2236 204.632 73.2236H204.628C207.071 73.5524 209.414 74.3997 211.497 75.7077C211.992 76.1943 212.586 76.5713 213.238 76.814C213.89 77.0568 214.587 77.1597 215.282 77.116C217.899 77.0797 220.274 75.221 221.392 71.5548C222.453 67.9868 221.347 63.8951 218.516 60.9115M172.688 44.0001C173.329 41.8903 176.536 39.93 179.867 39.8829C182.384 39.8479 183.402 41.1121 182.984 42.4861C182.397 44.4121 180.824 45.6219 177.344 47.4954H177.34C173.666 47.3648 172.071 46.0143 172.689 43.9947" fill="#EE8A98"/>
<path d="M224.472 68.418C224.472 68.106 224.377 67.95 224.186 67.95C224.047 67.95 223.917 68.0367 223.796 68.21C223.12 69.0767 222.453 69.8393 221.794 70.498C221.638 70.654 221.499 70.732 221.378 70.732C221.274 70.732 221.222 70.68 221.222 70.576C221.222 70.4547 221.274 70.3073 221.378 70.134C222.678 67.9673 223.839 65.402 224.862 62.438C225.122 61.6927 225.365 60.852 225.59 59.916C225.833 58.98 225.997 58.1567 226.084 57.446C226.136 57.1513 226.275 57.004 226.5 57.004C226.535 57.004 226.621 57.0213 226.76 57.056C228.667 57.6973 229.62 58.122 229.62 58.33C229.62 58.3993 229.551 58.46 229.412 58.512L229.308 58.538C229.065 58.642 228.892 58.8153 228.788 59.058C228.147 60.774 227.323 62.542 226.318 64.362C226.266 64.466 226.24 64.57 226.24 64.674C226.24 64.8647 226.335 65.0207 226.526 65.142C227.133 65.5407 227.436 65.8353 227.436 66.026C227.436 66.13 227.367 66.208 227.228 66.26C226.968 66.3813 226.838 66.5893 226.838 66.884V74.242C226.873 76.1313 226.933 78.038 227.02 79.962V80.066C227.02 80.3087 226.933 80.4907 226.76 80.612C226.5 80.768 226.205 80.9067 225.876 81.028C225.547 81.1493 225.226 81.21 224.914 81.21C224.706 81.21 224.533 81.158 224.394 81.054C224.255 80.95 224.186 80.8287 224.186 80.69C224.255 79.6673 224.316 78.6793 224.368 77.726C224.42 76.7553 224.455 75.49 224.472 73.93V68.418ZM240.384 63.478C240.661 63.478 240.878 63.3567 241.034 63.114L241.424 62.516C241.493 62.412 241.589 62.2733 241.71 62.1C241.849 61.9093 241.953 61.7707 242.022 61.684C242.109 61.5973 242.187 61.554 242.256 61.554C242.395 61.554 242.741 61.7967 243.296 62.282C243.868 62.7673 244.275 63.1747 244.518 63.504C244.605 63.6253 244.648 63.7293 244.648 63.816C244.648 63.92 244.596 64.0153 244.492 64.102C244.353 64.1887 244.18 64.232 243.972 64.232H238.174C238.018 64.232 237.897 64.2667 237.81 64.336C237.723 64.4053 237.68 64.5007 237.68 64.622C237.68 64.674 237.697 64.752 237.732 64.856C238.443 66.624 239.413 68.2187 240.644 69.64C241.875 71.0613 243.218 72.188 244.674 73.02C244.934 73.1413 245.064 73.254 245.064 73.358C245.064 73.4447 245.012 73.5313 244.908 73.618C244.821 73.6873 244.761 73.7393 244.726 73.774C244.241 74.2073 243.885 74.788 243.66 75.516C243.573 75.776 243.452 75.906 243.296 75.906C243.192 75.906 243.088 75.854 242.984 75.75C241.632 74.5193 240.445 72.942 239.422 71.018C238.399 69.0767 237.602 66.9707 237.03 64.7C236.961 64.388 236.917 64.232 236.9 64.232H236.848V74.502C236.848 74.6753 236.891 74.814 236.978 74.918C237.082 75.0047 237.221 75.048 237.394 75.048H237.628C237.905 75.048 238.122 74.9267 238.278 74.684L238.616 74.164C238.685 74.06 238.772 73.9213 238.876 73.748C238.997 73.5747 239.093 73.4533 239.162 73.384C239.231 73.2973 239.301 73.254 239.37 73.254C239.491 73.254 239.795 73.4793 240.28 73.93C240.765 74.3807 241.121 74.762 241.346 75.074C241.415 75.1607 241.45 75.2733 241.45 75.412C241.45 75.516 241.407 75.6027 241.32 75.672C241.181 75.7587 241.008 75.802 240.8 75.802H237.394C237.221 75.802 237.082 75.854 236.978 75.958C236.891 76.0447 236.848 76.1747 236.848 76.348V77.31L236.9 78.48C236.9 78.8267 236.917 79.2773 236.952 79.832V79.988C236.952 80.196 236.891 80.3607 236.77 80.482C236.579 80.6727 236.311 80.8373 235.964 80.976C235.617 81.1147 235.279 81.184 234.95 81.184C234.742 81.184 234.586 81.132 234.482 81.028C234.378 80.9413 234.326 80.82 234.326 80.664C234.395 79.8667 234.447 78.844 234.482 77.596V76.348C234.482 76.1747 234.43 76.0447 234.326 75.958C234.239 75.854 234.109 75.802 233.936 75.802H233.182C232.575 75.8367 231.986 75.9147 231.414 76.036C231.362 76.0533 231.293 76.062 231.206 76.062C230.998 76.062 230.833 75.9493 230.712 75.724L230.634 75.542C230.582 75.438 230.556 75.3427 230.556 75.256C230.556 75.0133 230.721 74.9093 231.05 74.944C231.501 74.9787 232.194 75.0133 233.13 75.048H233.936C234.109 75.048 234.239 75.0047 234.326 74.918C234.43 74.814 234.482 74.6753 234.482 74.502V69.354C234.482 69.0593 234.395 68.912 234.222 68.912C234.083 68.912 233.953 69.0073 233.832 69.198C232.151 71.8673 230.079 74.0773 227.618 75.828C227.341 76.0187 227.159 76.062 227.072 75.958L227.02 75.854C227.02 75.7673 227.107 75.62 227.28 75.412C228.563 74.06 229.707 72.4653 230.712 70.628C231.735 68.7733 232.567 66.8493 233.208 64.856C233.225 64.804 233.234 64.7347 233.234 64.648C233.234 64.3707 233.069 64.232 232.74 64.232H231.518C230.599 64.2493 229.611 64.3447 228.554 64.518H228.424C228.164 64.518 227.982 64.3967 227.878 64.154L227.774 63.972C227.722 63.868 227.696 63.7727 227.696 63.686C227.696 63.426 227.869 63.3133 228.216 63.348C228.805 63.4 229.698 63.4433 230.894 63.478H233.936C234.109 63.478 234.239 63.4347 234.326 63.348C234.43 63.244 234.482 63.1053 234.482 62.932V62.568C234.482 60.8347 234.404 59.2833 234.248 57.914V57.81C234.248 57.5327 234.378 57.394 234.638 57.394C234.725 57.394 234.794 57.4027 234.846 57.42C236.614 57.8533 237.498 58.1913 237.498 58.434C237.498 58.5207 237.429 58.6073 237.29 58.694L237.212 58.746C236.969 58.902 236.848 59.1187 236.848 59.396V62.932C236.848 63.1053 236.891 63.244 236.978 63.348C237.082 63.4347 237.221 63.478 237.394 63.478H240.384ZM262.146 59.422C262.042 59.1967 261.929 59.084 261.808 59.084C261.704 59.084 261.6 59.1793 261.496 59.37C260.629 60.8953 259.407 62.3253 257.83 63.66C257.674 63.7813 257.596 63.9027 257.596 64.024C257.596 64.18 257.735 64.2753 258.012 64.31C258.515 64.3447 259.286 64.3793 260.326 64.414H262.042C262.319 64.414 262.536 64.2927 262.692 64.05L262.926 63.712C262.978 63.6427 263.047 63.5387 263.134 63.4C263.238 63.2613 263.325 63.1573 263.394 63.088C263.463 63.0187 263.533 62.984 263.602 62.984C263.741 62.984 264.018 63.166 264.434 63.53C264.85 63.8767 265.162 64.1887 265.37 64.466C265.439 64.5353 265.474 64.6307 265.474 64.752C265.474 64.856 265.431 64.9513 265.344 65.038C265.205 65.1247 265.041 65.168 264.85 65.168H262.796C262.623 65.168 262.484 65.22 262.38 65.324C262.293 65.4107 262.25 65.5407 262.25 65.714V66.962C262.25 67.1353 262.293 67.274 262.38 67.378C262.484 67.4647 262.623 67.508 262.796 67.508H264.278C264.573 67.508 264.798 67.3953 264.954 67.17L265.136 66.91C265.188 66.8407 265.275 66.728 265.396 66.572C265.535 66.3987 265.656 66.312 265.76 66.312C265.881 66.312 266.15 66.4593 266.566 66.754C266.999 67.0487 267.32 67.326 267.528 67.586C267.615 67.7073 267.658 67.8027 267.658 67.872C267.658 68.0107 267.58 68.1233 267.424 68.21L267.32 68.262C267.164 68.3313 267.043 68.4093 266.956 68.496C266.887 68.5827 266.852 68.704 266.852 68.86V70.134L266.904 71.486C266.904 71.8673 266.921 72.3873 266.956 73.046V73.176C266.956 73.4187 266.869 73.592 266.696 73.696C266.28 73.956 265.76 74.086 265.136 74.086C264.893 74.086 264.772 73.904 264.772 73.54C264.772 73.1933 264.59 73.02 264.226 73.02H263.134C262.978 73.02 262.857 73.0547 262.77 73.124C262.683 73.1933 262.64 73.2887 262.64 73.41C262.64 73.4447 262.657 73.5313 262.692 73.67C263.229 74.814 263.94 75.8107 264.824 76.66C265.708 77.492 266.722 78.116 267.866 78.532C268.213 78.636 268.369 78.7313 268.334 78.818C268.317 78.87 268.273 78.922 268.204 78.974C268.135 79.026 268.039 79.078 267.918 79.13C267.381 79.4247 266.999 79.91 266.774 80.586C266.705 80.846 266.575 80.976 266.384 80.976C266.28 80.976 266.185 80.9413 266.098 80.872C265.11 80.1613 264.304 79.2773 263.68 78.22C263.073 77.1627 262.588 75.8713 262.224 74.346C262.155 74.1033 262.085 73.982 262.016 73.982C261.947 73.982 261.886 74.0947 261.834 74.32C261.435 75.776 260.647 77.0673 259.468 78.194C258.307 79.3033 256.582 80.2393 254.294 81.002C253.982 81.106 253.791 81.106 253.722 81.002C253.705 80.9847 253.696 80.9587 253.696 80.924C253.696 80.82 253.843 80.6987 254.138 80.56C255.923 79.624 257.249 78.5927 258.116 77.466C259 76.322 259.572 75.0307 259.832 73.592L259.858 73.436C259.858 73.3147 259.806 73.2193 259.702 73.15C259.615 73.0633 259.494 73.02 259.338 73.02H258.506C258.333 73.02 258.194 73.072 258.09 73.176C258.003 73.2627 257.96 73.3927 257.96 73.566V73.826C257.96 73.93 257.795 74.0513 257.466 74.19C257.154 74.3113 256.773 74.372 256.322 74.372C256.166 74.372 256.045 74.32 255.958 74.216C255.889 74.112 255.854 73.9907 255.854 73.852C255.906 73.4013 255.941 72.9507 255.958 72.5L255.984 71.85V71.226C255.984 70.862 255.837 70.7233 255.542 70.81H255.516C255.395 70.8447 255.282 70.9227 255.178 71.044C255.074 71.148 255.013 71.278 254.996 71.434C254.823 73.9993 254.571 75.9667 254.242 77.336C253.913 78.688 253.479 79.598 252.942 80.066C252.457 80.4993 251.815 80.7593 251.018 80.846H250.966C250.671 80.846 250.507 80.664 250.472 80.3C250.42 79.9533 250.316 79.702 250.16 79.546C249.952 79.338 249.605 79.1647 249.12 79.026C248.808 78.922 248.652 78.8093 248.652 78.688C248.652 78.584 248.791 78.532 249.068 78.532C249.38 78.532 249.761 78.5493 250.212 78.584L250.888 78.61C251.235 78.61 251.512 78.532 251.72 78.376C252.101 78.0813 252.431 77.102 252.708 75.438C252.725 75.334 252.734 75.204 252.734 75.048C252.734 74.8573 252.708 74.762 252.656 74.762L252.422 74.788C252.335 74.788 252.266 74.7793 252.214 74.762C252.006 74.6753 251.859 74.4847 251.772 74.19C251.564 73.5313 251.183 72.89 250.628 72.266C250.437 72.0233 250.342 71.8673 250.342 71.798C250.342 71.7287 250.403 71.694 250.524 71.694C250.628 71.694 250.758 71.72 250.914 71.772C251.555 71.98 252.093 72.2833 252.526 72.682C252.665 72.8207 252.777 72.89 252.864 72.89C252.968 72.89 253.029 72.7687 253.046 72.526L253.124 71.226V71.174C253.124 71.018 253.072 70.8967 252.968 70.81C252.864 70.706 252.734 70.654 252.578 70.654H248.522C248.349 70.654 248.21 70.706 248.106 70.81C248.019 70.8967 247.976 71.0267 247.976 71.2V71.434C247.976 71.486 247.907 71.5727 247.768 71.694C247.629 71.798 247.43 71.8933 247.17 71.98C246.927 72.0493 246.65 72.084 246.338 72.084C246.182 72.084 246.052 72.032 245.948 71.928C245.844 71.824 245.792 71.7027 245.792 71.564C245.913 69.952 245.991 68.1753 246.026 66.234V63.296C246.026 61.5973 245.948 60.072 245.792 58.72V58.616C245.792 58.3387 245.905 58.2 246.13 58.2C246.165 58.2 246.251 58.2173 246.39 58.252L247.976 58.902C248.167 58.9887 248.383 59.032 248.626 59.032H252.136C252.413 59.032 252.63 58.9193 252.786 58.694L253.072 58.278C253.124 58.2087 253.202 58.1047 253.306 57.966C253.41 57.81 253.497 57.6973 253.566 57.628C253.653 57.5413 253.731 57.498 253.8 57.498C253.939 57.498 254.259 57.6973 254.762 58.096C255.265 58.4773 255.62 58.8067 255.828 59.084C255.915 59.2053 255.958 59.3007 255.958 59.37C255.958 59.474 255.915 59.5693 255.828 59.656C255.689 59.7427 255.525 59.786 255.334 59.786H252.266C252.093 59.786 251.954 59.838 251.85 59.942C251.763 60.0287 251.72 60.1587 251.72 60.332V62.074C251.72 62.438 251.867 62.62 252.162 62.62H252.188C252.465 62.62 252.682 62.4987 252.838 62.256L253.072 61.918C253.141 61.8313 253.211 61.736 253.28 61.632C253.349 61.528 253.419 61.4327 253.488 61.346C253.575 61.2593 253.653 61.216 253.722 61.216C253.843 61.216 254.112 61.3893 254.528 61.736C254.944 62.0827 255.247 62.3947 255.438 62.672C255.507 62.7413 255.542 62.8367 255.542 62.958C255.542 63.062 255.499 63.1573 255.412 63.244C255.291 63.3307 255.135 63.374 254.944 63.374H252.266C252.093 63.374 251.954 63.426 251.85 63.53C251.763 63.6167 251.72 63.7467 251.72 63.92V65.714C251.72 65.8873 251.755 66.026 251.824 66.13C251.911 66.2167 252.015 66.26 252.136 66.26C252.413 66.26 252.63 66.1473 252.786 65.922L253.254 65.298C253.393 65.1247 253.531 65.038 253.67 65.038C253.774 65.038 253.878 65.09 253.982 65.194C254.138 65.2633 254.294 65.298 254.45 65.298C254.589 65.298 254.693 65.2633 254.762 65.194C255.75 64.258 256.695 63.1227 257.596 61.788C258.029 61.164 258.411 60.4707 258.74 59.708C259.069 58.928 259.295 58.2087 259.416 57.55C259.468 57.186 259.685 57.0387 260.066 57.108C261.921 57.5413 262.848 57.862 262.848 58.07C262.848 58.1047 262.779 58.1567 262.64 58.226C262.484 58.278 262.406 58.382 262.406 58.538C262.406 58.642 262.458 58.7633 262.562 58.902C263.151 59.682 263.923 60.384 264.876 61.008C265.829 61.6147 266.843 62.1173 267.918 62.516C268.23 62.62 268.386 62.724 268.386 62.828C268.369 62.8973 268.299 62.9667 268.178 63.036C268.074 63.1053 268.005 63.1487 267.97 63.166C267.502 63.426 267.155 63.8767 266.93 64.518C266.861 64.778 266.739 64.908 266.566 64.908C266.479 64.908 266.393 64.8733 266.306 64.804C265.405 64.1627 264.59 63.3827 263.862 62.464C263.151 61.528 262.579 60.514 262.146 59.422ZM247.976 62.074C247.976 62.2473 248.019 62.386 248.106 62.49C248.21 62.5767 248.349 62.62 248.522 62.62H249.276C249.449 62.62 249.579 62.5767 249.666 62.49C249.77 62.386 249.822 62.2473 249.822 62.074V60.332C249.822 60.1587 249.77 60.0287 249.666 59.942C249.579 59.838 249.449 59.786 249.276 59.786H248.522C248.349 59.786 248.21 59.838 248.106 59.942C248.019 60.0287 247.976 60.1587 247.976 60.332V62.074ZM247.976 65.714C247.976 65.8873 248.019 66.026 248.106 66.13C248.21 66.2167 248.349 66.26 248.522 66.26H249.276C249.449 66.26 249.579 66.2167 249.666 66.13C249.77 66.026 249.822 65.8873 249.822 65.714V63.92C249.822 63.7467 249.77 63.6167 249.666 63.53C249.579 63.426 249.449 63.374 249.276 63.374H248.522C248.349 63.374 248.21 63.426 248.106 63.53C248.019 63.6167 247.976 63.7467 247.976 63.92V65.714ZM258.038 65.35C257.934 65.3847 257.856 65.402 257.804 65.402C257.596 65.402 257.431 65.2893 257.31 65.064L257.206 64.882C257.102 64.6913 256.963 64.596 256.79 64.596C256.669 64.596 256.565 64.6307 256.478 64.7C256.305 64.8213 255.897 65.0813 255.256 65.48C255.083 65.5667 254.961 65.662 254.892 65.766C254.84 65.87 254.857 65.9567 254.944 66.026L255.204 66.26C255.36 66.416 255.438 66.5633 255.438 66.702C255.438 66.806 255.386 66.884 255.282 66.936C255.178 66.988 255.039 67.014 254.866 67.014H252.266C252.093 67.014 251.954 67.066 251.85 67.17C251.763 67.2567 251.72 67.3867 251.72 67.56V69.354C251.72 69.5273 251.763 69.666 251.85 69.77C251.954 69.8567 252.093 69.9 252.266 69.9H252.578C252.855 69.9 253.081 69.8047 253.254 69.614L253.644 69.198C253.783 69.0593 253.921 68.99 254.06 68.99C254.199 68.99 254.32 69.042 254.424 69.146L255.308 69.9C255.447 70.004 255.568 70.056 255.672 70.056C255.88 70.056 255.984 69.9 255.984 69.588C255.949 68.6867 255.897 67.8807 255.828 67.17V67.066C255.828 66.806 255.941 66.676 256.166 66.676C256.27 66.676 256.357 66.6933 256.426 66.728L257.934 67.378C258.125 67.4647 258.341 67.508 258.584 67.508H259.546C259.719 67.508 259.849 67.4647 259.936 67.378C260.04 67.274 260.092 67.1353 260.092 66.962V65.714C260.092 65.5407 260.04 65.4107 259.936 65.324C259.849 65.22 259.719 65.168 259.546 65.168H259.156C258.74 65.2027 258.367 65.2633 258.038 65.35ZM247.976 69.354C247.976 69.5273 248.019 69.666 248.106 69.77C248.21 69.8567 248.349 69.9 248.522 69.9H249.276C249.449 69.9 249.579 69.8567 249.666 69.77C249.77 69.666 249.822 69.5273 249.822 69.354V67.56C249.822 67.3867 249.77 67.2567 249.666 67.17C249.579 67.066 249.449 67.014 249.276 67.014H248.522C248.349 67.014 248.21 67.066 248.106 67.17C248.019 67.2567 247.976 67.3867 247.976 67.56V69.354ZM260.092 68.808C260.092 68.6347 260.04 68.5047 259.936 68.418C259.849 68.314 259.719 68.262 259.546 68.262H258.506C258.333 68.262 258.194 68.314 258.09 68.418C258.003 68.5047 257.96 68.6347 257.96 68.808V71.72C257.96 71.8933 258.003 72.032 258.09 72.136C258.194 72.2227 258.333 72.266 258.506 72.266H259.494C259.841 72.266 260.031 72.1013 260.066 71.772C260.083 71.5293 260.092 71.148 260.092 70.628V68.808ZM262.796 68.262C262.623 68.262 262.484 68.314 262.38 68.418C262.293 68.5047 262.25 68.6347 262.25 68.808V70.602C262.25 71.0873 262.241 71.4513 262.224 71.694V71.772C262.224 72.1013 262.397 72.266 262.744 72.266H264.226C264.399 72.266 264.529 72.2227 264.616 72.136C264.72 72.032 264.772 71.8933 264.772 71.72V68.808C264.772 68.6347 264.72 68.5047 264.616 68.418C264.529 68.314 264.399 68.262 264.226 68.262H262.796ZM250.498 76.556C250.429 76.556 250.325 76.5387 250.186 76.504C250.065 76.452 249.978 76.374 249.926 76.27C249.891 76.166 249.865 76.036 249.848 75.88C249.779 75.0133 249.493 74.008 248.99 72.864C248.834 72.5173 248.808 72.318 248.912 72.266L248.99 72.24C249.094 72.24 249.241 72.318 249.432 72.474C250.056 72.9767 250.515 73.488 250.81 74.008C251.105 74.528 251.252 75.0133 251.252 75.464C251.252 75.776 251.174 76.036 251.018 76.244C250.879 76.452 250.706 76.556 250.498 76.556ZM247.378 73.28C247.361 73.2107 247.352 73.1153 247.352 72.994C247.352 72.8207 247.387 72.7253 247.456 72.708H247.482C247.603 72.708 247.742 72.812 247.898 73.02C248.695 74.0773 249.094 75.1173 249.094 76.14C249.094 76.6253 248.999 77.024 248.808 77.336C248.635 77.6307 248.418 77.778 248.158 77.778C248.019 77.778 247.907 77.7433 247.82 77.674C247.699 77.5873 247.621 77.492 247.586 77.388C247.551 77.284 247.543 77.154 247.56 76.998C247.612 76.634 247.638 76.2613 247.638 75.88C247.638 75.1867 247.551 74.32 247.378 73.28ZM245.818 73.488C245.853 73.124 245.922 72.942 246.026 72.942C246.165 72.942 246.269 73.098 246.338 73.41C246.581 74.45 246.702 75.3687 246.702 76.166C246.702 77.0673 246.555 77.752 246.26 78.22C245.965 78.6707 245.636 78.896 245.272 78.896C245.064 78.896 244.882 78.8267 244.726 78.688C244.587 78.532 244.518 78.324 244.518 78.064C244.518 77.856 244.561 77.6567 244.648 77.466C244.717 77.31 244.813 77.1627 244.934 77.024C245.437 76.3133 245.731 75.1347 245.818 73.488Z" fill="#EE8A98"/>
<path d="M16.876 10.22C17.068 10.22 17.218 10.142 17.326 9.986L17.506 9.734C17.542 9.686 17.59 9.62 17.65 9.536C17.722 9.44 17.782 9.368 17.83 9.32C17.878 9.272 17.926 9.248 17.974 9.248C18.058 9.248 18.268 9.386 18.604 9.662C18.94 9.938 19.192 10.184 19.36 10.4C19.408 10.46 19.432 10.526 19.432 10.598C19.432 10.682 19.378 10.76 19.27 10.832L19.108 10.922C19 10.97 18.916 11.024 18.856 11.084C18.808 11.144 18.784 11.228 18.784 11.336V12.776C18.82 14.204 18.856 15.248 18.892 15.908V15.998C18.892 16.166 18.832 16.286 18.712 16.358C18.556 16.454 18.37 16.538 18.154 16.61C17.938 16.682 17.74 16.718 17.56 16.718C17.5 16.718 17.446 16.694 17.398 16.646C17.362 16.598 17.344 16.538 17.344 16.466C17.344 16.394 17.314 16.34 17.254 16.304C17.194 16.256 17.116 16.232 17.02 16.232C16.924 16.232 16.846 16.268 16.786 16.34C16.726 16.4 16.696 16.49 16.696 16.61V22.118C16.696 22.262 16.726 22.376 16.786 22.46C16.858 22.532 16.984 22.586 17.164 22.622C17.356 22.646 17.656 22.658 18.064 22.658H21.52C23.092 22.658 24.118 22.64 24.598 22.604C24.778 22.592 24.916 22.568 25.012 22.532C25.108 22.484 25.186 22.418 25.246 22.334C25.438 22.058 25.648 21.488 25.876 20.624C25.948 20.396 26.014 20.282 26.074 20.282C26.098 20.282 26.122 20.318 26.146 20.39C26.17 20.462 26.182 20.552 26.182 20.66L26.218 22.064C26.218 22.172 26.242 22.262 26.29 22.334C26.35 22.394 26.434 22.448 26.542 22.496C26.698 22.568 26.806 22.646 26.866 22.73C26.938 22.814 26.974 22.922 26.974 23.054C26.974 23.33 26.836 23.534 26.56 23.666C26.296 23.81 25.774 23.912 24.994 23.972C24.226 24.032 23.038 24.062 21.43 24.062H18.046C17.29 24.062 16.72 24.02 16.336 23.936C15.964 23.852 15.7 23.696 15.544 23.468C15.388 23.24 15.31 22.892 15.31 22.424V16.61C15.31 16.49 15.274 16.4 15.202 16.34C15.142 16.268 15.052 16.232 14.932 16.232H14.842C14.602 16.232 14.47 16.358 14.446 16.61C14.398 17.786 14.29 18.812 14.122 19.688C13.954 20.564 13.648 21.404 13.204 22.208C12.76 23.012 12.118 23.732 11.278 24.368C11.086 24.5 10.954 24.53 10.882 24.458C10.858 24.434 10.846 24.398 10.846 24.35C10.846 24.266 10.888 24.164 10.972 24.044C11.668 23.096 12.148 22.082 12.412 21.002C12.676 19.922 12.838 18.668 12.898 17.24V17.204C12.898 17.012 12.82 16.916 12.664 16.916C12.64 16.916 12.58 16.928 12.484 16.952C12.28 17.012 12.088 17.042 11.908 17.042C11.776 17.042 11.71 16.916 11.71 16.664V13.154C11.71 11.978 11.656 10.922 11.548 9.986V9.914C11.548 9.734 11.626 9.644 11.782 9.644C11.854 9.644 11.914 9.656 11.962 9.68L12.988 10.13C13.12 10.19 13.27 10.22 13.438 10.22H13.708C13.948 10.22 14.086 10.106 14.122 9.878C14.182 9.278 14.212 8.726 14.212 8.222V8.114C14.212 7.982 14.248 7.886 14.32 7.826C14.404 7.766 14.512 7.748 14.644 7.772C15.328 7.916 15.802 8.036 16.066 8.132C16.342 8.228 16.48 8.312 16.48 8.384C16.48 8.42 16.432 8.468 16.336 8.528L16.228 8.582C16.084 8.666 15.964 8.768 15.868 8.888C15.664 9.152 15.412 9.44 15.112 9.752C15.04 9.836 15.004 9.92 15.004 10.004C15.004 10.148 15.112 10.22 15.328 10.22H16.876ZM24.148 14.018C24.34 14.018 24.49 13.94 24.598 13.784L24.832 13.442C24.88 13.382 24.94 13.298 25.012 13.19C25.096 13.07 25.162 12.986 25.21 12.938C25.27 12.878 25.324 12.848 25.372 12.848C25.468 12.848 25.696 12.992 26.056 13.28C26.416 13.568 26.674 13.814 26.83 14.018C26.89 14.102 26.92 14.174 26.92 14.234C26.92 14.306 26.884 14.372 26.812 14.432C26.716 14.492 26.602 14.522 26.47 14.522H24.454C24.346 14.522 24.262 14.546 24.202 14.594C24.142 14.642 24.112 14.708 24.112 14.792C24.112 14.828 24.124 14.882 24.148 14.954C24.724 16.178 25.606 17.168 26.794 17.924C26.974 18.008 27.064 18.086 27.064 18.158C27.064 18.182 26.992 18.278 26.848 18.446C26.68 18.674 26.548 18.998 26.452 19.418C26.416 19.61 26.338 19.706 26.218 19.706C26.146 19.706 26.074 19.658 26.002 19.562C25.402 18.914 24.922 18.2 24.562 17.42C24.214 16.64 23.926 15.782 23.698 14.846C23.65 14.63 23.614 14.522 23.59 14.522H23.554V16.916C23.578 18.212 23.62 19.538 23.68 20.894V20.984C23.68 21.128 23.626 21.248 23.518 21.344C23.386 21.452 23.206 21.548 22.978 21.632C22.762 21.716 22.546 21.758 22.33 21.758C22.198 21.758 22.096 21.722 22.024 21.65C21.952 21.578 21.916 21.494 21.916 21.398C21.976 20.702 22.018 19.784 22.042 18.644V17.852C22.042 17.648 21.982 17.546 21.862 17.546C21.766 17.546 21.676 17.606 21.592 17.726C21.172 18.254 20.8 18.674 20.476 18.986C20.38 19.082 20.332 19.166 20.332 19.238C20.332 19.322 20.386 19.418 20.494 19.526C20.878 19.898 21.07 20.288 21.07 20.696C21.07 20.924 21.004 21.116 20.872 21.272C20.752 21.416 20.596 21.488 20.404 21.488C20.296 21.488 20.182 21.458 20.062 21.398C19.978 21.362 19.918 21.314 19.882 21.254C19.858 21.182 19.834 21.086 19.81 20.966L19.792 20.822C19.756 20.642 19.666 20.552 19.522 20.552C19.45 20.552 19.378 20.57 19.306 20.606L18.1 21.236C17.956 21.32 17.866 21.386 17.83 21.434L17.794 21.506C17.734 21.578 17.668 21.614 17.596 21.614C17.476 21.614 17.374 21.536 17.29 21.38L16.948 20.624C16.924 20.576 16.912 20.51 16.912 20.426C16.912 20.27 17.002 20.186 17.182 20.174L17.29 20.156C17.53 20.12 17.656 20 17.668 19.796C17.728 19.34 17.758 18.782 17.758 18.122C17.758 17.702 17.746 17.396 17.722 17.204V17.168C17.722 17.048 17.758 16.964 17.83 16.916C17.914 16.856 18.022 16.838 18.154 16.862C19.186 17.066 19.702 17.234 19.702 17.366C19.702 17.402 19.648 17.45 19.54 17.51L19.468 17.546C19.324 17.63 19.216 17.756 19.144 17.924C18.952 18.404 18.7 18.95 18.388 19.562C18.352 19.646 18.334 19.724 18.334 19.796C18.334 19.964 18.448 20.03 18.676 19.994L19.09 19.94C19.294 19.916 19.396 19.82 19.396 19.652C19.396 19.58 19.384 19.526 19.36 19.49C19.336 19.442 19.306 19.388 19.27 19.328C19.246 19.268 19.21 19.202 19.162 19.13C19.03 18.914 18.994 18.788 19.054 18.752C19.066 18.74 19.09 18.734 19.126 18.734C19.174 18.734 19.27 18.764 19.414 18.824L19.486 18.86C19.558 18.896 19.63 18.914 19.702 18.914C19.81 18.914 19.912 18.848 20.008 18.716C20.632 17.672 21.106 16.412 21.43 14.936L21.448 14.828C21.448 14.732 21.412 14.66 21.34 14.612C21.28 14.552 21.196 14.522 21.088 14.522H20.764C20.476 14.534 20.17 14.582 19.846 14.666C19.774 14.69 19.72 14.702 19.684 14.702C19.54 14.702 19.426 14.624 19.342 14.468L19.288 14.36C19.252 14.288 19.234 14.222 19.234 14.162C19.234 14.09 19.264 14.03 19.324 13.982C19.396 13.934 19.486 13.916 19.594 13.928C19.918 13.964 20.41 13.994 21.07 14.018H21.664C21.784 14.018 21.874 13.988 21.934 13.928C22.006 13.856 22.042 13.76 22.042 13.64V11.858C22.042 11.738 22.006 11.648 21.934 11.588C21.874 11.516 21.784 11.48 21.664 11.48H21.196C20.812 11.504 20.44 11.558 20.08 11.642C20.044 11.654 19.996 11.66 19.936 11.66C19.792 11.66 19.678 11.582 19.594 11.426L19.54 11.318C19.504 11.246 19.486 11.174 19.486 11.102C19.486 10.946 19.6 10.88 19.828 10.904C20.116 10.928 20.56 10.952 21.16 10.976H21.664C21.916 10.976 22.042 10.85 22.042 10.598C22.018 9.698 21.976 8.96 21.916 8.384V8.312C21.916 8.12 22.006 8.024 22.186 8.024C22.246 8.024 22.294 8.03 22.33 8.042C23.446 8.33 24.004 8.558 24.004 8.726C24.004 8.786 23.956 8.846 23.86 8.906L23.806 8.942C23.638 9.05 23.554 9.2 23.554 9.392V10.598C23.554 10.718 23.584 10.814 23.644 10.886C23.704 10.946 23.788 10.976 23.896 10.976H23.95C24.142 10.976 24.292 10.892 24.4 10.724L24.616 10.4C24.664 10.34 24.724 10.256 24.796 10.148C24.88 10.04 24.946 9.962 24.994 9.914C25.042 9.854 25.09 9.824 25.138 9.824C25.222 9.824 25.432 9.968 25.768 10.256C26.104 10.544 26.35 10.79 26.506 10.994C26.566 11.078 26.596 11.15 26.596 11.21C26.596 11.282 26.56 11.348 26.488 11.408C26.404 11.456 26.296 11.48 26.164 11.48H23.932C23.812 11.48 23.716 11.516 23.644 11.588C23.584 11.648 23.554 11.738 23.554 11.858V13.64C23.554 13.76 23.584 13.856 23.644 13.928C23.716 13.988 23.812 14.018 23.932 14.018H24.148ZM14.158 12.92C14.278 12.92 14.368 12.89 14.428 12.83C14.5 12.758 14.536 12.662 14.536 12.542V11.12C14.536 11 14.5 10.91 14.428 10.85C14.368 10.778 14.278 10.742 14.158 10.742H13.51C13.39 10.742 13.294 10.778 13.222 10.85C13.162 10.91 13.132 11 13.132 11.12V12.542C13.132 12.662 13.162 12.758 13.222 12.83C13.294 12.89 13.39 12.92 13.51 12.92H14.158ZM16.966 12.92C17.086 12.92 17.176 12.89 17.236 12.83C17.308 12.758 17.344 12.662 17.344 12.542V11.12C17.344 11 17.308 10.91 17.236 10.85C17.176 10.778 17.086 10.742 16.966 10.742H16.264C16.144 10.742 16.048 10.778 15.976 10.85C15.916 10.91 15.886 11 15.886 11.12V12.542C15.886 12.662 15.916 12.758 15.976 12.83C16.048 12.89 16.144 12.92 16.264 12.92H16.966ZM13.132 15.332C13.132 15.452 13.162 15.548 13.222 15.62C13.294 15.68 13.39 15.71 13.51 15.71H14.158C14.278 15.71 14.368 15.68 14.428 15.62C14.5 15.548 14.536 15.452 14.536 15.332V13.82C14.536 13.7 14.5 13.61 14.428 13.55C14.368 13.478 14.278 13.442 14.158 13.442H13.51C13.39 13.442 13.294 13.478 13.222 13.55C13.162 13.61 13.132 13.7 13.132 13.82V15.332ZM16.264 13.442C16.144 13.442 16.048 13.478 15.976 13.55C15.916 13.61 15.886 13.7 15.886 13.82V15.332C15.886 15.452 15.916 15.548 15.976 15.62C16.048 15.68 16.144 15.71 16.264 15.71H16.966C17.086 15.71 17.176 15.68 17.236 15.62C17.308 15.548 17.344 15.452 17.344 15.332V13.82C17.344 13.7 17.308 13.61 17.236 13.55C17.176 13.478 17.086 13.442 16.966 13.442H16.264ZM40.654 13.388C40.762 13.472 40.846 13.574 40.906 13.694C40.978 13.814 41.014 13.922 41.014 14.018C41.014 14.234 40.942 14.42 40.798 14.576C40.654 14.72 40.474 14.792 40.258 14.792C40.198 14.792 39.988 14.762 39.628 14.702C38.536 14.546 37.792 14.468 37.396 14.468H36.82C36.58 14.492 36.454 14.612 36.442 14.828C36.31 15.824 36.166 16.616 36.01 17.204C35.842 17.828 35.638 18.326 35.398 18.698C35.17 19.058 34.852 19.238 34.444 19.238C34.24 19.238 34.096 19.19 34.012 19.094C33.94 18.998 33.868 18.818 33.796 18.554C33.724 18.206 33.586 17.882 33.382 17.582C33.19 17.27 32.944 16.94 32.644 16.592C32.56 16.508 32.518 16.436 32.518 16.376C32.518 16.34 32.536 16.322 32.572 16.322C32.632 16.322 32.716 16.358 32.824 16.43L33.184 16.682C33.244 16.718 33.358 16.802 33.526 16.934C33.706 17.054 33.856 17.15 33.976 17.222C34.108 17.282 34.21 17.312 34.282 17.312H34.336C34.408 17.3 34.462 17.27 34.498 17.222C34.534 17.174 34.576 17.096 34.624 16.988C34.84 16.616 35.008 15.968 35.128 15.044V14.954C35.128 14.834 35.092 14.75 35.02 14.702C34.96 14.642 34.87 14.624 34.75 14.648C33.55 14.84 32.35 15.17 31.15 15.638C30.958 15.722 30.862 15.872 30.862 16.088C30.934 18.056 31.054 19.442 31.222 20.246C31.318 20.678 31.504 20.972 31.78 21.128C32.056 21.272 32.428 21.344 32.896 21.344C33.88 21.344 34.912 21.2 35.992 20.912C36.232 20.852 36.412 20.822 36.532 20.822C36.832 20.822 37.096 20.9 37.324 21.056C37.564 21.2 37.684 21.386 37.684 21.614C37.684 21.938 37.558 22.172 37.306 22.316C37.054 22.46 36.736 22.562 36.352 22.622C35.344 22.73 34.504 22.784 33.832 22.784C32.212 22.784 31.162 22.526 30.682 22.01C30.382 21.758 30.172 21.368 30.052 20.84C29.944 20.312 29.854 19.664 29.782 18.896C29.746 18.584 29.698 17.906 29.638 16.862C29.638 16.646 29.548 16.538 29.368 16.538C29.308 16.538 29.242 16.556 29.17 16.592L28.846 16.754C28.462 16.958 28.18 17.096 28 17.168C27.82 17.228 27.622 17.258 27.406 17.258C26.866 17.258 26.428 17.078 26.092 16.718C25.756 16.358 25.588 15.932 25.588 15.44C25.588 15.32 25.6 15.236 25.624 15.188C25.648 15.128 25.678 15.098 25.714 15.098C25.762 15.098 25.852 15.164 25.984 15.296C26.272 15.56 26.65 15.692 27.118 15.692C27.382 15.692 27.694 15.632 28.054 15.512L29.224 15.134C29.44 15.062 29.542 14.912 29.53 14.684C29.434 13.628 29.344 12.962 29.26 12.686C29.176 12.422 29.074 12.218 28.954 12.074C28.834 11.918 28.69 11.798 28.522 11.714C28.282 11.618 28.162 11.522 28.162 11.426C28.162 11.306 28.3 11.204 28.576 11.12C28.864 11.036 29.122 10.994 29.35 10.994C29.926 10.994 30.4 11.174 30.772 11.534C30.94 11.702 31.024 11.888 31.024 12.092C31.024 12.176 31 12.374 30.952 12.686C30.904 13.046 30.874 13.538 30.862 14.162C30.862 14.294 30.898 14.39 30.97 14.45C31.054 14.51 31.162 14.522 31.294 14.486C32.77 14.066 33.982 13.79 34.93 13.658C35.146 13.622 35.266 13.496 35.29 13.28C35.29 13.148 35.296 13.046 35.308 12.974V12.362V11.462C35.284 11.054 35.194 10.748 35.038 10.544C34.894 10.328 34.69 10.166 34.426 10.058C34.306 10.01 34.246 9.956 34.246 9.896C34.246 9.776 34.33 9.686 34.498 9.626C34.678 9.566 34.864 9.536 35.056 9.536C35.296 9.536 35.554 9.584 35.83 9.68C36.106 9.776 36.316 9.878 36.46 9.986C36.76 10.214 36.91 10.496 36.91 10.832C36.91 10.952 36.868 11.246 36.784 11.714C36.784 11.726 36.778 11.744 36.766 11.768C36.766 11.78 36.772 11.798 36.784 11.822C36.784 11.978 36.856 12.104 37 12.2C37.996 12.788 38.836 13.1 39.52 13.136L40.114 13.172C40.306 13.172 40.456 13.214 40.564 13.298C40.624 13.358 40.654 13.388 40.654 13.388ZM37.144 13.46C37.552 13.46 37.756 13.412 37.756 13.316C37.756 13.28 37.684 13.208 37.54 13.1C37.408 12.98 37.252 12.86 37.072 12.74C36.964 12.668 36.874 12.614 36.802 12.578C36.73 12.53 36.682 12.506 36.658 12.506V12.56L36.604 13.082V13.136C36.604 13.352 36.73 13.46 36.982 13.46H37.144ZM52.21 9.68C52.654 9.68 53.08 9.818 53.488 10.094C53.896 10.358 54.1 10.658 54.1 10.994C54.1 11.186 54.04 11.342 53.92 11.462C53.8 11.582 53.65 11.642 53.47 11.642C53.314 11.642 53.032 11.606 52.624 11.534C52.144 11.438 51.742 11.39 51.418 11.39C50.95 11.39 50.464 11.474 49.96 11.642C49.432 11.834 48.958 12.308 48.538 13.064C48.13 13.808 47.812 14.66 47.584 15.62C47.356 16.568 47.242 17.414 47.242 18.158C47.242 18.938 47.308 19.55 47.44 19.994C47.584 20.438 47.812 20.756 48.124 20.948C48.436 21.14 48.862 21.236 49.402 21.236L49.888 21.2C50.248 21.152 50.536 21.128 50.752 21.128C51.22 21.128 51.586 21.218 51.85 21.398C52.126 21.566 52.264 21.782 52.264 22.046C52.264 22.442 52.018 22.7 51.526 22.82C51.034 22.94 50.512 23 49.96 23C48.46 23 47.38 22.622 46.72 21.866C46.072 21.11 45.748 19.94 45.748 18.356C45.748 17 46.03 15.764 46.594 14.648C47.158 13.532 47.89 12.596 48.79 11.84C48.922 11.732 49.036 11.636 49.132 11.552C49.228 11.456 49.264 11.414 49.24 11.426L49.114 11.444C48.67 11.504 48.034 11.696 47.206 12.02C46.39 12.332 45.58 12.704 44.776 13.136C44.524 13.304 44.29 13.466 44.074 13.622C43.786 13.85 43.528 14.018 43.3 14.126C43.084 14.234 42.838 14.288 42.562 14.288C42.202 14.288 41.842 14.126 41.482 13.802C41.122 13.466 40.858 13.118 40.69 12.758L40.546 12.434V12.308C40.546 12.2 40.594 12.146 40.69 12.146C40.75 12.146 40.822 12.17 40.906 12.218C41.074 12.302 41.224 12.374 41.356 12.434C41.488 12.482 41.638 12.506 41.806 12.506C41.902 12.506 42.022 12.494 42.166 12.47C42.238 12.458 42.406 12.41 42.67 12.326C42.946 12.23 43.198 12.146 43.426 12.074C44.662 11.654 45.808 11.288 46.864 10.976C47.932 10.664 48.916 10.442 49.816 10.31C50.08 10.274 50.476 10.16 51.004 9.968C51.208 9.896 51.412 9.83 51.616 9.77C51.832 9.71 52.03 9.68 52.21 9.68Z" fill="#EE8A98"/>
<path d="M56.534 18.958C56.486 18.958 56.438 18.94 56.39 18.904C56.342 18.856 56.318 18.796 56.318 18.724C56.318 18.664 56.354 18.562 56.426 18.418C57.014 17.446 57.536 16.534 57.992 15.682C58.46 14.83 59.006 13.804 59.63 12.604C60.158 11.572 60.59 10.75 60.926 10.138C61.274 9.526 61.616 8.968 61.952 8.464C62.144 8.188 62.36 7.984 62.6 7.852C62.852 7.708 63.098 7.636 63.338 7.636C63.662 7.636 63.944 7.762 64.184 8.014C64.424 8.254 64.544 8.554 64.544 8.914C64.544 9.262 64.418 9.616 64.166 9.976C63.926 10.336 63.638 10.714 63.302 11.11C62.978 11.494 62.636 11.89 62.276 12.298C61.916 12.694 61.67 12.964 61.538 13.108C60.554 14.2 59.708 15.16 59 15.988C58.304 16.804 57.596 17.71 56.876 18.706C56.78 18.874 56.666 18.958 56.534 18.958ZM54.698 22.648C54.374 22.648 54.092 22.534 53.852 22.306C53.624 22.078 53.51 21.802 53.51 21.478C53.51 21.142 53.624 20.854 53.852 20.614C54.092 20.374 54.374 20.254 54.698 20.254C55.034 20.254 55.316 20.374 55.544 20.614C55.784 20.854 55.904 21.142 55.904 21.478C55.904 21.802 55.784 22.078 55.544 22.306C55.316 22.534 55.034 22.648 54.698 22.648Z" fill="#EE8A98"/>
</svg>
