<svg width="168" height="35" viewBox="0 0 168 35" fill="none" xmlns="http://www.w3.org/2000/svg">
<path d="M31.67 28V6.7H33.77V28H31.67ZM51.8314 28H49.7914V19.27C49.7914 17.43 49.5214 16.09 48.9814 15.25C48.4414 14.39 47.5914 13.96 46.4314 13.96C45.6314 13.96 44.8414 14.16 44.0614 14.56C43.2814 14.94 42.5914 15.47 41.9914 16.15C41.4114 16.81 40.9914 17.57 40.7314 18.43V28H38.6914V12.37H40.5514V15.91C40.9714 15.15 41.5214 14.49 42.2014 13.93C42.8814 13.35 43.6514 12.9 44.5114 12.58C45.3714 12.26 46.2614 12.1 47.1814 12.1C48.0414 12.1 48.7714 12.26 49.3714 12.58C49.9714 12.9 50.4514 13.36 50.8114 13.96C51.1714 14.54 51.4314 15.25 51.5914 16.09C51.7514 16.91 51.8314 17.83 51.8314 18.85V28ZM61.3116 28.3C60.0316 28.3 58.8416 28.09 57.7416 27.67C56.6416 27.25 55.6916 26.61 54.8916 25.75L55.7316 24.31C56.6116 25.13 57.4916 25.73 58.3716 26.11C59.2716 26.47 60.2216 26.65 61.2216 26.65C62.4416 26.65 63.4316 26.41 64.1916 25.93C64.9516 25.43 65.3316 24.72 65.3316 23.8C65.3316 23.18 65.1416 22.71 64.7616 22.39C64.4016 22.05 63.8716 21.78 63.1716 21.58C62.4916 21.36 61.6716 21.13 60.7116 20.89C59.6316 20.59 58.7216 20.28 57.9816 19.96C57.2616 19.62 56.7116 19.2 56.3316 18.7C55.9716 18.18 55.7916 17.51 55.7916 16.69C55.7916 15.67 56.0416 14.83 56.5416 14.17C57.0616 13.49 57.7616 12.98 58.6416 12.64C59.5416 12.28 60.5416 12.1 61.6416 12.1C62.8416 12.1 63.9016 12.29 64.8216 12.67C65.7416 13.05 66.4916 13.58 67.0716 14.26L66.0816 15.64C65.5216 15 64.8516 14.53 64.0716 14.23C63.3116 13.91 62.4616 13.75 61.5216 13.75C60.8816 13.75 60.2716 13.84 59.6916 14.02C59.1116 14.18 58.6316 14.46 58.2516 14.86C57.8916 15.24 57.7116 15.77 57.7116 16.45C57.7116 17.01 57.8516 17.45 58.1316 17.77C58.4116 18.07 58.8316 18.33 59.3916 18.55C59.9516 18.75 60.6416 18.97 61.4616 19.21C62.6416 19.53 63.6716 19.86 64.5516 20.2C65.4316 20.52 66.1116 20.94 66.5916 21.46C67.0716 21.98 67.3116 22.71 67.3116 23.65C67.3116 25.11 66.7616 26.25 65.6616 27.07C64.5616 27.89 63.1116 28.3 61.3116 28.3ZM78.1836 27.25C78.0236 27.31 77.7736 27.42 77.4336 27.58C77.0936 27.74 76.6836 27.88 76.2036 28C75.7236 28.12 75.2036 28.18 74.6436 28.18C74.0636 28.18 73.5136 28.07 72.9936 27.85C72.4936 27.63 72.0936 27.3 71.7936 26.86C71.4936 26.4 71.3436 25.84 71.3436 25.18V13.99H69.1836V12.37H71.3436V7.09H73.3836V12.37H76.9836V13.99H73.3836V24.61C73.4236 25.17 73.6236 25.59 73.9836 25.87C74.3636 26.15 74.7936 26.29 75.2736 26.29C75.8336 26.29 76.3436 26.2 76.8036 26.02C77.2636 25.82 77.5436 25.68 77.6436 25.6L78.1836 27.25ZM79.4724 23.5C79.4724 22.52 79.7524 21.68 80.3124 20.98C80.8724 20.26 81.6424 19.71 82.6224 19.33C83.6224 18.93 84.7724 18.73 86.0724 18.73C86.8324 18.73 87.6224 18.79 88.4424 18.91C89.2624 19.03 89.9924 19.21 90.6324 19.45V18.13C90.6324 16.81 90.2424 15.76 89.4624 14.98C88.6824 14.2 87.6024 13.81 86.2224 13.81C85.3824 13.81 84.5524 13.97 83.7324 14.29C82.9324 14.59 82.0924 15.04 81.2124 15.64L80.4324 14.2C81.4524 13.5 82.4524 12.98 83.4324 12.64C84.4124 12.28 85.4124 12.1 86.4324 12.1C88.3524 12.1 89.8724 12.65 90.9924 13.75C92.1124 14.85 92.6724 16.37 92.6724 18.31V25.54C92.6724 25.82 92.7324 26.03 92.8524 26.17C92.9724 26.29 93.1624 26.36 93.4224 26.38V28C93.2024 28.02 93.0124 28.04 92.8524 28.06C92.6924 28.08 92.5724 28.08 92.4924 28.06C91.9924 28.04 91.6124 27.88 91.3524 27.58C91.0924 27.28 90.9524 26.96 90.9324 26.62L90.9024 25.48C90.2024 26.38 89.2924 27.08 88.1724 27.58C87.0524 28.06 85.9124 28.3 84.7524 28.3C83.7524 28.3 82.8424 28.09 82.0224 27.67C81.2224 27.23 80.5924 26.65 80.1324 25.93C79.6924 25.19 79.4724 24.38 79.4724 23.5ZM89.9424 24.7C90.1624 24.42 90.3324 24.15 90.4524 23.89C90.5724 23.63 90.6324 23.4 90.6324 23.2V20.92C89.9524 20.66 89.2424 20.46 88.5024 20.32C87.7824 20.18 87.0524 20.11 86.3124 20.11C84.8524 20.11 83.6724 20.4 82.7724 20.98C81.8724 21.56 81.4224 22.35 81.4224 23.35C81.4224 23.93 81.5724 24.48 81.8724 25C82.1724 25.5 82.6124 25.92 83.1924 26.26C83.7724 26.58 84.4524 26.74 85.2324 26.74C86.2124 26.74 87.1224 26.55 87.9624 26.17C88.8224 25.79 89.4824 25.3 89.9424 24.7ZM103.35 28.21C102.29 28.21 101.31 27.99 100.41 27.55C99.5101 27.11 98.7301 26.52 98.0701 25.78C97.4301 25.02 96.9301 24.16 96.5701 23.2C96.2101 22.24 96.0301 21.25 96.0301 20.23C96.0301 19.13 96.2001 18.1 96.5401 17.14C96.9001 16.16 97.4001 15.29 98.0401 14.53C98.7001 13.77 99.4701 13.18 100.35 12.76C101.23 12.32 102.21 12.1 103.29 12.1C104.63 12.1 105.79 12.44 106.77 13.12C107.77 13.8 108.61 14.64 109.29 15.64V12.37H111.12V28.06C111.12 29.5 110.77 30.71 110.07 31.69C109.39 32.69 108.46 33.44 107.28 33.94C106.12 34.44 104.85 34.69 103.47 34.69C101.69 34.69 100.25 34.37 99.1501 33.73C98.0501 33.09 97.1501 32.23 96.4501 31.15L97.7101 30.16C98.3301 31.14 99.1501 31.87 100.17 32.35C101.21 32.83 102.31 33.07 103.47 33.07C104.49 33.07 105.42 32.88 106.26 32.5C107.12 32.14 107.8 31.59 108.3 30.85C108.82 30.11 109.08 29.18 109.08 28.06V24.97C108.48 25.95 107.66 26.74 106.62 27.34C105.58 27.92 104.49 28.21 103.35 28.21ZM103.92 26.5C104.54 26.5 105.13 26.39 105.69 26.17C106.27 25.95 106.8 25.66 107.28 25.3C107.76 24.92 108.16 24.5 108.48 24.04C108.8 23.58 109 23.11 109.08 22.63V17.8C108.78 17.04 108.35 16.37 107.79 15.79C107.23 15.19 106.59 14.73 105.87 14.41C105.17 14.07 104.44 13.9 103.68 13.9C102.8 13.9 102.01 14.09 101.31 14.47C100.63 14.83 100.05 15.32 99.5701 15.94C99.1101 16.54 98.7501 17.22 98.4901 17.98C98.2301 18.74 98.1001 19.5 98.1001 20.26C98.1001 21.1 98.2501 21.9 98.5501 22.66C98.8501 23.4 99.2601 24.07 99.7801 24.67C100.32 25.25 100.94 25.7 101.64 26.02C102.36 26.34 103.12 26.5 103.92 26.5ZM123.425 14.17C122.065 14.21 120.865 14.59 119.825 15.31C118.805 16.03 118.085 17.02 117.665 18.28V28H115.625V12.37H117.545V16.12C118.085 15.02 118.795 14.13 119.675 13.45C120.575 12.77 121.525 12.39 122.525 12.31C122.725 12.29 122.895 12.28 123.035 12.28C123.195 12.28 123.325 12.29 123.425 12.31V14.17ZM124.824 23.5C124.824 22.52 125.104 21.68 125.664 20.98C126.224 20.26 126.994 19.71 127.974 19.33C128.974 18.93 130.124 18.73 131.424 18.73C132.184 18.73 132.974 18.79 133.794 18.91C134.614 19.03 135.344 19.21 135.984 19.45V18.13C135.984 16.81 135.594 15.76 134.814 14.98C134.034 14.2 132.954 13.81 131.574 13.81C130.734 13.81 129.904 13.97 129.084 14.29C128.284 14.59 127.444 15.04 126.564 15.64L125.784 14.2C126.804 13.5 127.804 12.98 128.784 12.64C129.764 12.28 130.764 12.1 131.784 12.1C133.704 12.1 135.224 12.65 136.344 13.75C137.464 14.85 138.024 16.37 138.024 18.31V25.54C138.024 25.82 138.084 26.03 138.204 26.17C138.324 26.29 138.514 26.36 138.774 26.38V28C138.554 28.02 138.364 28.04 138.204 28.06C138.044 28.08 137.924 28.08 137.844 28.06C137.344 28.04 136.964 27.88 136.704 27.58C136.444 27.28 136.304 26.96 136.284 26.62L136.254 25.48C135.554 26.38 134.644 27.08 133.524 27.58C132.404 28.06 131.264 28.3 130.104 28.3C129.104 28.3 128.194 28.09 127.374 27.67C126.574 27.23 125.944 26.65 125.484 25.93C125.044 25.19 124.824 24.38 124.824 23.5ZM135.294 24.7C135.514 24.42 135.684 24.15 135.804 23.89C135.924 23.63 135.984 23.4 135.984 23.2V20.92C135.304 20.66 134.594 20.46 133.854 20.32C133.134 20.18 132.404 20.11 131.664 20.11C130.204 20.11 129.024 20.4 128.124 20.98C127.224 21.56 126.774 22.35 126.774 23.35C126.774 23.93 126.924 24.48 127.224 25C127.524 25.5 127.964 25.92 128.544 26.26C129.124 26.58 129.804 26.74 130.584 26.74C131.564 26.74 132.474 26.55 133.314 26.17C134.174 25.79 134.834 25.3 135.294 24.7ZM165.682 28H163.642V19.27C163.642 17.45 163.352 16.11 162.772 15.25C162.192 14.39 161.332 13.96 160.192 13.96C159.012 13.96 157.952 14.38 157.012 15.22C156.092 16.06 155.442 17.14 155.062 18.46V28H153.022V19.27C153.022 17.43 152.742 16.09 152.182 15.25C151.622 14.39 150.762 13.96 149.602 13.96C148.442 13.96 147.392 14.37 146.452 15.19C145.512 16.01 144.852 17.09 144.472 18.43V28H142.432V12.37H144.292V15.91C144.952 14.69 145.792 13.75 146.812 13.09C147.852 12.43 149.002 12.1 150.262 12.1C151.562 12.1 152.612 12.47 153.412 13.21C154.212 13.95 154.702 14.92 154.882 16.12C155.602 14.8 156.462 13.8 157.462 13.12C158.482 12.44 159.632 12.1 160.912 12.1C161.792 12.1 162.532 12.26 163.132 12.58C163.752 12.9 164.242 13.36 164.602 13.96C164.982 14.54 165.252 15.25 165.412 16.09C165.592 16.91 165.682 17.83 165.682 18.85V28Z" fill="#FFD7DC"/>
<path d="M6.44432 7.07693C5.27391 7.13215 4.47464 7.31893 3.77592 7.59349C3.05277 7.87531 2.43984 8.2535 1.83 8.86554C1.22015 9.47758 0.844606 10.0909 0.564764 10.8152C0.293941 11.5154 0.110459 12.3154 0.0587584 13.4864C0.00705791 14.6575 -0.00438221 15.0339 0.00133785 18.0211C0.00705791 21.0083 0.020258 21.3827 0.0770186 22.5562C0.132899 23.7264 0.319021 24.5254 0.593584 25.2244C0.875847 25.9475 1.25359 26.5602 1.86586 27.1703C2.47812 27.7803 3.09105 28.155 3.81706 28.4353C4.51666 28.7056 5.31681 28.89 6.48766 28.9413C7.65852 28.9925 8.03538 29.0044 11.0217 28.9987C14.008 28.993 14.384 28.9798 15.5573 28.9241C16.7305 28.8684 17.5254 28.681 18.2246 28.4078C18.9477 28.1248 19.5609 27.7478 20.1705 27.1353C20.7801 26.5228 21.1554 25.909 21.4351 25.1843C21.7061 24.4847 21.8902 23.6846 21.9411 22.5146C21.9923 21.3405 22.0044 20.9656 21.9987 17.9788C21.993 14.9921 21.9796 14.6177 21.9239 13.4446C21.8682 12.2716 21.6819 11.475 21.4076 10.7756C21.1249 10.0524 20.7475 9.44018 20.1355 8.82968C19.5235 8.21918 18.9092 7.84407 18.1847 7.56511C17.4847 7.29429 16.685 7.10971 15.5141 7.05911C14.3433 7.00851 13.9664 6.99553 10.979 7.00125C7.9916 7.00697 7.6176 7.01973 6.44432 7.07693ZM6.5728 26.9624C5.50029 26.9157 4.91795 26.7375 4.52986 26.5884C4.01594 26.3904 3.64985 26.151 3.26309 25.768C2.87633 25.385 2.63872 25.0176 2.43808 24.5047C2.28738 24.1166 2.10588 23.535 2.05572 22.4625C2.00116 21.3033 1.98972 20.9552 1.98334 18.0184C1.97696 15.0817 1.98818 14.7341 2.039 13.5744C2.08476 12.5028 2.26406 11.9198 2.413 11.5319C2.611 11.0174 2.84949 10.6519 3.23339 10.2654C3.61729 9.87886 3.9836 9.64082 4.49686 9.44018C4.88451 9.28882 5.46619 9.10886 6.53826 9.05782C7.69834 9.00282 8.04594 8.99182 10.9823 8.98544C13.9187 8.97906 14.2672 8.99006 15.4277 9.0411C16.4993 9.08774 17.0825 9.26528 17.47 9.4151C17.9841 9.6131 18.35 9.85092 18.7365 10.2355C19.1231 10.62 19.3613 10.985 19.562 11.4994C19.7135 11.8859 19.8935 12.4674 19.9441 13.5401C19.9993 14.7002 20.0119 15.048 20.0171 17.9841C20.0224 20.9203 20.0121 21.269 19.9613 22.4281C19.9144 23.5006 19.7366 24.0832 19.5873 24.4717C19.3893 24.9854 19.1506 25.3517 18.7664 25.7381C18.3823 26.1244 18.0164 26.3624 17.503 26.5631C17.1158 26.7142 16.5334 26.8946 15.4622 26.9456C14.3021 27.0002 13.9545 27.0116 11.0171 27.018C8.0796 27.0244 7.7331 27.0125 6.57302 26.9624M15.5403 12.1209C15.5416 12.85 16.1334 13.44 16.8625 13.4387C17.5916 13.4374 18.1817 12.8456 18.1803 12.1165C18.179 11.3874 17.5872 10.7974 16.8581 10.7987C16.8581 10.7987 16.8579 10.7987 16.8577 10.7987C16.1288 10.8002 15.539 11.392 15.5403 12.1209ZM5.35201 18.011C5.35817 21.1306 7.89172 23.6538 11.0107 23.6478C14.1297 23.6419 16.6546 21.1086 16.6487 17.989C16.6427 14.8694 14.1085 12.3455 10.9891 12.3517C7.86972 12.3578 5.34607 14.8918 5.35201 18.011ZM7.33335 18.007C7.32939 15.9819 8.96775 14.337 10.9929 14.333C13.018 14.329 14.6629 15.9674 14.6669 17.9925C14.6709 20.0176 13.0325 21.6625 11.0074 21.6665C8.98249 21.6707 7.33753 20.0328 7.33335 18.0079V18.007Z" fill="#FFD7DC"/>
</svg>
