<svg width="102" height="38" viewBox="0 0 102 38" fill="none" xmlns="http://www.w3.org/2000/svg">
<path d="M26.049 16.3552C26.4113 15.4207 26.7346 14.5354 26.8085 14.1723C26.9941 13.2592 26.1354 13.1655 25.2304 13.2826C24.3255 13.3997 23.8845 16.1623 23.8845 16.1623L23.6239 16.8506C20.8745 17.4575 17.9133 18.2491 15.2989 19.0507C17.236 13.4301 18.576 7.37928 18.6164 6.68831C18.6786 5.62704 16.9765 5.28362 16.9765 5.28362C16.9765 5.28362 14.4084 5.06516 7.94107 5.28362C1.47372 5.50207 3.28067 8.0221 4.20898 9.23945C5.1373 10.4568 16.0791 6.31415 15.9858 7.37551C15.9206 8.12044 13.7692 15.5782 12.4908 19.9634C12.2252 20.0552 11.965 20.1464 11.7156 20.2363C4.97051 22.6713 -2.14632 29.6636 0.607607 34.1582C3.36153 38.6528 8.12661 32.1916 11.7779 26.8226C12.6413 25.5533 13.4743 23.8159 14.245 21.8923C14.6731 21.6996 15.0947 21.5137 15.4602 21.3601C16.8359 20.7818 22.0843 19.1334 22.8511 18.8933L22.2266 20.5435C21.5843 21.9973 20.6627 23.9706 20.1016 24.669C19.1733 25.824 20.5966 26.7292 21.7415 26.4483C22.6518 26.225 24.2453 21.3096 24.8605 19.3022C24.8605 19.3022 25.0073 18.9508 25.2176 18.4361C25.7971 18.3201 28.8847 17.726 30.5908 17.8952C32.4782 18.0825 34.4896 17.7703 33.0043 16.1783C32.3632 15.491 29.564 15.7006 26.0486 16.3555M3.2996 32.8475C1.44306 32.4106 4.16598 25.9801 11.716 22.7336C11.716 22.7336 5.15614 33.2845 3.2996 32.8475Z" fill="#DB7281"/>
<path d="M51.5704 11.3712C49.2898 9.90255 46.0127 11.1727 43.4029 12.719C44.2627 7.65351 43.3989 8.15308 41.9855 8.31758C40.3765 8.50484 41.1809 9.75356 41.2429 10.4089C41.2828 10.8319 40.8981 13.0713 40.6198 14.6089C39.7395 15.2823 39.1933 15.7724 39.1933 15.7724C39.1933 15.7724 39.9359 14.836 39.3479 13.7746C38.76 12.7131 35.5848 12.6211 34.954 13.7746C33.964 15.5853 36.9963 16.4592 36.9963 16.4592C36.9963 16.4592 36.2537 18.8317 35.0471 20.4278C33.8404 22.024 33.6236 24.4192 35.4182 24.2633C36.5932 24.1612 38.1394 21.8649 39.7012 19.5555C39.2481 22.444 38.8954 26.1657 39.9745 26.6724C41.7439 27.5034 41.4093 22.9312 42.8821 15.473C45.3644 13.3699 49.6019 12.5365 50.5497 14.6176C51.6017 16.9276 48.167 20.2988 46.7746 21.6097C45.3822 22.9205 46.3105 23.5763 48.8479 23.108C51.3853 22.6398 55.9338 14.1804 51.5708 11.371" fill="#DB7281"/>
<path d="M66.5774 8.222C66.0252 8.56694 65.2348 8.85353 64.4817 9.0736C63.417 7.4257 62.3622 6.29872 61.5337 6.65693C60.2342 7.21881 60.7292 8.1553 61.6576 8.93573C61.8632 9.13502 62.0408 9.36173 62.1854 9.60957C61.6238 9.72611 58.6444 10.4017 58.5322 11.589C58.4085 12.9002 60.265 13.462 61.8121 12.3693C62.2604 12.0553 62.7368 11.7844 63.2352 11.5602C63.9847 13.1088 64.6569 14.7508 64.6589 14.8043C64.7211 16.3649 65.9894 16.7708 66.9796 16.4587C67.9699 16.1466 67.8459 15.2413 66.2679 12.2133C66.0567 11.8081 65.8403 11.4019 65.6211 11.0032C66.5121 11.032 68.0838 10.975 68.4338 10.2466C68.9291 9.21703 67.9699 7.35246 66.5774 8.222Z" fill="#DB7281"/>
<path d="M63.1425 22.859C61.4405 22.3908 59.0772 21.0797 58.5261 19.1755C58.5261 19.1755 59.4292 17.7708 57.9752 17.2714C56.5212 16.772 55.0975 17.5835 55.84 19.7373C56.5825 21.8912 62.3673 25.3249 64.1784 24.9192C65.9894 24.5135 64.8448 23.3271 63.1426 22.859" fill="#DB7281"/>
<path d="M81.988 24.1074C83.3495 22.8899 82.7615 21.1732 80.6265 20.0181C78.4915 18.8631 76.047 16.3971 76.047 16.3971L79.853 9.81056C79.853 9.81056 82.5759 8.33513 82.3903 6.59123C82.2048 4.84732 79.884 4.5039 78.244 7.40697C76.604 10.31 72.9218 14.5322 73.2313 16.5571C73.5408 18.5821 80.6266 25.3247 81.9881 24.1073" fill="#DB7281"/>
<path d="M97.4262 6.28292C100.706 7.3442 97.6118 3.28627 94.7651 0.913788C91.9184 -1.45869 91.9492 1.53815 91.9492 1.53815C91.9492 1.53815 94.1463 5.22165 97.4262 6.28292Z" fill="#DB7281"/>
<path d="M99.1508 9.93549C96.3139 9.27993 91.951 11.0592 91.951 11.0592C91.951 11.0592 90.6515 10.1695 91.2548 8.71823C91.858 7.26692 92.0956 5.62799 91.0948 5.48752C90.094 5.34705 88.0056 8.43729 88.2841 12.3237C88.5626 16.21 94.8287 13.6225 95.8033 12.9497C96.7779 12.2769 100.155 12.5259 99.1451 14.9458C92.382 31.1465 79.4588 34.4695 80.9971 37.7957C81.7689 39.4647 93.7147 30.6317 98.124 22.2972C102.533 13.9627 101.988 10.5913 99.1508 9.93549Z" fill="#DB7281"/>
</svg>
