<svg width="25" height="25" viewBox="0 0 25 25" fill="none" xmlns="http://www.w3.org/2000/svg">
<path d="M7.18383 0.0856325C5.87911 0.147098 4.98812 0.355003 4.20921 0.660617C3.40308 0.974312 2.71982 1.39526 2.03999 2.07653C1.36017 2.75779 0.941527 3.44052 0.629572 4.24668C0.327671 5.02614 0.123134 5.91653 0.0655011 7.22004C0.00786783 8.52355 -0.00488508 8.94255 0.00149137 12.2676C0.00786782 15.5926 0.0225827 16.0094 0.0858567 17.3156C0.14815 18.6181 0.35563 19.5075 0.661699 20.2855C0.976352 21.0904 1.39744 21.7724 2.07997 22.4515C2.76249 23.1306 3.44575 23.5476 4.25507 23.8596C5.03496 24.1605 5.92693 24.3657 7.23214 24.4228C8.53735 24.4799 8.95746 24.4931 12.2865 24.4867C15.6155 24.4804 16.0346 24.4657 17.3425 24.4037C18.6504 24.3417 19.5365 24.1331 20.3159 23.829C21.122 23.514 21.8055 23.0943 22.4851 22.4126C23.1647 21.7308 23.5831 21.0476 23.8948 20.2409C24.1969 19.4622 24.4022 18.5716 24.4589 17.2693C24.516 15.9624 24.5295 15.5451 24.5231 12.2205C24.5167 8.89602 24.5018 8.47923 24.4397 7.17352C24.3777 5.8678 24.1699 4.98108 23.8641 4.2026C23.549 3.39767 23.1284 2.71616 22.4461 2.03661C21.7638 1.35706 21.0791 0.939538 20.2715 0.629027C19.4911 0.327577 18.5996 0.12212 17.2944 0.065797C15.9892 0.00947403 15.5691 -0.00497404 12.2389 0.00139291C8.90866 0.00775985 8.49173 0.021963 7.18383 0.0856325ZM7.32705 22.2201C6.13147 22.1682 5.48229 21.9698 5.04968 21.8038C4.47678 21.5834 4.06868 21.317 3.63754 20.8906C3.20639 20.4643 2.94152 20.0553 2.71786 19.4845C2.54986 19.0525 2.34753 18.4051 2.29162 17.2113C2.2308 15.921 2.21804 15.5336 2.21093 12.2646C2.20382 8.99569 2.21633 8.60877 2.27298 7.318C2.32399 6.12517 2.52387 5.47623 2.6899 5.04451C2.91062 4.47173 3.17647 4.06498 3.60443 3.63472C4.03239 3.20446 4.44073 2.93949 5.01289 2.71616C5.44502 2.54768 6.09345 2.34737 7.28855 2.29056C8.58174 2.22934 8.96923 2.21709 12.2426 2.20999C15.5159 2.20289 15.9044 2.21513 17.198 2.27194C18.3926 2.32386 19.0428 2.52148 19.4747 2.68825C20.0478 2.90864 20.4557 3.17336 20.8866 3.60141C21.3175 4.02947 21.5831 4.43573 21.8067 5.00826C21.9757 5.43852 22.1763 6.08575 22.2327 7.27979C22.2943 8.57106 22.3083 8.95822 22.3142 12.2264C22.32 15.4946 22.3085 15.8828 22.2519 17.1731C22.1996 18.3669 22.0015 19.0153 21.8349 19.4478C21.6142 20.0196 21.3481 20.4273 20.9199 20.8573C20.4917 21.2873 20.0839 21.5523 19.5115 21.7756C19.0798 21.9439 18.4307 22.1447 17.2365 22.2015C15.9433 22.2622 15.5559 22.2749 12.2813 22.282C9.00675 22.2891 8.62049 22.2759 7.3273 22.2201M17.3236 5.70006C17.3251 6.5116 17.9848 7.16837 18.7975 7.1669C19.6103 7.16543 20.2681 6.5067 20.2666 5.69516C20.2651 4.88362 19.6054 4.22684 18.7926 4.22831C18.7926 4.22831 18.7924 4.22831 18.7921 4.22831C17.9796 4.23003 17.3221 4.88876 17.3236 5.70006ZM5.96617 12.2563C5.97304 15.7287 8.79731 18.5373 12.2742 18.5307C15.7511 18.5241 18.5658 15.7042 18.5592 12.2318C18.5525 8.75938 15.7275 5.95008 12.2502 5.95694C8.77279 5.9638 5.95955 8.78435 5.96617 12.2563ZM8.17487 12.2519C8.17046 9.99775 9.99682 8.16676 12.2543 8.16235C14.5118 8.15794 16.3456 9.98158 16.35 12.2357C16.3544 14.4899 14.528 16.3209 12.2705 16.3253C10.0133 16.3299 8.17953 14.5068 8.17487 12.2529V12.2519Z" fill="#DB7281"/>
</svg>
