<svg width="30" height="27" viewBox="0 0 30 27" fill="none" xmlns="http://www.w3.org/2000/svg">
<path d="M29.0905 11.3391C29.0905 5.08675 22.5657 0 14.5453 0C6.52485 0 0 5.08675 0 11.3391C0 16.9445 5.17517 21.6383 12.1649 22.5263C12.638 22.6245 13.2828 22.8262 13.4464 23.2152C13.5937 23.5688 13.5419 24.1215 13.4941 24.479C13.4941 24.479 13.3237 25.4652 13.2869 25.6747C13.2228 26.0283 12.9952 27.0564 14.5466 26.4278C16.0995 25.7991 22.9229 21.6894 25.974 18.3157C28.0817 16.0945 29.0919 13.8419 29.0919 11.3391H29.0905ZM9.41373 14.6827C9.41373 14.8307 9.28967 14.9499 9.13561 14.9499H5.04974C4.89705 14.9499 4.77162 14.8307 4.77162 14.6827V14.6788V8.58487C4.77162 8.43688 4.89568 8.3177 5.04974 8.3177H6.08177C6.23446 8.3177 6.35989 8.43819 6.35989 8.58487V13.4254H9.13697C9.28967 13.4254 9.41509 13.5459 9.41509 13.6926V14.684L9.41373 14.6827ZM11.8732 14.6827C11.8732 14.8294 11.7491 14.9499 11.595 14.9499H10.563C10.4103 14.9499 10.2849 14.8307 10.2849 14.6827V8.58487C10.2849 8.43819 10.409 8.3177 10.563 8.3177H11.595C11.7491 8.3177 11.8732 8.43688 11.8732 8.58487V14.6827ZM18.8956 14.6827C18.8956 14.8294 18.7716 14.9499 18.6175 14.9499H17.5923C17.5677 14.9499 17.5432 14.9459 17.52 14.9407C17.52 14.9407 17.5173 14.9407 17.5159 14.9407C17.5091 14.9394 17.5037 14.9368 17.4969 14.9355C17.4941 14.9355 17.4914 14.9328 17.4887 14.9328C17.4846 14.9315 17.4791 14.9289 17.475 14.9276C17.471 14.925 17.4655 14.9237 17.4614 14.921C17.4587 14.9197 17.456 14.9184 17.4532 14.9171C17.4478 14.9145 17.441 14.9106 17.4355 14.9066C17.4355 14.9066 17.4328 14.9053 17.4328 14.904C17.4055 14.8857 17.381 14.8634 17.3605 14.8372L14.4526 11.0641V14.6853C14.4526 14.832 14.3285 14.9525 14.1744 14.9525H13.1424C12.9897 14.9525 12.8643 14.8333 12.8643 14.6853V8.58749C12.8643 8.44081 12.9884 8.32032 13.1424 8.32032H14.1676C14.1676 8.32032 14.1744 8.32032 14.1772 8.32032C14.1826 8.32032 14.1867 8.32032 14.1922 8.32032C14.1976 8.32032 14.2017 8.32032 14.2072 8.32163C14.2113 8.32163 14.2153 8.32163 14.2194 8.32294C14.2249 8.32294 14.2303 8.32556 14.2358 8.32687C14.2385 8.32687 14.2426 8.32818 14.2453 8.32949C14.2508 8.3308 14.2562 8.33342 14.2617 8.33473C14.2644 8.33473 14.2671 8.33735 14.2712 8.33735C14.2767 8.33997 14.2821 8.34128 14.2876 8.34389C14.2903 8.3452 14.2931 8.34651 14.2958 8.34782C14.3012 8.35044 14.3067 8.35306 14.3108 8.35568C14.3135 8.35699 14.3162 8.3583 14.319 8.36092C14.3244 8.36354 14.3285 8.36747 14.334 8.37009C14.3367 8.3714 14.3394 8.37402 14.3421 8.37533C14.3476 8.37926 14.3517 8.38318 14.3571 8.38711C14.3585 8.38842 14.3612 8.38973 14.3626 8.39104C14.368 8.39628 14.3735 8.40152 14.3789 8.40807C14.3789 8.40807 14.3789 8.40807 14.3803 8.40938C14.3885 8.41855 14.3953 8.42771 14.4021 8.43688L17.306 12.2048V8.58356C17.306 8.43688 17.4301 8.31639 17.5841 8.31639H18.6161C18.7688 8.31639 18.8943 8.43557 18.8943 8.58356V14.6814L18.8956 14.6827ZM24.5289 9.57498C24.5289 9.72297 24.4048 9.84216 24.2507 9.84216H21.4737V10.8716H24.2507C24.4034 10.8716 24.5289 10.992 24.5289 11.1387V12.1301C24.5289 12.2781 24.4048 12.3973 24.2507 12.3973H21.4737V13.4267H24.2507C24.4034 13.4267 24.5289 13.5472 24.5289 13.6939V14.6853C24.5289 14.8333 24.4048 14.9525 24.2507 14.9525H20.1649C20.0122 14.9525 19.8868 14.8333 19.8868 14.6853V14.6814V8.59404V8.58749C19.8868 8.4395 20.0108 8.32032 20.1649 8.32032H24.2507C24.4034 8.32032 24.5289 8.44081 24.5289 8.58749V9.57891V9.57498Z" fill="#DB7281"/>
</svg>
