<svg width="124" height="42" viewBox="0 0 124 42" fill="none" xmlns="http://www.w3.org/2000/svg">
<rect width="124" height="42" rx="21" fill="#EE8A98"/>
<path d="M24.448 16.484C24.364 16.856 24.316 17.144 24.268 17.432C24.232 17.696 24.184 18.068 24.124 18.524C25.012 18.524 25.816 18.464 26.452 18.368L26.416 19.496C25.672 19.568 24.988 19.616 24.004 19.616H23.98C23.896 20.24 23.812 20.924 23.74 21.548C23.8 21.548 23.848 21.548 23.908 21.548C24.688 21.548 25.552 21.512 26.368 21.404L26.332 22.532C25.6 22.604 24.868 22.652 24.088 22.652C23.932 22.652 23.788 22.652 23.632 22.652C23.596 23.072 23.572 23.444 23.572 23.696C23.572 24.788 24.208 25.424 25.492 25.424C27.244 25.424 28.3 24.644 28.3 23.516C28.3 22.7 27.868 21.86 27.028 21.116L28.36 20.84C29.164 21.788 29.56 22.628 29.56 23.66C29.56 25.46 27.952 26.636 25.468 26.636C23.728 26.636 22.396 25.88 22.396 23.888C22.396 23.576 22.432 23.12 22.48 22.58C21.604 22.508 20.764 22.364 20.08 22.172L20.14 21.02C20.92 21.296 21.784 21.428 22.6 21.5C22.684 20.864 22.768 20.192 22.852 19.556C21.988 19.484 21.088 19.328 20.356 19.136L20.416 18.032C21.148 18.272 22.084 18.416 22.972 18.488C23.032 18.056 23.068 17.672 23.092 17.36C23.128 16.88 23.128 16.652 23.104 16.412L24.448 16.484ZM34.036 21.08C34.384 21.02 34.852 20.888 35.224 20.78C36.052 20.516 38.056 19.82 39.484 19.82C41.272 19.82 42.52 20.876 42.52 22.592C42.52 24.848 40.432 26.156 36.952 26.372L36.448 25.208C39.112 25.124 41.284 24.392 41.284 22.58C41.284 21.608 40.528 20.912 39.388 20.912C37.936 20.912 35.416 21.956 34.54 22.328L34.036 21.08ZM49.204 16.568C49.684 17.864 50.272 19.088 50.776 20.024C51.832 19.388 53.02 18.8 53.644 18.452C54.04 18.224 54.328 18.044 54.604 17.816L55.264 18.908C54.952 19.1 54.616 19.28 54.232 19.472C53.44 19.88 51.844 20.624 50.704 21.368C49.648 22.064 48.976 22.82 48.976 23.696C48.976 24.632 49.876 25.184 51.664 25.184C52.948 25.184 54.556 25.004 55.54 24.752L55.528 26.12C54.58 26.288 53.236 26.408 51.712 26.408C49.396 26.408 47.692 25.748 47.692 23.828C47.692 22.556 48.508 21.572 49.732 20.708C49.18 19.7 48.58 18.344 48.016 17.06L49.204 16.568ZM61.888 21.188V22.22H67.312V21.188H61.888ZM61.888 19.244V20.264H67.312V19.244H61.888ZM61.888 17.324V18.332H67.312V17.324H61.888ZM66.976 25.784H68.512C68.98 25.784 69.052 25.592 69.1 24.14C69.34 24.344 69.832 24.512 70.144 24.596C70.012 26.396 69.7 26.84 68.62 26.84H66.844C65.584 26.84 65.272 26.504 65.272 25.376V23.204H63.544C63.268 25.112 62.524 26.336 59.716 26.972C59.608 26.684 59.308 26.216 59.08 25.988C61.54 25.508 62.128 24.632 62.356 23.204H60.808V16.328H68.44V23.204H66.412V25.376C66.412 25.736 66.496 25.784 66.976 25.784ZM76.312 24.668C76.312 25.196 76.9 25.52 77.752 25.52C78.052 25.52 78.34 25.508 78.604 25.472C78.508 24.596 77.98 23.984 77.188 23.984C76.684 23.984 76.312 24.308 76.312 24.668ZM74.56 17.024C74.86 17.06 75.232 17.072 75.52 17.072C76.144 17.072 78.88 17 79.528 16.94C79.948 16.904 80.164 16.88 80.296 16.832L80.956 17.696C80.704 17.852 80.452 18.02 80.2 18.212C79.588 18.668 78.112 19.916 77.26 20.612C77.74 20.468 78.22 20.408 78.7 20.408C80.704 20.408 82.192 21.644 82.192 23.324C82.192 25.232 80.668 26.6 77.968 26.6C76.312 26.6 75.208 25.868 75.208 24.776C75.208 23.888 76 23.084 77.188 23.084C78.676 23.084 79.528 24.044 79.684 25.184C80.512 24.824 80.956 24.176 80.956 23.3C80.956 22.172 79.852 21.356 78.352 21.356C76.432 21.356 75.304 22.256 73.888 23.768L73.012 22.88C73.948 22.112 75.448 20.852 76.156 20.264C76.828 19.712 78.22 18.56 78.82 18.032C78.184 18.056 76.108 18.152 75.484 18.188C75.184 18.2 74.872 18.224 74.596 18.26L74.56 17.024Z" fill="white"/>
<path d="M94 19L99 22L94 25" stroke="white" stroke-linecap="round"/>
<path d="M95 24.5V20L99 22L95 24.5Z" fill="white"/>
</svg>
