<svg width="231" height="90" viewBox="0 0 231 90" fill="none" xmlns="http://www.w3.org/2000/svg">
<mask id="mask0_1918_2385" style="mask-type:luminance" maskUnits="userSpaceOnUse" x="0" y="0" width="231" height="90">
<path d="M231 0.535156H0V89.4565H231V0.535156Z" fill="white"/>
</mask>
<g mask="url(#mask0_1918_2385)">
<path d="M70.9787 45.5193C72.1964 46.1664 73.208 47.1412 73.8989 48.3333C74.6153 49.577 74.9815 50.991 74.9587 52.4256C74.9587 55.4504 73.729 57.8958 71.2698 59.7619C68.8105 61.628 65.6785 62.924 61.8739 63.6498C61.7589 63.672 61.6293 63.6996 61.4818 63.7349C61.3533 63.7657 61.2218 63.7824 61.0896 63.7847C60.9062 63.7847 60.8154 63.7293 60.8154 63.6145C60.8154 63.4554 60.9524 63.3536 61.2267 63.3075C63.0962 62.7837 64.8389 61.8841 66.3479 60.6639C67.7884 59.5239 68.9801 58.1017 69.8496 56.4847C70.6543 55.0204 71.0827 53.3798 71.0966 51.7096C71.1216 50.6707 70.8622 49.6446 70.3462 48.7421C69.8648 47.9206 69.1601 47.2521 68.3137 46.8143C67.4418 46.3676 66.4742 46.1397 65.4943 46.1503C64.2195 46.1503 62.9046 46.5314 61.5497 47.2936C60.0863 48.1447 58.7849 49.2469 57.7051 50.5496C57.5244 50.7094 57.4041 50.9263 57.3642 51.1639C57.3902 54.3235 57.699 57.4744 58.2869 60.579C58.3513 60.9049 58.3855 61.236 58.3889 61.5682C58.3889 62.2731 58.2238 62.7961 57.8936 63.137C57.5634 63.4793 57.2377 63.6496 56.919 63.6496C56.6945 63.6441 56.474 63.5891 56.2731 63.4887C56.0723 63.3883 55.8962 63.2449 55.7573 63.0686C55.428 62.7075 55.2138 62.2567 55.1421 61.7736C54.9447 60.4511 54.6713 59.1409 54.3231 57.8497C54.2879 57.67 54.2119 57.5008 54.1008 57.3551C54.0691 57.3044 54.0266 57.2612 53.9764 57.2286C53.9261 57.196 53.8694 57.1748 53.81 57.1664C53.7493 57.17 53.6911 57.1915 53.6426 57.2282C53.5941 57.2649 53.5576 57.3151 53.5376 57.3724L53.1288 58.2264C52.8945 58.7236 52.5429 59.1566 52.1041 59.4882C51.7519 59.7635 51.3209 59.9192 50.8738 59.9323C50.4685 59.9251 50.0821 59.7598 49.7973 59.4718C49.6329 59.3172 49.5037 59.1292 49.4182 58.9205C49.3328 58.7118 49.2931 58.4872 49.302 58.2619C49.3237 57.8949 49.4162 57.5356 49.5744 57.2037C49.7727 56.6569 50.0552 56.1444 50.4119 55.6847C50.8325 55.1056 51.4644 54.3156 52.3074 53.3148C52.4568 53.1577 52.542 52.9505 52.5464 52.7338C52.5395 52.595 52.5169 52.4575 52.4789 52.3238C51.8416 50.755 51.3407 49.7541 50.9762 49.3212C50.361 48.5275 50.0534 47.9139 50.0534 47.4803C50.0524 47.3131 50.0868 47.1475 50.1544 46.9944C50.222 46.8414 50.3212 46.7044 50.4456 46.5923C50.5752 46.4687 50.7281 46.3719 50.8953 46.3074C51.0626 46.243 51.2409 46.2122 51.4201 46.2169L52.1705 46.2521C52.5665 46.2613 52.9623 46.2271 53.3508 46.1503C53.6786 46.0651 53.9942 45.9389 54.2903 45.7748L55.9635 44.7856C56.1108 44.6945 56.2342 44.5696 56.3235 44.4212C56.4128 44.2729 56.4653 44.1054 56.4767 43.9327L56.6806 41.7497C56.8177 40.4547 56.887 39.5092 56.887 38.919C56.8877 38.3573 56.7775 37.801 56.5628 37.2817C56.2851 36.6698 55.897 36.1142 55.4178 35.6426C55.3264 35.5298 55.2233 35.4268 55.1103 35.3356C54.9732 35.2226 54.9064 35.1319 54.9064 35.0635C54.9064 34.9506 55.0415 34.8933 55.3158 34.8933C55.9984 34.9133 56.6709 35.0634 57.2971 35.3356C58.0497 35.6099 58.7451 36.0207 59.3482 36.5473C59.5845 36.7537 59.7737 37.0083 59.9032 37.294C60.0326 37.5796 60.0992 37.8896 60.0986 38.2031C60.0972 38.505 60.0452 38.8045 59.9448 39.0893C59.8429 39.3852 59.7225 39.685 59.5872 39.9921C59.4518 40.2991 59.3601 40.499 59.3129 40.5897C58.9243 41.3211 58.6043 42.0869 58.3569 42.8772C58.4013 43.0808 58.5274 43.1381 58.7329 43.0474C58.9074 42.9805 59.0926 42.946 59.2794 42.9456C59.5162 42.9481 59.7471 43.0188 59.9446 43.1492C60.1726 43.2973 60.3747 43.4817 60.5431 43.6949C60.6632 43.8094 60.7585 43.9473 60.8232 44.1C60.8878 44.2527 60.9205 44.4171 60.9192 44.5829C60.9026 44.9911 60.7585 45.3838 60.5072 45.7062C60.12 46.548 60.0064 46.912 60.1663 46.7984L60.9852 46.2859C63.0122 45.1044 64.9601 44.5136 66.829 44.5136C68.2753 44.494 69.7031 44.8403 70.9794 45.5201M52.1047 48.7761C51.9212 48.7761 51.8304 48.8792 51.8304 49.0832C51.8393 49.2359 51.8738 49.386 51.9324 49.5273C52.2066 50.2322 52.4802 50.8803 52.7532 51.4716C52.8661 51.7677 53.0366 51.9157 53.2646 51.9157C53.3642 51.9098 53.4606 51.8784 53.5446 51.8247C53.6286 51.7709 53.6974 51.6965 53.7444 51.6087L53.8464 51.4718C54.8246 50.2903 55.5195 49.4035 55.9309 48.8114C56.1188 48.5654 56.2261 48.2675 56.2384 47.9584V47.8216C56.247 47.6703 56.2046 47.5204 56.1178 47.396C56.0851 47.349 56.0416 47.3105 55.9909 47.2838C55.9401 47.2571 55.8838 47.2429 55.8264 47.2425C55.727 47.2483 55.6308 47.2797 55.5471 47.3335C55.4634 47.3872 55.395 47.4617 55.3484 47.5496C55.2335 47.7086 55.1094 47.9011 54.9724 48.1286C54.8589 48.3263 54.7215 48.5093 54.5634 48.6735C54.4184 48.8159 54.2581 48.9419 54.0854 49.049C53.8573 49.1795 53.5953 49.2388 53.3331 49.2192C52.9917 49.1823 52.6637 49.0657 52.3757 48.879C52.2948 48.8226 52.2012 48.7871 52.1032 48.7759M55.9626 52.7683L55.1771 54.0301C55.0623 54.2114 54.914 54.4846 54.7324 54.8496C54.6621 55.0005 54.6165 55.1616 54.5972 55.3269C54.623 55.5016 54.6684 55.6729 54.7324 55.8376L55.1771 56.7256C55.3142 56.9292 55.4384 57.0326 55.5532 57.0326C55.6679 57.0326 55.7348 56.9642 55.7571 56.8265C55.8235 56.5703 55.8582 56.3069 55.8603 56.0422L55.9626 52.7683Z" fill="#FFF9B6"/>
<path d="M128.579 39.8876C128.917 40.5708 129.086 41.3247 129.073 42.0865C129.071 42.7324 128.888 43.3648 128.545 43.9125C128.217 44.4651 127.781 44.9464 127.263 45.3279C126.763 45.6924 126.317 45.8736 125.931 45.8736C125.554 45.8701 125.186 45.7576 124.871 45.5498C124.531 45.3358 124.231 45.0649 123.984 44.7488C123.092 43.6664 122.002 42.7629 120.773 42.0865C119.697 41.4804 118.487 41.1523 117.253 41.1319C115.932 41.1319 114.822 41.496 113.923 42.2241C113.486 42.5683 113.136 43.0102 112.902 43.5141C112.667 44.0181 112.555 44.57 112.573 45.1253C112.573 46.1705 112.915 47.0062 113.6 47.6322C114.282 48.2576 115.295 48.5703 116.64 48.5703C117.094 48.5602 117.545 48.5088 117.989 48.4168C118.523 48.315 119.019 48.206 119.475 48.093C119.937 47.9762 120.404 47.8847 120.876 47.8192C121.59 47.814 122.284 48.0552 122.84 48.5019C123.42 48.957 123.71 49.4689 123.711 50.0374C123.706 50.2685 123.643 50.4947 123.527 50.6945C123.41 50.8942 123.245 51.061 123.045 51.1788C122.601 51.4859 121.957 51.6962 121.115 51.8096C120.22 51.9323 119.318 51.9898 118.415 51.9817C116.481 51.9817 114.892 51.6919 113.65 51.1123C112.407 50.5326 111.507 49.7932 110.95 48.8941C110.407 48.0434 110.117 47.0559 110.115 46.0469C110.095 44.8995 110.468 43.7798 111.173 42.8733C111.884 41.9586 112.82 41.2419 113.889 40.7919C114.971 40.3196 116.139 40.076 117.32 40.0764C118.165 40.0766 119.007 40.1678 119.832 40.3484C120.663 40.5317 121.546 40.771 122.48 41.0662C123.482 41.3844 124.143 41.5429 124.462 41.5416C124.94 41.5416 125.179 41.3048 125.179 40.8257C125.179 40.4853 125.031 39.9623 124.734 39.2568C124.285 38.1893 123.688 37.1903 122.96 36.2893C122.171 35.2989 121.29 34.3852 120.329 33.5604C120.253 33.4831 120.162 33.4221 120.062 33.3811C119.962 33.34 119.855 33.3199 119.747 33.3218C119.604 33.3232 119.464 33.3581 119.337 33.4236C118.367 33.8173 117.368 34.1368 116.348 34.3792C115.572 34.5807 114.775 34.6955 113.973 34.7215C112.79 34.7215 111.589 34.3238 110.369 33.5283C109.22 32.7978 108.226 31.8466 107.448 30.73C107.305 30.5519 107.212 30.3404 107.175 30.1157C107.172 30.0971 107.174 30.0781 107.18 30.0603C107.186 30.0424 107.196 30.0262 107.209 30.0129C107.223 29.9997 107.239 29.9897 107.257 29.9837C107.274 29.9778 107.293 29.9761 107.312 29.9788C107.423 29.9944 107.528 30.0355 107.62 30.099C107.755 30.1785 107.892 30.2506 108.03 30.3191C108.833 30.77 109.687 31.1252 110.573 31.3773C111.374 31.6401 112.208 31.789 113.05 31.8195C113.812 31.7861 114.568 31.672 115.305 31.4791C115.489 31.4444 115.66 31.3621 115.802 31.2404C115.855 31.1996 115.899 31.148 115.931 31.0891C115.964 31.0301 115.983 30.9651 115.989 30.8981C115.986 30.8286 115.962 30.7616 115.919 30.7068C115.876 30.652 115.817 30.6121 115.75 30.5929C115.425 30.418 115.081 30.2808 114.725 30.1841C114.106 29.9634 113.566 29.5662 113.172 29.0418C112.812 28.5772 112.615 28.0082 112.609 27.4212C112.622 26.8175 112.859 26.2401 113.274 25.8006C113.469 25.5591 113.717 25.3647 113.997 25.2318C114.278 25.0988 114.586 25.0308 114.897 25.0328C115.377 25.0334 115.844 25.1892 116.229 25.4769C117.756 26.5461 119.237 27.0808 120.67 27.0808C121.189 27.0694 121.705 27.0003 122.208 26.8747C122.299 26.8524 122.475 26.8192 122.738 26.7729C123.026 26.7248 123.317 26.7019 123.609 26.7045C124.084 26.6847 124.554 26.809 124.956 27.0612C125.115 27.1534 125.248 27.2852 125.341 27.4437C125.434 27.6023 125.484 27.7822 125.486 27.9659C125.486 28.6022 124.974 29.4551 123.949 30.5245C123.45 30.999 122.913 31.4321 122.344 31.8195C122.266 31.8574 122.199 31.9155 122.151 31.9877C122.103 32.0599 122.075 32.1436 122.07 32.2302C122.07 32.48 122.262 32.7759 122.651 33.1163C124.564 34.7777 126.067 36.3127 127.159 37.7212C127.697 38.3992 128.172 39.1243 128.579 39.8876ZM118.381 29.842C118.535 29.969 118.727 30.0415 118.927 30.0481C119.087 30.031 119.24 29.9723 119.37 29.8778C119.584 29.7575 119.78 29.608 119.952 29.4337C119.997 29.3894 120.123 29.2689 120.328 29.0748C120.412 29.0116 120.482 28.9324 120.535 28.8419C120.588 28.7514 120.622 28.6513 120.636 28.5474C120.636 28.4567 120.545 28.3531 120.361 28.2404C119.837 27.9888 119.165 27.71 118.346 27.4041C117.526 27.0981 117.014 26.9446 116.81 26.9435C116.723 26.9419 116.638 26.961 116.56 26.9993C116.483 27.0376 116.416 27.094 116.365 27.1636C116.254 27.3048 116.193 27.4796 116.194 27.6594C116.205 27.9828 116.332 28.2915 116.552 28.5289C116.768 28.7931 117.028 29.0182 117.32 29.1943C117.935 29.5568 118.289 29.7727 118.38 29.8418" fill="#FFF9B6"/>
<path d="M176.677 60.8122C175.948 58.5385 175.317 56.8667 174.781 55.7967C174.252 54.739 173.641 53.724 172.954 52.7608C172.473 52.1251 172.034 51.4589 171.639 50.7664C171.391 50.3344 171.256 49.8476 171.244 49.35C171.256 48.8882 171.367 48.4344 171.569 48.0192C171.88 47.3777 172.24 46.7615 172.647 46.1764C173.738 44.5169 174.541 43.2096 175.055 42.2543C175.567 41.2997 176.13 40.1742 176.745 38.878C176.884 38.5412 176.965 38.1834 176.984 37.8198C176.981 37.3747 176.857 36.9388 176.626 36.558C176.425 36.1869 176.123 35.8799 175.756 35.6718C175.624 35.578 175.486 35.4921 175.344 35.4146C175.163 35.3128 175.072 35.2277 175.072 35.1593C175.072 35.0686 175.185 34.9944 175.413 34.9374C175.67 34.8779 175.934 34.8493 176.198 34.8523C176.894 34.8652 177.584 34.9741 178.249 35.176C178.991 35.3879 179.694 35.7163 180.332 36.1491C181.175 36.6949 181.596 37.3998 181.596 38.2637C181.606 38.6603 181.5 39.0513 181.29 39.3884C181.039 39.8552 180.741 40.2953 180.401 40.702C180.082 41.0776 179.513 41.6863 178.693 42.528L177.599 43.6528C176.415 44.8813 175.049 46.439 173.5 48.326C173.261 48.6136 173.128 48.9751 173.124 49.3492C173.13 49.5435 173.175 49.7347 173.257 49.9109C173.34 50.0872 173.457 50.2448 173.602 50.3742C175.127 51.7839 176.408 53.0457 177.445 54.1594C178.518 55.3252 179.457 56.6066 180.246 57.9799C181.078 59.4137 181.494 60.8351 181.493 62.2443C181.518 62.804 181.343 63.3544 180.998 63.7964C180.829 63.9956 180.616 64.1531 180.376 64.2568C180.136 64.3604 179.875 64.4074 179.614 64.3941C178.384 64.3941 177.404 63.2002 176.676 60.8124" fill="#FFF9B6"/>
<path d="M215.592 89.2528C215.591 89.1975 215.61 89.1437 215.644 89.1003C215.679 89.0569 215.727 89.0265 215.781 89.0142C215.905 88.968 216.014 88.9347 216.105 88.9112C216.172 88.8926 216.24 88.8814 216.309 88.8778C219.863 88.332 222.522 87.3084 224.287 85.8072C226.052 84.306 226.935 82.4299 226.935 80.1788C226.935 79.0429 226.701 78.1049 226.234 77.3649C226.027 77.0141 225.729 76.7258 225.371 76.5307C225.013 76.3356 224.609 76.2408 224.202 76.2566C223.669 76.2427 223.14 76.3527 222.657 76.5777C222.173 76.8028 221.749 77.1368 221.417 77.5534C220.7 78.4174 219.943 79.702 219.146 81.4071C218.923 81.9016 218.583 82.3346 218.155 82.6689C217.804 82.9777 217.358 83.1584 216.891 83.1814C215.887 83.2136 214.909 82.8595 214.158 82.1922C213.428 81.5336 213.064 80.5666 213.064 79.2913C213.064 78.3608 213.132 77.1274 213.268 75.5911C213.405 74.0557 213.485 73.1083 213.507 72.7421C213.644 71.584 213.714 70.7978 213.714 70.3889C213.712 70.0407 213.684 69.6931 213.629 69.3493C213.583 69.1067 213.555 68.8613 213.543 68.6148C213.554 68.0656 213.774 67.5411 214.158 67.1477C214.742 66.563 215.409 66.0691 216.14 65.6825C216.751 65.3036 217.391 64.9729 218.054 64.6934C218.472 64.5112 218.876 64.3004 219.265 64.0626C219.528 63.8923 219.66 63.7166 219.66 63.5334C219.66 63.3067 219.43 62.9877 218.976 62.5788C218.439 62.1107 217.854 61.699 217.233 61.3504C217.133 61.2882 217.031 61.2314 216.925 61.1802C216.79 61.1117 216.721 61.0433 216.721 60.9741C216.721 60.8611 217.085 60.8039 217.815 60.8039C218.902 60.7795 219.981 60.9949 220.974 61.4347C221.875 61.8564 222.7 62.6014 223.451 63.6696C223.726 64.06 223.881 64.5225 223.896 64.9998C223.901 65.5321 223.699 66.0456 223.332 66.4318C223.171 66.6229 222.969 66.7767 222.742 66.8828C222.515 66.9888 222.268 67.0445 222.017 67.0461C221.78 67.05 221.546 66.9974 221.333 66.8926C221.127 66.7908 220.855 66.6373 220.512 66.432C220.178 66.2022 219.824 66.0028 219.455 65.8363C219.118 65.703 218.757 65.6388 218.395 65.6475C217.77 65.6491 217.157 65.8135 216.616 66.1244C216.401 66.2281 216.214 66.3802 216.069 66.5685C215.939 66.734 215.868 66.9375 215.865 67.1475C215.902 67.5367 216.031 67.9116 216.241 68.241C216.392 68.5157 216.522 68.8007 216.632 69.0939C216.716 69.3468 216.757 69.6119 216.753 69.8783C216.699 70.5537 216.608 71.2257 216.48 71.8912C216.221 73.2529 216.073 74.6332 216.036 76.0188C216.035 76.6377 216.098 77.2551 216.223 77.8615C216.349 78.474 216.536 78.781 216.788 78.781C217.06 78.781 217.629 78.4628 218.494 77.8265C219.502 77.1217 220.558 76.4892 221.655 75.9339C222.617 75.4632 223.676 75.2233 224.747 75.2332C225.799 75.2503 226.831 75.5177 227.757 76.0133C228.684 76.5088 229.479 77.2181 230.076 78.0822C230.691 78.9799 231.014 80.0453 231 81.133C231 83.1126 230.055 84.8642 228.164 86.388C226.273 87.9117 222.561 88.9125 217.028 89.3905C216.688 89.4319 216.345 89.4542 216.002 89.4571C215.729 89.4571 215.592 89.3905 215.592 89.2535" fill="#FFF9B6"/>
<path d="M26.9734 80.5707C25.1669 78.9205 22.4433 77.9917 22.4433 77.9917C22.1228 77.6957 22.3081 77.1628 22.3081 77.1628C22.3248 77.1148 22.8437 75.3664 22.824 73.9892C22.7962 72.4426 22.4571 71.4306 21.7271 70.9533C21.1871 70.5546 20.587 70.2441 19.9493 70.0334C19.5321 69.8784 19.1046 69.7529 18.6697 69.6579C18.2473 69.5672 17.9474 69.5118 17.7637 69.4877C17.5598 69.4877 17.4562 69.5338 17.4562 69.6245C17.4562 69.7393 17.547 69.8632 17.7305 69.9981C18.8236 70.7271 19.3702 71.876 19.3702 73.4448C19.3477 74.2171 19.2331 74.984 19.0286 75.7291C18.9601 76.0714 18.7766 76.2417 18.4821 76.2417C18.3547 76.2321 18.2287 76.2091 18.1061 76.1732C15.7826 75.3536 13.7669 74.8646 12.059 74.7062C11.892 74.698 11.7316 74.6386 11.5996 74.536C11.5525 74.4995 11.514 74.4531 11.4871 74.4C11.4602 74.3468 11.4455 74.2884 11.444 74.2289C11.4611 74.0841 11.5078 73.9443 11.5811 73.8182C13.0878 71.3616 14.9795 69.1623 17.184 67.3041C17.9806 66.5992 18.3789 65.9621 18.3789 65.3929C18.3789 64.688 17.7755 63.9264 16.5687 63.1081C15.7034 62.4939 14.9636 62.1868 14.3491 62.1868C14.0092 62.1957 13.6736 62.2655 13.3584 62.3928C12.9933 62.5278 12.7432 62.6195 12.6062 62.6649C12.356 62.7555 11.7983 63.0059 10.933 63.416C10.135 63.8026 9.49698 64.0869 9.019 64.269C8.56187 64.4473 8.07561 64.5395 7.58483 64.541C7.20989 64.5432 6.83623 64.4972 6.47304 64.4042C6.17201 64.3375 5.8877 64.2103 5.63739 64.0305C5.50395 63.9337 5.35288 63.8637 5.19263 63.8245C5.05745 63.8245 4.98872 63.9275 4.98872 64.1315C4.98025 64.4143 5.03865 64.6951 5.1592 64.9511C5.56704 65.7571 6.13615 66.4711 6.83132 67.0488C7.58353 67.6962 8.25551 68.02 8.84729 68.02C9.30312 68.02 9.81571 67.7129 10.3851 67.0986C10.4073 67.0764 10.7032 66.7236 11.2725 66.0404C11.3633 65.9276 11.5801 65.6666 11.9228 65.2573C12.212 64.9004 12.5318 64.5694 12.8788 64.2681C13.2678 63.9722 13.5625 63.8241 13.7681 63.8241C13.8572 63.8294 13.9441 63.8535 14.0232 63.8946C14.1024 63.9357 14.172 63.993 14.2275 64.0627C14.3701 64.2086 14.4499 64.4045 14.4498 64.6084C14.4311 64.9431 14.3251 65.2671 14.1423 65.5483C13.8285 66.0609 13.4864 66.5556 13.1176 67.0302C12.5247 67.827 12.1264 68.3845 11.9226 68.7027C10.8739 70.2938 9.73501 72.1698 8.50593 74.3307C8.41701 74.4791 8.2981 74.6074 8.15679 74.7075C8.01547 74.8075 7.85484 74.877 7.68514 74.9116C5.24897 75.411 3.30181 76.5136 1.84363 78.2194C0.613307 79.607 -0.00123644 81.0284 1.86763e-06 82.4837C1.86763e-06 83.5309 0.295819 84.3895 0.887455 85.0597C1.16451 85.3846 1.51076 85.6436 1.90089 85.8177C2.29103 85.9918 2.7152 86.0767 3.14241 86.0662C3.69079 86.0677 4.23267 85.9476 4.72897 85.7147C5.22527 85.4818 5.66361 85.1418 6.01239 84.7193C6.80903 83.8201 7.54892 82.5522 8.23205 80.9155C8.75641 79.5279 9.33759 78.1747 9.97559 76.8558C10.0465 76.7064 10.1574 76.5795 10.296 76.489C10.4347 76.3986 10.5956 76.3481 10.7611 76.3433H10.863C12.9585 76.5264 15.1448 77.1745 17.4219 78.2876C17.537 78.3378 17.6362 78.4184 17.7087 78.5208C17.7812 78.6232 17.8243 78.7435 17.8333 78.8685C17.8313 79.011 17.796 79.151 17.7301 79.2774C17.6512 79.4875 17.5596 79.6927 17.4558 79.8917C16.3644 82.1654 15.0092 83.9106 13.39 85.1273C11.8683 86.2978 10.1261 87.1505 8.26735 87.6344C8.06096 87.6806 7.88574 87.7251 7.73735 87.7713C7.58896 87.8174 7.51507 87.8731 7.51507 87.9415C7.51507 88.0563 7.68555 88.1117 8.02649 88.1117C10.3276 88.0725 12.5916 87.5253 14.656 86.5095C16.7495 85.4858 18.5717 83.8597 20.1225 81.631L20.4967 81.0519C20.538 80.9474 20.6082 80.8566 20.699 80.7902C20.7898 80.7238 20.8976 80.6843 21.0099 80.6764C21.1886 80.6847 21.3583 80.7569 21.4879 80.88C22.3994 81.5405 23.2993 82.2343 24.1874 82.9614C24.5845 83.2634 25.0136 83.5209 25.467 83.7293C25.8664 83.9289 26.3045 84.0394 26.7509 84.053C26.9462 84.0608 27.1407 84.0252 27.3204 83.9487C27.5002 83.8722 27.6607 83.7568 27.7903 83.6108C28.0555 83.3092 28.1965 82.9185 28.1849 82.5173C28.1847 82.0195 27.9884 81.5417 27.6384 81.1871C27.4279 80.9699 27.2058 80.7643 26.9732 80.5709M6.72937 77.4351L4.88388 80.7449C4.61101 81.2556 4.24679 81.7121 3.80924 82.0918C3.47611 82.3949 3.04609 82.5701 2.5957 82.5864C2.44013 82.5971 2.28425 82.5702 2.14134 82.5079C1.99843 82.4456 1.87272 82.3497 1.77491 82.2284C1.57951 81.9427 1.48377 81.6008 1.50248 81.2553C1.50323 80.6388 1.6807 80.0353 2.0139 79.5162C2.81054 78.1065 4.18844 77.1513 6.14757 76.6505C6.22917 76.6157 6.31739 76.5992 6.40606 76.6021C6.49473 76.605 6.5817 76.6272 6.66085 76.6672C6.72555 76.7016 6.77922 76.7536 6.81572 76.8171C6.85222 76.8806 6.87008 76.953 6.86723 77.0262C6.87077 77.1743 6.82228 77.3189 6.7302 77.4351" fill="#FFF9B6"/>
<path d="M14.5664 43.2457C14.5239 43.2791 14.4719 43.2568 14.4164 43.1791C14.3627 43.1088 14.359 43.0569 14.4034 43.0256L14.5091 42.946C14.6865 42.8113 14.8074 42.6155 14.8481 42.3966C14.8746 42.2845 14.8756 42.1678 14.8513 42.0552C14.8269 41.9426 14.7778 41.8367 14.7074 41.7454L11.4703 37.4032C11.4221 37.3236 11.3537 37.2582 11.272 37.2135C11.1904 37.1688 11.0984 37.1464 11.0053 37.1487C10.7801 37.1849 10.5692 37.2822 10.3956 37.43L10.2881 37.5077C10.2509 37.5373 10.2055 37.5151 10.1529 37.4448C10.0955 37.369 10.0862 37.3172 10.125 37.2876L11.637 36.1646C11.6775 36.1276 11.7293 36.1052 11.7841 36.1012C11.8389 36.0972 11.8934 36.1117 11.939 36.1424L16.8544 39.0728C16.9434 39.1245 17.01 39.1346 17.0527 39.1025C17.1083 39.0613 17.1194 38.9994 17.088 38.9119L15.7251 33.3294C15.71 33.2772 15.7121 33.2214 15.7311 33.1705C15.7502 33.1195 15.7851 33.0759 15.8307 33.0463L17.2851 31.964C17.2946 31.9567 17.306 31.9524 17.3179 31.9518C17.3298 31.9511 17.3416 31.9541 17.3518 31.9603C17.382 31.9801 17.4079 32.0059 17.4277 32.0361C17.4814 32.1064 17.4897 32.1564 17.45 32.1841L17.3369 32.271C17.1416 32.3938 16.989 32.5737 16.8996 32.7862C16.8788 32.8846 16.882 32.9866 16.9091 33.0835C16.9362 33.1803 16.9863 33.2692 17.0552 33.3426L20.3347 37.7422C20.3859 37.8313 20.4582 37.9064 20.5453 37.9611C20.6325 38.0157 20.7317 38.0481 20.8343 38.0554C21.0613 38.0304 21.2753 37.937 21.4477 37.7875L21.5627 37.7024C21.6017 37.6746 21.6452 37.695 21.6997 37.7671C21.7547 37.8429 21.764 37.8947 21.7276 37.9225L19.3151 39.7154C19.2836 39.7395 19.2373 39.7135 19.1818 39.6377C19.1281 39.5674 19.1189 39.5192 19.1521 39.4953L19.2817 39.3972C19.4749 39.2755 19.6257 39.0971 19.7135 38.8865C19.7357 38.7863 19.7331 38.6823 19.706 38.5833C19.6789 38.4844 19.628 38.3935 19.5578 38.3186L16.6538 34.4245C16.6278 34.385 16.5912 34.3535 16.5481 34.3339C16.5331 34.3272 16.5166 34.3247 16.5003 34.3267C16.4839 34.3286 16.4685 34.3349 16.4555 34.345C16.4165 34.3747 16.4074 34.4357 16.4276 34.5305L17.9266 40.5469C17.9582 40.658 17.9507 40.7324 17.9006 40.767C17.8504 40.8016 17.7782 40.7911 17.6802 40.728L12.4174 37.5866C12.3303 37.5404 12.2692 37.5311 12.2316 37.5588C12.2181 37.5686 12.2073 37.5818 12.2005 37.597C12.1936 37.6123 12.1909 37.6291 12.1926 37.6457C12.1985 37.693 12.2185 37.7374 12.25 37.7733L15.031 41.5033C15.0981 41.5975 15.186 41.6752 15.2878 41.7303C15.3896 41.7855 15.5027 41.8167 15.6184 41.8215C15.8382 41.8451 16.0591 41.7872 16.239 41.6587L16.3539 41.5736C16.3855 41.5495 16.428 41.5736 16.4817 41.6438C16.5391 41.7197 16.5502 41.7695 16.5188 41.7937L14.5664 43.2457Z" fill="white"/>
<path d="M22.9985 37.1001C22.9595 37.1279 22.9133 37.1001 22.8596 37.0224C22.8097 36.9484 22.806 36.9002 22.8448 36.8725L22.9707 36.7874C23.1689 36.6737 23.3274 36.5019 23.4247 36.2953C23.452 36.198 23.4549 36.0956 23.4333 35.9969C23.4117 35.8982 23.3663 35.8063 23.3009 35.7292L20.2286 31.1817C20.1801 31.0901 20.1093 31.0122 20.0228 30.955C19.9362 30.8978 19.8367 30.8632 19.7333 30.8543C19.5058 30.8694 19.288 30.9517 19.1076 31.0908L18.9817 31.1778C18.9427 31.2038 18.8991 31.1815 18.8483 31.1075C18.7947 31.0298 18.7891 30.9763 18.8277 30.9503L21.3328 29.2567C21.3431 29.2477 21.3559 29.2421 21.3696 29.2408C21.3832 29.2395 21.3969 29.2424 21.4088 29.2493C21.4377 29.271 21.4622 29.298 21.481 29.3289C21.5309 29.401 21.5309 29.4525 21.4884 29.4843L21.3697 29.5638C21.1697 29.678 21.0094 29.8506 20.9103 30.0584C20.8856 30.1575 20.8849 30.2612 20.9085 30.3606C20.932 30.46 20.979 30.5524 21.0455 30.63L24.1268 35.1712C24.1739 35.2617 24.2427 35.3392 24.3271 35.3967C24.4115 35.4542 24.5088 35.49 24.6104 35.5009C24.8375 35.4826 25.054 35.3977 25.2328 35.2567L25.3515 35.1771C25.3609 35.1686 25.3725 35.163 25.385 35.161C25.3975 35.159 25.4104 35.1608 25.4219 35.166C25.4507 35.1858 25.4747 35.2117 25.4923 35.2419C25.5459 35.3195 25.5496 35.375 25.5053 35.4047L22.9985 37.1001Z" fill="white"/>
<path d="M31.1087 23.1433C31.1195 23.1351 31.1326 23.1304 31.1461 23.1297C31.1597 23.1291 31.1731 23.1325 31.1847 23.1396C31.2121 23.1629 31.2353 23.1908 31.2532 23.222C31.2996 23.296 31.2996 23.3478 31.2532 23.3774L31.1308 23.4514C30.9619 23.5681 30.8362 23.7371 30.7731 23.9323C30.6853 24.1821 30.6705 24.4517 30.7306 24.7095C30.7719 24.8926 31.0053 25.7602 31.4309 27.3124C31.8565 28.8646 32.1935 30.0899 32.4422 30.9884C32.4643 31.0393 32.466 31.0968 32.4468 31.1488C32.4275 31.2009 32.3889 31.2435 32.339 31.2679L32.2001 31.3503C32.155 31.3842 32.099 31.4001 32.0428 31.3949C31.9866 31.3898 31.9344 31.364 31.8963 31.3225L31.6899 31.1244L28.1052 27.7944C28.0293 27.7223 27.9663 27.7019 27.9124 27.7326C27.8662 27.7623 27.8569 27.8289 27.8809 27.9325L29.2612 32.9332C29.2835 32.984 29.2852 33.0416 29.266 33.0937C29.2467 33.1458 29.208 33.1884 29.158 33.2126L29.0117 33.3033C28.9662 33.3364 28.9101 33.3517 28.8541 33.3462C28.7981 33.3407 28.746 33.3149 28.7079 33.2736C25.8079 30.4822 24.1988 28.9568 23.8807 28.6973C23.716 28.5458 23.5081 28.4494 23.2859 28.4215C23.1035 28.4158 22.9236 28.4655 22.77 28.5639L22.6385 28.6435C22.5995 28.6676 22.556 28.6435 22.5089 28.5676C22.4608 28.4852 22.4552 28.4345 22.4959 28.4085L24.9818 26.8898C24.9924 26.8814 25.0054 26.8763 25.0189 26.8753C25.0324 26.8744 25.046 26.8774 25.0577 26.8842C25.0848 26.9079 25.1079 26.9357 25.1263 26.9666C25.1726 27.0425 25.1726 27.0943 25.1263 27.122L25.0039 27.1978C24.8342 27.2912 24.6943 27.4303 24.6 27.5993C24.5641 27.6678 24.5475 27.7447 24.5517 27.8219C24.5559 27.899 24.581 27.9736 24.6241 28.0378C24.6579 28.0894 24.6957 28.1383 24.7372 28.1839L28.1886 31.5143C28.259 31.5902 28.3219 31.6124 28.3721 31.5809C28.4313 31.5457 28.4462 31.4779 28.4146 31.3748L27.2176 27.0845C27.2057 27.0379 27.1863 26.9936 27.1602 26.9532C27.1383 26.9096 27.1066 26.8716 27.0675 26.8422L26.999 26.7886C26.8381 26.6326 26.629 26.5358 26.4058 26.5141C26.2033 26.5154 26.0056 26.5759 25.837 26.688L25.7 26.7731C25.6587 26.7991 25.6148 26.7731 25.5685 26.6973C25.5186 26.6149 25.5149 26.5642 25.5555 26.5382L28.0068 25.0396C28.0172 25.0314 28.03 25.0267 28.0432 25.026C28.0565 25.0254 28.0696 25.0288 28.0809 25.0359C28.1088 25.0587 28.1321 25.0867 28.1494 25.1183C28.1957 25.1942 28.1957 25.2459 28.1494 25.2737L28.027 25.3477C27.8872 25.43 27.7771 25.5543 27.7125 25.703C27.6839 25.7714 27.6725 25.8458 27.6793 25.9196C27.6861 25.9935 27.7109 26.0645 27.7515 26.1267C27.7808 26.1781 27.8176 26.2248 27.8609 26.2653C28.1165 26.5126 29.2899 27.6282 31.3812 29.612C31.4637 29.6805 31.533 29.699 31.5832 29.6656C31.6369 29.6341 31.648 29.5694 31.6166 29.4676L30.3684 24.9341C30.348 24.8646 30.3188 24.798 30.2813 24.736C30.2373 24.6573 30.1756 24.5899 30.101 24.5392C30.0263 24.4885 29.9409 24.4558 29.8514 24.4438C29.6644 24.4173 29.4741 24.4594 29.3159 24.5623L29.1844 24.6419C29.1431 24.6678 29.1018 24.6419 29.0548 24.5679C29.0048 24.4855 29.0011 24.4329 29.0418 24.4088L31.1087 23.1433Z" fill="white"/>
<path d="M42.0473 25.4578C42.0684 25.4834 42.087 25.511 42.1028 25.5402C42.1441 25.6179 42.1472 25.6659 42.1121 25.6844L39.4275 27.1247C39.3849 27.147 39.3449 27.1192 39.3016 27.0423C39.2828 27.011 39.2702 26.9765 39.2644 26.9405C39.2632 26.9286 39.2657 26.9167 39.2717 26.9064C39.2777 26.8961 39.2869 26.888 39.2978 26.8832C39.5016 26.7805 39.6824 26.6377 39.8295 26.4634C39.8877 26.4003 39.9241 26.3202 39.9334 26.2349C39.9428 26.1496 39.9245 26.0636 39.8813 25.9894C39.8313 25.9015 39.766 25.8232 39.6885 25.7582L38.6153 24.7759C38.5785 24.7339 38.528 24.7063 38.4728 24.6978C38.4176 24.6894 38.3611 24.7007 38.3134 24.7297L36.2312 25.8483C36.1814 25.8708 36.1409 25.9097 36.1163 25.9584C36.0917 26.0072 36.0845 26.0628 36.096 26.1162C36.1831 26.6932 36.2479 27.0967 36.2869 27.3298C36.3066 27.4679 36.3479 27.6021 36.4093 27.7275C36.6058 28.0921 36.9929 28.1178 37.5747 27.807C37.5856 27.8007 37.5984 27.7989 37.6106 27.802C37.6227 27.8052 37.6331 27.813 37.6395 27.8237C37.6616 27.8476 37.6802 27.8744 37.6951 27.9033C37.7376 27.981 37.7394 28.029 37.7043 28.0494L35.468 29.2486C35.4267 29.2708 35.3854 29.243 35.3441 29.1661C35.2979 29.0837 35.2979 29.0293 35.3386 29.007C35.533 28.8984 35.6875 28.7305 35.7796 28.5279C35.8951 28.2626 35.9324 27.9699 35.8871 27.6842C35.8556 27.3938 35.5709 25.2368 35.0329 21.2134C35.0252 21.1636 35.0299 21.1127 35.0467 21.0652C35.0636 21.0178 35.0919 20.9752 35.1293 20.9414L35.3109 20.7637C35.3417 20.7255 35.3794 20.6935 35.4221 20.6693C35.4463 20.6527 35.4756 20.6454 35.5047 20.6487C35.5341 20.6531 35.5614 20.6668 35.5825 20.6877L36.496 21.5258C37.0111 21.9957 37.6633 22.5945 38.4525 23.3222C39.2417 24.0499 39.9347 24.6814 40.5314 25.2167C40.739 25.4208 41.004 25.557 41.2911 25.607C41.5334 25.6223 41.7748 25.5649 41.9841 25.4421C41.9952 25.4367 42.0077 25.4355 42.0196 25.4385C42.0315 25.4416 42.0419 25.4488 42.0489 25.4588M36.0031 25.3588C36.0125 25.3782 36.0263 25.3951 36.0433 25.4083C36.0604 25.4214 36.0802 25.4305 36.1014 25.4347C36.1519 25.4404 36.2029 25.4286 36.2458 25.4013L37.9522 24.4873C38.0653 24.4255 38.0967 24.3487 38.0449 24.2524L37.9875 24.1896L35.7941 22.177C35.7401 22.1168 35.6728 22.0699 35.5976 22.0402C35.5357 22.0179 35.5086 22.0253 35.5123 22.0624C35.5939 22.6585 35.7486 23.7271 35.9765 25.2682C35.9807 25.2995 35.9894 25.3301 36.0025 25.3588" fill="white"/>
<path d="M45.0035 24.33C44.7098 24.4036 44.4105 24.4531 44.1086 24.478C44.0226 24.489 43.9389 24.514 43.861 24.552C43.7283 24.6294 43.6233 24.7466 43.5609 24.8868C43.542 24.9372 43.5059 24.9791 43.4589 25.0053C43.3904 25.0369 43.3275 25.0146 43.268 24.9388L42.1535 23.5642C42.1164 23.5218 42.1017 23.5024 42.1036 23.5088C42.101 23.5009 42.1002 23.4925 42.1011 23.4842C42.1021 23.4759 42.1048 23.4679 42.1092 23.4608C42.1181 23.4428 42.1294 23.426 42.1426 23.4109C42.1524 23.4015 42.16 23.3901 42.1649 23.3775C42.1792 23.362 42.197 23.3499 42.2167 23.3423C42.2394 23.3346 42.2638 23.3328 42.2874 23.337C42.311 23.3412 42.3332 23.3513 42.3519 23.3664C43.4747 24.1157 44.55 24.2439 45.5777 23.7511C45.9603 23.573 46.2832 23.2885 46.5078 22.9316C46.6166 22.7486 46.6744 22.5399 46.675 22.3271C46.6757 22.1144 46.6192 21.9053 46.5116 21.7217C46.4068 21.5018 46.24 21.3172 46.0317 21.1906C45.8009 21.0521 45.5356 20.9816 45.2664 20.987C44.8089 20.9949 44.3525 21.0362 43.901 21.1107C43.571 21.1692 43.2373 21.2051 42.9023 21.218C42.4616 21.2453 42.022 21.1491 41.633 20.9405C41.328 20.7516 41.0843 20.4785 40.9313 20.1543C40.8072 19.8806 40.7386 19.5851 40.7293 19.2848C40.719 18.9246 40.8121 18.5689 40.9976 18.2598C41.2472 17.863 41.6134 17.5529 42.0462 17.3718C42.237 17.2814 42.4371 17.212 42.6429 17.1647C42.8503 17.1204 43.0895 17.0796 43.3599 17.0462C43.4561 17.0336 43.5503 17.0081 43.6397 16.9704C43.7589 16.9106 43.8547 16.813 43.9121 16.6928C43.9387 16.6422 43.9753 16.5975 44.0197 16.5615C44.0752 16.5355 44.1309 16.5578 44.1883 16.6281L45.213 17.7733L45.2464 17.8194C45.2558 17.8297 45.2622 17.8425 45.2648 17.8562C45.2675 17.8699 45.2662 17.884 45.2613 17.8971L45.2188 17.9507C45.1978 17.9734 45.1735 17.9928 45.1465 18.008C45.1272 18.0151 45.1065 18.0177 45.0859 18.0158C45.0654 18.0139 45.0456 18.0074 45.0279 17.9968C44.8262 17.8764 44.6142 17.7743 44.3943 17.6916C44.0592 17.5655 43.7069 17.4906 43.3493 17.4697C42.9358 17.4408 42.522 17.5225 42.1507 17.7065C41.8357 17.8321 41.5752 18.0647 41.4151 18.3633C41.3072 18.5777 41.2629 18.8184 41.2874 19.0571C41.3049 19.2163 41.3455 19.372 41.4079 19.5196C41.6099 19.9414 42.012 20.1596 42.614 20.1708C42.8054 20.1753 42.9968 20.1648 43.1865 20.1392C43.4066 20.1133 43.6253 20.0818 43.8424 20.0448C44.3283 19.9641 44.8192 19.9171 45.3116 19.9043C46.2325 19.9228 46.8767 20.3138 47.2442 21.0773C47.4092 21.4126 47.4723 21.7889 47.4258 22.1596C47.3701 22.5488 47.2043 22.9139 46.9479 23.2123C46.6419 23.5679 46.2614 23.8521 45.8334 24.0448C45.5673 24.168 45.2892 24.2635 45.0035 24.33Z" fill="white"/>
<path d="M55.7299 19.2764C55.7484 19.3032 55.7645 19.3317 55.7779 19.3615C55.8114 19.4439 55.8114 19.4909 55.7724 19.5076L52.9693 20.6991C52.9248 20.7177 52.8859 20.6862 52.8524 20.6047C52.8368 20.5724 52.8274 20.5375 52.8246 20.5017C52.8243 20.4898 52.8277 20.478 52.8344 20.4681C52.841 20.4582 52.8506 20.4505 52.8617 20.4463C53.0745 20.3636 53.2681 20.2383 53.4305 20.078C53.494 20.0205 53.5375 19.9443 53.5545 19.8604C53.5715 19.7766 53.5612 19.6895 53.525 19.6119C53.4826 19.5199 53.4243 19.4362 53.3527 19.3646L52.3726 18.2878C52.3394 18.2431 52.2916 18.2114 52.2375 18.1983C52.1833 18.1851 52.1263 18.1913 52.0762 18.2157L49.9009 19.1408C49.8494 19.1589 49.8057 19.1942 49.777 19.2406C49.7484 19.2871 49.7365 19.342 49.7435 19.3961C49.7788 19.9789 49.8054 20.3853 49.826 20.6227C49.8319 20.7612 49.8598 20.898 49.9086 21.0278C50.0716 21.4088 50.4551 21.4701 51.0629 21.2133C51.087 21.2022 51.1073 21.2096 51.1258 21.2355C51.1451 21.262 51.1612 21.2905 51.1739 21.3206C51.2092 21.4031 51.2074 21.4501 51.1702 21.4668L48.8337 22.4568C48.7911 22.4753 48.7521 22.4438 48.7169 22.3624C48.6798 22.2754 48.6835 22.2218 48.7262 22.2033C48.9301 22.1132 49.0996 21.9602 49.2098 21.7666C49.349 21.5128 49.4127 21.2246 49.3932 20.9359C49.3877 20.6435 49.2988 18.4697 49.1264 14.4144C49.1239 14.3642 49.1337 14.3142 49.155 14.2687C49.1764 14.2232 49.2086 14.1837 49.2488 14.1535L49.4452 13.9907C49.4799 13.9568 49.52 13.9289 49.5639 13.9082C49.5888 13.8937 49.6183 13.8891 49.6465 13.8953C49.6749 13.9026 49.7007 13.918 49.7206 13.9396L50.5568 14.8556C51.0274 15.3717 51.6227 16.0273 52.3429 16.8222C53.0618 17.619 53.6936 18.311 54.2383 18.898C54.4284 19.1185 54.6798 19.2775 54.9607 19.3549C55.2002 19.3912 55.4452 19.3558 55.6646 19.2531C55.6763 19.248 55.6894 19.2474 55.7014 19.2516C55.7134 19.2557 55.7234 19.2642 55.7294 19.2753M49.7175 18.6307C49.7247 18.6508 49.7368 18.6688 49.7526 18.6832C49.7685 18.6975 49.7876 18.7078 49.8083 18.7131C49.8577 18.7238 49.9094 18.7172 49.9546 18.6946L51.7369 17.936C51.8556 17.888 51.8944 17.8124 51.8519 17.7122L51.8019 17.6457L49.8 15.4441C49.7523 15.3783 49.6894 15.325 49.6165 15.2888C49.5592 15.2628 49.5294 15.2682 49.5294 15.3036C49.557 15.9049 49.6144 16.9829 49.7018 18.5376C49.7033 18.569 49.7089 18.6001 49.7185 18.6301" fill="white"/>
<path d="M63.8931 16.3532C63.9265 16.442 63.9191 16.4956 63.8745 16.5123L60.9009 17.6029C60.8547 17.6196 60.8184 17.5823 60.7841 17.4937C60.7499 17.405 60.7581 17.3513 60.8027 17.3346C61.2807 17.1588 61.4845 16.9757 61.4142 16.7852C61.3472 16.6609 61.2455 16.5588 61.1216 16.4911L58.283 14.8219C58.2576 14.8059 58.2291 14.7955 58.1994 14.7914C58.1697 14.7872 58.1394 14.7894 58.1106 14.7977C58.0835 14.8087 58.0588 14.825 58.0381 14.8457C58.0174 14.8664 58.0011 14.891 57.9901 14.9181C57.9216 15.0809 57.8493 15.2381 57.7734 15.388L57.677 15.5984C57.6554 15.6427 57.643 15.691 57.6405 15.7403C57.6379 15.7896 57.6453 15.8388 57.6622 15.8852L58.2662 17.5281C58.2902 17.6274 58.3381 17.7193 58.406 17.7958C58.4738 17.8723 58.5594 17.9309 58.6553 17.9666C58.8767 18.0038 59.1041 17.9751 59.3093 17.8842L59.4631 17.8269C59.5074 17.812 59.5456 17.8491 59.578 17.9361C59.6115 18.0268 59.6059 18.0785 59.5613 18.0952L56.7115 19.1394C56.6653 19.1561 56.629 19.1208 56.5947 19.0302C56.5802 18.9969 56.5726 18.961 56.5724 18.9247C56.5724 18.913 56.5761 18.9016 56.5832 18.8922C56.5902 18.8829 56.6002 18.8761 56.6115 18.8729L56.7559 18.8194C56.9747 18.7561 57.1699 18.63 57.3173 18.4567C57.3676 18.3678 57.3951 18.268 57.3974 18.166C57.3997 18.064 57.3766 17.963 57.3303 17.872L55.4404 12.7324C55.4165 12.6318 55.3683 12.5385 55.2999 12.4608C55.2316 12.383 55.1452 12.3232 55.0483 12.2865C54.8234 12.2495 54.5927 12.2798 54.385 12.3735L54.2405 12.4252C54.1961 12.4419 54.158 12.4085 54.1274 12.3252C54.0958 12.2364 54.1014 12.1847 54.146 12.1661L56.9959 11.1213C57.0083 11.1154 57.0221 11.1133 57.0356 11.1153C57.0492 11.1173 57.0618 11.1232 57.0719 11.1325C57.0935 11.161 57.1104 11.1929 57.1218 11.2268C57.1534 11.3093 57.1425 11.3618 57.0921 11.3804L56.9384 11.4358C56.7199 11.4971 56.5261 11.6252 56.3844 11.8022C56.336 11.8922 56.3101 11.9926 56.3087 12.0947C56.3074 12.1969 56.3308 12.2979 56.3768 12.3891L57.2977 14.8923C57.3114 14.9376 57.3393 14.9772 57.3773 15.0053C57.3907 15.0166 57.4069 15.0241 57.4242 15.027C57.4415 15.03 57.4592 15.0282 57.4756 15.022C57.5007 15.009 57.5229 14.9913 57.541 14.9697C57.5592 14.9481 57.5728 14.9231 57.5813 14.8963C57.8666 14.2949 58.1637 13.6462 58.4724 12.9501C58.7812 12.2539 59.0079 11.7387 59.1525 11.4045C59.204 11.292 59.215 11.1652 59.1836 11.0455C59.1605 10.9878 59.1217 10.9376 59.0716 10.9007C59.0215 10.8638 58.9621 10.8416 58.9 10.8365C58.7138 10.8164 58.5255 10.8448 58.3535 10.919C58.3092 10.9338 58.271 10.8984 58.2367 10.8079C58.207 10.7255 58.2144 10.6766 58.259 10.6599L60.8512 9.70908C60.8626 9.70322 60.8754 9.70064 60.8881 9.70162C60.9009 9.7026 60.9131 9.70711 60.9234 9.71464C60.9464 9.74096 60.9634 9.77188 60.9734 9.80532C61.0067 9.89407 60.9974 9.94772 60.9455 9.96626C60.4122 10.1879 59.9866 10.6088 59.7596 11.1393C59.7096 11.2373 59.3248 12.0612 58.6053 13.6109C58.589 13.6379 58.5788 13.6682 58.5756 13.6995C58.5724 13.7309 58.5762 13.7626 58.5868 13.7923C58.5938 13.8154 58.6058 13.8368 58.6217 13.855C58.6377 13.8732 58.6574 13.8878 58.6794 13.8978C60.5193 15.0022 61.66 15.6823 62.1015 15.938C62.3844 16.1107 62.69 16.2433 63.0096 16.332C63.2684 16.3764 63.5345 16.3462 63.7767 16.245C63.8211 16.2283 63.8593 16.2656 63.8935 16.3543" fill="white"/>
<path d="M66.171 15.262C65.8751 15.1152 65.6144 14.9063 65.4069 14.6495C65.1994 14.3928 65.0499 14.0943 64.9686 13.7745L63.7303 9.7803C63.7116 9.67942 63.6678 9.58487 63.6028 9.50536C63.5379 9.42584 63.454 9.36391 63.3588 9.32528C63.1348 9.27799 62.9018 9.2966 62.6881 9.37886L62.551 9.42131C62.5067 9.43429 62.4695 9.39905 62.4435 9.3158C62.4156 9.22513 62.4249 9.17155 62.4695 9.15856L65.3521 8.26687C65.3632 8.26271 65.3753 8.26227 65.3867 8.26561C65.398 8.26896 65.408 8.27591 65.415 8.28541C65.4363 8.31436 65.4519 8.34699 65.4613 8.38165C65.4873 8.46676 65.478 8.51663 65.4334 8.52961L65.2976 8.57268C65.0743 8.62461 64.8713 8.74109 64.7139 8.90756C64.6573 8.99309 64.6232 9.09151 64.6147 9.19372C64.6063 9.29592 64.6239 9.39859 64.6659 9.4922L65.7764 13.0788C65.9368 13.659 66.2357 14.1917 66.6473 14.6314C67.0253 15.0107 67.5744 15.0896 68.2945 14.8681C69.0541 14.6332 69.5007 14.2496 69.6341 13.7174C69.7629 13.0949 69.7174 12.4491 69.5027 11.8508L68.4575 8.47768C68.4252 8.36683 68.3683 8.26468 68.291 8.17883C68.2136 8.09299 68.1179 8.02566 68.0109 7.98186C67.8107 7.88711 67.5827 7.86872 67.3699 7.93013L67.2347 7.97259C67.1885 7.98557 67.1532 7.95198 67.1272 7.86708C67.0975 7.7764 67.1066 7.72468 67.1532 7.70984L69.4897 6.98857C69.502 6.9827 69.5158 6.98097 69.5292 6.98365C69.5426 6.98632 69.5547 6.99326 69.5638 7.0034C69.5847 7.03231 69.5997 7.065 69.6081 7.09964C69.636 7.18475 69.6211 7.23462 69.5691 7.24946L69.4432 7.28841C69.2335 7.35778 69.0559 7.5003 68.943 7.68985C68.8784 7.7868 68.8369 7.89727 68.8218 8.01275C68.8067 8.12823 68.8184 8.24562 68.8559 8.35589L69.9703 12.0154C70.2124 12.794 70.1958 13.4703 69.9206 14.0445C69.6454 14.6186 69.1295 15.0232 68.3727 15.2582C67.4833 15.5321 66.7496 15.5333 66.1716 15.262" fill="white"/>
<path d="M79.7616 11.8573C79.7857 11.9499 79.7746 11.9997 79.7281 12.0127L78.0199 12.4475C77.9692 12.4626 77.9152 12.4626 77.8645 12.4475C77.8138 12.4324 77.7686 12.4028 77.7345 12.3624C77.3767 11.9778 76.9314 11.5115 76.3985 10.9638C75.8657 10.416 75.4185 9.98251 75.0571 9.66323C75.0228 9.62854 74.9797 9.60384 74.9324 9.59178C74.8851 9.57973 74.8355 9.58077 74.7888 9.59481L74.6406 9.63376L74.2051 9.74483C74.1765 9.749 74.1492 9.7595 74.1253 9.77557C74.1013 9.79164 74.0812 9.81286 74.0665 9.83769C74.0519 9.86251 74.0429 9.8903 74.0404 9.91902C74.0379 9.94775 74.0418 9.97667 74.052 10.0037L74.6393 12.3014C74.6531 12.4041 74.6924 12.5017 74.7538 12.5853C74.8152 12.6688 74.8966 12.7356 74.9906 12.7795C75.2074 12.8406 75.4374 12.8368 75.6521 12.7684L75.7984 12.7295C75.8446 12.7183 75.8809 12.7554 75.9003 12.8424C75.9244 12.9331 75.9133 12.9849 75.8669 12.9978L72.934 13.7427C72.8877 13.7557 72.8543 13.7149 72.8308 13.6224C72.8085 13.5373 72.8215 13.4893 72.8679 13.4763L73.0143 13.4392C73.241 13.3978 73.4501 13.2895 73.6146 13.1284C73.6749 13.0446 73.7134 12.9471 73.7266 12.8447C73.7399 12.7424 73.7275 12.6383 73.6906 12.5419L72.3355 7.2379C72.3209 7.13468 72.2802 7.03685 72.2174 6.95362C72.1545 6.87038 72.0715 6.80447 71.9761 6.76207C71.7581 6.70098 71.5269 6.70484 71.311 6.7732L71.1646 6.81214C71.1184 6.82327 71.0821 6.78618 71.0627 6.70107C71.0512 6.66651 71.0468 6.63 71.0497 6.5937C71.0517 6.58199 71.0571 6.57114 71.0654 6.56258C71.0736 6.55401 71.0843 6.54813 71.0959 6.54569L73.4138 5.94456L74.4014 5.69294C74.8115 5.59126 75.2372 5.56867 75.6558 5.62638C76.0376 5.67205 76.4009 5.81615 76.71 6.04451C77.0026 6.26239 77.2092 6.57605 77.2936 6.93064C77.3468 7.12365 77.3577 7.32582 77.3256 7.52341C77.2936 7.72101 77.2193 7.9094 77.1079 8.07581C76.8486 8.46003 76.5038 8.77917 76.1005 9.00831C76.0154 9.0656 75.982 9.12667 76.0004 9.19151C76.0155 9.23453 76.0433 9.27196 76.0801 9.29888C76.2394 9.43214 76.4451 9.61961 76.6972 9.86127C76.9473 10.1018 77.1197 10.2683 77.2131 10.3645C77.7727 10.9084 78.1699 11.2833 78.4046 11.4893C78.556 11.6235 78.7341 11.7243 78.9272 11.7852C79.1703 11.8366 79.4227 11.8232 79.659 11.7463C79.7052 11.7333 79.7387 11.7704 79.761 11.8573M73.9678 9.45241C73.9929 9.46659 74.0208 9.47525 74.0495 9.4778C74.0783 9.48036 74.1073 9.47676 74.1345 9.46725L74.2235 9.44499C75.1387 9.21144 75.7279 8.89016 75.9911 8.48117C76.1199 8.28805 76.2056 8.06964 76.2427 7.84064C76.2797 7.61165 76.2672 7.37738 76.206 7.15362C76.1642 6.93102 76.0663 6.72275 75.9213 6.54856C75.7764 6.37437 75.5893 6.24002 75.3778 6.15826C74.915 5.99811 74.4138 5.98586 73.9438 6.12323C73.7337 6.16782 73.5378 6.26313 73.3732 6.40081C73.3053 6.47423 73.2599 6.56544 73.2422 6.66374C73.2244 6.76204 73.2352 6.86335 73.2731 6.95578L73.8753 9.31269C73.8807 9.3408 73.8917 9.36755 73.9076 9.39137C73.9235 9.41519 73.944 9.43559 73.968 9.45138" fill="white"/>
<path d="M87.6786 10.1465C87.6927 10.1758 87.7027 10.207 87.7084 10.239C87.7269 10.3241 87.7139 10.3721 87.6749 10.3795L84.6904 10.9864C84.6442 10.9976 84.6107 10.9586 84.594 10.8717C84.5838 10.8368 84.5813 10.8002 84.5866 10.7643C84.5887 10.7525 84.5945 10.7417 84.6032 10.7334C84.6118 10.7252 84.6228 10.7198 84.6347 10.7181C84.8598 10.6791 85.0747 10.595 85.2664 10.4708C85.3397 10.4271 85.3972 10.3612 85.4306 10.2827C85.464 10.2042 85.4715 10.1172 85.4522 10.0342C85.429 9.93546 85.3889 9.84153 85.3335 9.75657L84.5887 8.50588C84.5654 8.45506 84.525 8.41404 84.4745 8.39003C84.424 8.36602 84.3667 8.36056 84.3125 8.37461L81.9965 8.84591C81.9421 8.85283 81.8918 8.87837 81.8542 8.91816C81.8165 8.95796 81.7939 9.00955 81.7901 9.06415C81.7067 9.64116 81.6511 10.0469 81.6233 10.2814C81.6027 10.4194 81.6027 10.5597 81.6233 10.6977C81.7067 11.1029 82.0713 11.2398 82.7172 11.1084C82.7294 11.1053 82.7425 11.107 82.7535 11.1132C82.7645 11.1195 82.7727 11.1297 82.7764 11.1418C82.7896 11.1721 82.7996 11.2038 82.8061 11.2362C82.8228 11.3213 82.8117 11.3693 82.7727 11.3767L80.2862 11.8837C80.2399 11.893 80.2084 11.854 80.1898 11.7671C80.1712 11.6745 80.1842 11.6228 80.2311 11.6135C80.4492 11.5657 80.6461 11.4489 80.7924 11.2805C80.9798 11.0605 81.1001 10.7915 81.1389 10.5052C81.1908 10.2167 81.5397 8.06879 82.1857 4.06141C82.1933 4.01198 82.2127 3.96511 82.2424 3.92484C82.2721 3.88457 82.3112 3.85209 82.3562 3.83019L82.5832 3.70984C82.6242 3.68347 82.6692 3.66411 82.7165 3.65255C82.7445 3.64367 82.7747 3.64498 82.8018 3.65626C82.8279 3.66966 82.8497 3.69017 82.8647 3.71541L83.4983 4.78103C83.8561 5.38044 84.3076 6.14204 84.8528 7.06581C85.3981 7.98959 85.8792 8.79329 86.2961 9.47692C86.4366 9.73175 86.6511 9.93815 86.9113 10.069C87.139 10.153 87.3866 10.1678 87.6227 10.1114C87.6288 10.1099 87.6351 10.1096 87.6413 10.1106C87.6475 10.1115 87.6535 10.1137 87.6588 10.117C87.6642 10.1203 87.6688 10.1246 87.6725 10.1297C87.6761 10.1348 87.6787 10.1406 87.6801 10.1467M81.9187 8.31135C81.922 8.33249 81.9303 8.35255 81.9428 8.36991C81.9554 8.38728 81.9719 8.40145 81.9909 8.41129C82.0379 8.4306 82.0898 8.4345 82.1391 8.42242L84.0364 8.03767C84.1623 8.00985 84.2143 7.94515 84.1938 7.83778L84.1567 7.76194L82.6375 5.20493C82.6028 5.13231 82.5521 5.06842 82.4893 5.01802C82.4375 4.97907 82.4078 4.97907 82.4004 5.01431C82.3058 5.60823 82.1459 6.67571 81.9205 8.21676C81.9153 8.24796 81.9147 8.27996 81.9187 8.31135Z" fill="white"/>
<path d="M91.5723 11.3434C91.4067 11.2935 91.256 11.2039 91.1331 11.0825C91.0398 10.9949 90.9763 10.8804 90.9515 10.755C90.9395 10.6939 90.9406 10.631 90.9549 10.5703C90.9691 10.5097 90.9961 10.4528 91.034 10.4034C91.0988 10.3171 91.1943 10.2588 91.3009 10.2406C91.4925 10.2224 91.6844 10.2715 91.8437 10.3793C91.8973 10.4127 91.9696 10.4644 92.0641 10.5366C92.1586 10.6087 92.2179 10.6569 92.2498 10.679C92.3034 10.7331 92.368 10.7751 92.4392 10.8022C92.5104 10.8293 92.5866 10.8409 92.6626 10.8362C92.7181 10.8265 92.7706 10.8041 92.816 10.7707C92.8613 10.7373 92.8983 10.6938 92.9239 10.6437C93.0907 10.3791 93.1085 9.79386 92.9776 8.88794L92.1438 3.15899C92.1413 3.05415 92.1119 2.95171 92.0584 2.86149C92.0049 2.77127 91.929 2.6963 91.8381 2.64379C91.6233 2.56365 91.3901 2.54572 91.1655 2.59207L91.0247 2.61268C90.9767 2.6201 90.9469 2.57929 90.9339 2.49233C90.9209 2.39794 90.9377 2.34807 90.9857 2.34065L93.9791 1.90439C94.0328 1.89697 94.0662 1.93963 94.0811 2.0338C94.0922 2.12262 94.0718 2.16879 94.0181 2.1762L93.8774 2.19681C93.6471 2.21431 93.4279 2.30217 93.2494 2.44843C93.1815 2.52494 93.1336 2.61691 93.1097 2.71627C93.0858 2.81562 93.0867 2.91932 93.1123 3.01824L93.9424 8.66641C94.0423 9.16974 93.9987 9.69097 93.8165 10.1708C93.6754 10.5224 93.4321 10.8239 93.1179 11.0363C92.853 11.2132 92.5527 11.3307 92.2379 11.3804C92.0162 11.4192 91.7886 11.4066 91.5727 11.3434" fill="white"/>
<path d="M101.493 8.15384C101.508 8.16552 101.519 8.18019 101.527 8.19682C101.535 8.21345 101.539 8.23163 101.54 8.25008C101.546 8.2739 101.544 8.29925 101.533 8.32139C101.522 8.34354 101.503 8.36097 101.48 8.37043L100.884 8.52766L100.137 8.73374L100.096 8.73745C99.9752 8.75229 99.9066 8.69129 99.8918 8.5561L99.8602 8.27295C99.8472 8.15817 99.8028 8.10459 99.7287 8.11386C99.701 8.11917 99.6749 8.13057 99.6522 8.14721C99.6294 8.16385 99.6107 8.18533 99.5973 8.2101C99.4485 8.41809 99.2578 8.5927 99.0375 8.72271C98.8171 8.85271 98.5719 8.93523 98.3177 8.96496C97.7489 9.02781 97.3246 8.92374 97.0381 8.65234C96.7471 8.37223 96.5658 7.99766 96.5267 7.59599C96.4637 7.09838 96.3722 6.30718 96.2524 5.22239C96.2245 5.02064 96.1504 4.89493 96.032 4.84691C95.8493 4.79043 95.6575 4.76944 95.4669 4.78509C95.4058 4.78509 95.3706 4.74436 95.3612 4.66289C95.3538 4.59632 95.3687 4.55367 95.4075 4.53532L96.3339 4.19859C96.4396 4.16521 96.5859 4.11616 96.7694 4.04692L96.8286 4.03023C96.9436 4.0191 97.0084 4.07824 97.0232 4.2157C97.04 4.43023 97.0918 4.92419 97.177 5.69204C97.2864 6.67626 97.3512 7.24236 97.3753 7.39032C97.5068 8.15446 97.8812 8.50046 98.4943 8.43369C98.7362 8.40504 98.9666 8.31438 99.163 8.17053C99.3828 8.00652 99.5598 7.79206 99.679 7.54529C99.7234 7.46192 99.7414 7.36709 99.7308 7.27327L99.4348 4.87927C99.4296 4.76452 99.3844 4.6552 99.3071 4.57015C99.2385 4.50707 99.1519 4.46694 99.0594 4.45537C98.9224 4.44002 98.7846 4.43259 98.6467 4.43311C98.5847 4.43311 98.5503 4.38324 98.5391 4.28144C98.5363 4.26319 98.5399 4.24451 98.5493 4.22864C98.5588 4.21276 98.5735 4.20068 98.5909 4.19447C98.6483 4.16851 98.9449 4.05949 99.4765 3.87258L99.9512 3.70607L100.009 3.68958C100.033 3.68559 100.058 3.68736 100.081 3.69474C100.104 3.70212 100.125 3.7149 100.143 3.73203C100.18 3.76948 100.202 3.81964 100.204 3.87258L100.644 7.7355C100.647 7.7951 100.663 7.85338 100.689 7.90691C100.716 7.96043 100.752 8.00811 100.798 8.0471C100.843 8.0861 100.896 8.11562 100.953 8.13392C101.009 8.15222 101.069 8.15892 101.129 8.15363C101.197 8.15335 101.265 8.14901 101.333 8.14065C101.387 8.12785 101.443 8.13239 101.494 8.15363" fill="white"/>
<path d="M108.256 7.74674C108.31 7.74303 108.341 7.78569 108.347 7.87245C108.352 7.95921 108.33 8.00743 108.275 8.01114L105.898 8.17785C105.849 8.18156 105.823 8.13891 105.815 8.05215C105.807 7.96539 105.83 7.91717 105.877 7.91346L106.02 7.90418C106.176 7.90107 106.329 7.86043 106.466 7.78569C106.523 7.74412 106.567 7.68701 106.592 7.62121C106.617 7.55541 106.623 7.48373 106.609 7.41475L106.468 5.55737L106.406 4.84888C106.336 4.03597 105.98 3.65246 105.336 3.69835C105.089 3.71684 104.851 3.80234 104.649 3.94564C104.42 4.10905 104.232 4.32304 104.1 4.57088C104.06 4.65481 104.042 4.74801 104.049 4.84105L104.23 7.58188C104.225 7.65321 104.242 7.72436 104.277 7.78659C104.312 7.84882 104.365 7.89943 104.428 7.93221C104.581 7.98499 104.743 8.00268 104.903 7.98394L105.024 7.97652C105.072 7.97281 105.098 8.01547 105.106 8.10222C105.115 8.18898 105.091 8.23721 105.044 8.24091L102.675 8.40578C102.621 8.40949 102.592 8.36683 102.584 8.28007C102.576 8.19331 102.602 8.14694 102.656 8.14323L102.778 8.13396C102.939 8.12993 103.097 8.08941 103.24 8.01547C103.298 7.97411 103.343 7.91682 103.369 7.85053C103.395 7.78424 103.402 7.71176 103.388 7.64185L103.137 4.52596C103.122 4.32235 103.057 4.19479 102.94 4.14306C102.757 4.07731 102.563 4.04533 102.368 4.04868C102.352 4.04992 102.336 4.04639 102.322 4.03851C102.308 4.03063 102.296 4.01876 102.289 4.00437C102.274 3.96916 102.266 3.9315 102.265 3.8933C102.262 3.87638 102.265 3.85909 102.273 3.84415C102.282 3.82922 102.295 3.81751 102.311 3.81087C102.585 3.70528 102.865 3.6169 103.15 3.54626C103.602 3.40572 103.79 3.35008 103.71 3.37419L103.772 3.35935C103.795 3.35692 103.819 3.35999 103.842 3.36831C103.864 3.37664 103.885 3.39 103.901 3.40737C103.936 3.44725 103.956 3.49845 103.957 3.55162L103.977 3.8255C103.978 3.86946 103.99 3.91256 104.011 3.95121C104.018 3.96373 104.028 3.97416 104.04 3.98141C104.053 3.98865 104.067 3.99246 104.081 3.99242C104.112 3.98759 104.141 3.97592 104.166 3.95828C104.191 3.94065 104.212 3.91752 104.227 3.89062C104.382 3.69147 104.576 3.52688 104.798 3.40749C105.02 3.28811 105.264 3.21659 105.516 3.19758C106.057 3.1587 106.475 3.27836 106.772 3.55657C107.066 3.83526 107.25 4.21011 107.291 4.61292C107.306 4.74605 107.33 5.01436 107.357 5.41394C107.395 5.96156 107.433 6.60782 107.472 7.35272C107.468 7.42364 107.483 7.49446 107.518 7.55662C107.552 7.61879 107.604 7.66964 107.667 7.70305C107.817 7.75602 107.977 7.77434 108.136 7.75663L108.256 7.74674Z" fill="white"/>
<path d="M118.207 7.47654C118.254 7.47654 118.28 7.51899 118.282 7.60781C118.283 7.69663 118.259 7.74094 118.213 7.74094L115.828 7.78895C115.78 7.79081 115.756 7.7465 115.754 7.65954C115.753 7.57257 115.777 7.52641 115.823 7.52455L115.945 7.5227C116.104 7.52682 116.262 7.49387 116.407 7.42646C116.466 7.38776 116.513 7.33273 116.541 7.26803C116.57 7.20333 116.579 7.13173 116.568 7.06191L116.547 5.60783C116.538 5.14539 116.523 4.77342 116.505 4.48862C116.493 4.18105 116.403 3.8816 116.242 3.61918C116.156 3.50409 116.042 3.41378 115.91 3.35753C115.778 3.30129 115.634 3.28113 115.491 3.29914C115.246 3.3062 115.006 3.379 114.798 3.50996C114.561 3.65977 114.361 3.86085 114.213 4.09831C114.17 4.15469 114.143 4.22203 114.137 4.29264C114.145 4.31929 114.149 4.34716 114.148 4.37507C114.157 4.49728 114.165 4.73777 114.174 5.09634C114.185 5.64575 114.189 6.31921 114.185 7.11281C114.177 7.18275 114.189 7.25359 114.22 7.31691C114.251 7.38022 114.299 7.43334 114.359 7.46994C114.506 7.53152 114.665 7.55812 114.824 7.54764L114.958 7.54393C115.004 7.54393 115.03 7.58638 115.032 7.67334C115.034 7.76031 115.009 7.80647 114.963 7.80832L112.578 7.85758C112.524 7.85758 112.495 7.81512 112.495 7.7263C112.495 7.63749 112.519 7.59318 112.573 7.59132L112.706 7.58947C112.866 7.59429 113.024 7.56131 113.168 7.49323C113.227 7.45453 113.274 7.3995 113.302 7.3348C113.331 7.2701 113.34 7.1985 113.329 7.12868L113.3 5.71519C113.289 5.22679 113.274 4.84012 113.256 4.55518C113.211 3.7486 112.873 3.3521 112.241 3.36571C111.992 3.37144 111.748 3.44496 111.537 3.57838C111.301 3.72758 111.102 3.92805 110.954 4.16487C110.909 4.24659 110.886 4.3383 110.887 4.43133L110.933 7.1769C110.925 7.24793 110.938 7.31985 110.97 7.38369C111.002 7.44752 111.053 7.50046 111.115 7.53589C111.264 7.59741 111.425 7.62338 111.585 7.61173L111.708 7.60987C111.761 7.60802 111.79 7.65232 111.79 7.74114C111.79 7.82996 111.766 7.87241 111.713 7.87427L109.337 7.92208C109.291 7.92393 109.265 7.87963 109.263 7.79266C109.262 7.7057 109.286 7.65954 109.332 7.65954L109.454 7.65583C109.615 7.66057 109.775 7.62761 109.921 7.55959C109.982 7.52197 110.03 7.4673 110.06 7.40245C110.089 7.3376 110.099 7.26545 110.088 7.19504L109.993 4.08327C110 4.00692 109.986 3.93022 109.953 3.86099C109.92 3.79177 109.87 3.7325 109.806 3.68925C109.629 3.6157 109.44 3.57492 109.249 3.5689C109.188 3.5634 109.156 3.50975 109.154 3.40795C109.153 3.35994 109.169 3.33212 109.203 3.32552C109.525 3.21839 109.854 3.13004 110.186 3.06092L110.622 2.9517L110.684 2.93871C110.708 2.93758 110.732 2.94181 110.754 2.95108C110.776 2.96035 110.796 2.97443 110.811 2.99229C110.844 3.03387 110.862 3.08543 110.861 3.1384L110.867 3.42526C110.866 3.46882 110.875 3.512 110.895 3.55097C110.901 3.56375 110.91 3.57464 110.922 3.58246C110.934 3.59027 110.947 3.59471 110.962 3.59528C110.992 3.59226 111.022 3.58218 111.049 3.56581C111.075 3.54944 111.097 3.52722 111.113 3.50089C111.278 3.30718 111.482 3.15021 111.712 3.04016C111.941 2.9301 112.191 2.86943 112.446 2.86205C112.767 2.84462 113.087 2.91366 113.372 3.06195C113.613 3.19344 113.81 3.39299 113.939 3.63567C113.981 3.70965 114.024 3.74489 114.065 3.74489C114.091 3.74032 114.116 3.73041 114.138 3.71577C114.16 3.70113 114.18 3.68207 114.194 3.65978C114.611 3.09554 115.111 2.80758 115.694 2.7959C115.918 2.77551 116.143 2.80255 116.355 2.87525C116.568 2.94795 116.762 3.06467 116.926 3.21774C117.211 3.5118 117.378 3.8992 117.397 4.30748C117.406 4.42968 117.415 4.67018 117.423 5.02875C117.434 5.57829 117.434 6.25045 117.423 7.04522C117.414 7.11579 117.427 7.18728 117.459 7.25078C117.491 7.31428 117.541 7.36699 117.603 7.40235C117.752 7.46282 117.913 7.48875 118.073 7.47819L118.207 7.47654Z" fill="white"/>
<path d="M124.427 7.15478L124.416 7.2166C124.331 7.46905 124.164 7.68559 123.941 7.83092C123.755 7.95571 123.537 8.0227 123.313 8.0234C123.151 8.02373 122.993 7.97536 122.859 7.88459C122.725 7.79383 122.622 7.66489 122.562 7.51459C122.523 7.43216 122.48 7.39094 122.433 7.38888C122.41 7.38789 122.387 7.39164 122.366 7.39991C122.344 7.40817 122.325 7.42077 122.309 7.4369C121.832 7.79299 121.25 7.98138 120.654 7.9727C120.308 7.98232 119.969 7.87257 119.695 7.66194C119.581 7.56719 119.491 7.44686 119.432 7.31077C119.373 7.17467 119.348 7.02667 119.357 6.87884C119.358 6.64471 119.426 6.4157 119.554 6.21939C119.705 6.01246 119.903 5.8444 120.132 5.72914C120.3 5.63906 120.479 5.57031 120.664 5.5245C120.864 5.47278 121.168 5.40085 121.572 5.30812C121.961 5.22301 122.213 5.16572 122.33 5.13604C122.384 5.12786 122.433 5.0999 122.468 5.05755C122.503 5.01521 122.521 4.96147 122.519 4.90668L122.526 4.65135C122.539 4.39821 122.53 4.14445 122.5 3.89278C122.475 3.73684 122.411 3.58986 122.313 3.46579C122.227 3.36786 122.119 3.29127 121.999 3.24211C121.878 3.19296 121.748 3.17259 121.618 3.18264C121.423 3.16797 121.23 3.22681 121.077 3.3475C120.914 3.50674 120.795 3.70477 120.73 3.92287C120.606 4.29381 120.414 4.47412 120.156 4.46856C120.026 4.46422 119.901 4.41598 119.802 4.33172C119.751 4.29045 119.71 4.23751 119.683 4.17733C119.656 4.11714 119.644 4.05145 119.648 3.98572C119.664 3.82202 119.719 3.66458 119.809 3.52699C119.956 3.31314 120.162 3.14708 120.402 3.04951C120.796 2.89009 121.222 2.82481 121.646 2.85889C121.96 2.86163 122.271 2.92314 122.563 3.04024C122.795 3.12438 123.001 3.26868 123.159 3.45837C123.259 3.59183 123.329 3.74426 123.367 3.90617C123.403 4.09263 123.416 4.28261 123.408 4.47227C123.399 4.84321 123.386 5.15686 123.373 5.40848L123.328 6.74984C123.297 6.94823 123.342 7.15113 123.454 7.31779C123.529 7.40285 123.634 7.4553 123.747 7.4639C123.843 7.4638 123.937 7.43826 124.02 7.38991C124.124 7.32502 124.212 7.23623 124.275 7.13087C124.282 7.11696 124.292 7.10511 124.305 7.09663C124.317 7.08814 124.332 7.08338 124.348 7.08286C124.403 7.08286 124.43 7.10882 124.427 7.15499M121.746 7.37508C121.96 7.30005 122.158 7.18586 122.33 7.03835C122.361 7.01418 122.386 6.984 122.405 6.94963C122.424 6.91527 122.436 6.87744 122.439 6.83845L122.441 6.74778L122.489 5.68936C122.493 5.65756 122.489 5.62528 122.478 5.59509C122.468 5.5649 122.45 5.53762 122.427 5.51543C122.401 5.49723 122.371 5.48539 122.34 5.48087C122.309 5.47636 122.277 5.4793 122.247 5.48947C121.743 5.58875 121.256 5.76238 120.802 6.00466C120.66 6.07976 120.54 6.1913 120.455 6.32786C120.37 6.46441 120.323 6.62107 120.319 6.78178C120.314 6.87132 120.329 6.96082 120.362 7.0443C120.394 7.12777 120.445 7.20331 120.509 7.26585C120.683 7.41353 120.907 7.48897 121.135 7.47667C121.343 7.4798 121.549 7.44531 121.745 7.37487" fill="white"/>
<path d="M125.229 7.98349C125.175 7.97978 125.151 7.93176 125.155 7.83738C125.16 7.74863 125.19 7.70611 125.244 7.70982L125.366 7.71538C125.529 7.73213 125.694 7.71386 125.85 7.6618C125.966 7.61378 126.031 7.49343 126.042 7.30467L126.181 4.19475C126.197 4.08157 126.173 3.96646 126.113 3.86915C126.06 3.79627 125.984 3.74342 125.898 3.71933C125.807 3.69522 125.671 3.66575 125.488 3.6369C125.447 3.62763 125.424 3.61279 125.414 3.59259C125.404 3.56295 125.4 3.53135 125.403 3.50007C125.404 3.47202 125.409 3.44425 125.418 3.41763C125.421 3.40833 125.427 3.40002 125.434 3.39353C125.442 3.38703 125.451 3.38256 125.461 3.38054C125.746 3.31028 126.035 3.25776 126.327 3.2233C126.794 3.14087 126.985 3.10666 126.904 3.1215L126.965 3.11594C126.99 3.11606 127.013 3.1218 127.035 3.13271C127.056 3.14363 127.075 3.15941 127.089 3.17879C127.12 3.2223 127.134 3.27561 127.128 3.32861L126.896 7.35083C126.882 7.42148 126.89 7.49465 126.919 7.56081C126.947 7.62697 126.995 7.68305 127.055 7.72177C127.201 7.79415 127.361 7.83275 127.524 7.8347L127.656 7.84212C127.702 7.84397 127.724 7.89013 127.719 7.97895C127.715 8.07334 127.687 8.1195 127.641 8.11579L125.229 7.98349ZM126.251 1.6192C126.193 1.55683 126.148 1.48313 126.119 1.40263C126.09 1.32214 126.077 1.23657 126.083 1.15119C126.086 1.06512 126.107 0.980674 126.145 0.903158C126.183 0.825642 126.236 0.756721 126.302 0.70071C126.365 0.643773 126.439 0.600043 126.519 0.572086C126.6 0.544129 126.685 0.532509 126.77 0.537908C126.856 0.540563 126.941 0.560808 127.018 0.59739C127.096 0.633973 127.166 0.686113 127.222 0.75058C127.281 0.814202 127.325 0.889109 127.353 0.970648C127.381 1.05219 127.392 1.13861 127.385 1.22456C127.381 1.30913 127.36 1.39204 127.324 1.46842C127.287 1.54479 127.236 1.61308 127.172 1.66927C127.109 1.72729 127.035 1.7721 126.954 1.80105C126.873 1.83001 126.787 1.84253 126.701 1.83788C126.616 1.83324 126.532 1.81152 126.454 1.774C126.377 1.73648 126.308 1.68371 126.251 1.6192Z" fill="white"/>
<path d="M133.933 8.65858C133.644 8.56793 133.362 8.45344 133.092 8.31628C133.013 8.28106 132.93 8.25859 132.844 8.24972C132.69 8.24586 132.538 8.29118 132.411 8.37914C132.368 8.4113 132.316 8.42763 132.263 8.4253C132.189 8.41602 132.146 8.36347 132.137 8.26806L131.909 6.5164C131.907 6.49151 131.902 6.46681 131.896 6.44242C131.896 6.42944 131.908 6.41645 131.926 6.40533C131.942 6.39338 131.961 6.38457 131.98 6.37936C131.994 6.37724 132.006 6.37147 132.017 6.36267C132.037 6.35636 132.059 6.35509 132.08 6.35896C132.121 6.36267 132.154 6.3942 132.182 6.45149C132.743 7.67627 133.592 8.34788 134.73 8.46631C135.148 8.51461 135.571 8.44074 135.949 8.25363C136.138 8.15572 136.297 8.00869 136.41 7.828C136.523 7.64731 136.585 7.43962 136.59 7.22675C136.614 6.98391 136.568 6.73921 136.456 6.52197C136.333 6.28327 136.144 6.08443 135.912 5.94845C135.518 5.71521 135.108 5.51206 134.684 5.34073C134.372 5.21692 134.069 5.07234 133.776 4.90797C133.386 4.70093 133.062 4.38879 132.84 4.007C132.679 3.6869 132.615 3.32703 132.655 2.97104C132.692 2.67326 132.788 2.38591 132.938 2.12592C133.118 1.81338 133.385 1.55909 133.705 1.39332C134.126 1.18634 134.6 1.11339 135.063 1.18435C135.274 1.20681 135.48 1.2527 135.68 1.32119C135.881 1.38961 136.105 1.48214 136.353 1.59507C136.442 1.63478 136.536 1.6625 136.633 1.6775C136.766 1.68918 136.899 1.65595 137.011 1.58311C137.059 1.55304 137.113 1.5341 137.17 1.52768C137.232 1.53324 137.266 1.58126 137.278 1.67193L137.552 3.18351C137.551 3.20269 137.552 3.22191 137.556 3.2408C137.558 3.25449 137.556 3.26852 137.551 3.2815C137.547 3.29448 137.538 3.30596 137.528 3.31478L137.463 3.33889C137.433 3.34659 137.401 3.34972 137.37 3.34817C137.35 3.3447 137.331 3.33653 137.315 3.32432C137.298 3.31211 137.285 3.2962 137.276 3.27789C137.167 3.06961 137.04 2.87147 136.896 2.68583C136.677 2.40284 136.416 2.15513 136.121 1.95137C135.785 1.71012 135.39 1.56318 134.978 1.52582C134.644 1.46743 134.3 1.52975 134.008 1.70161C133.802 1.82636 133.637 2.00833 133.534 2.22525C133.466 2.36972 133.418 2.52284 133.393 2.68027C133.345 3.14642 133.574 3.54236 134.08 3.8681C134.241 3.97091 134.41 4.06182 134.584 4.14012C134.784 4.2308 134.988 4.31962 135.192 4.40287C135.649 4.58807 136.092 4.80441 136.519 5.05037C137.291 5.54797 137.635 6.21834 137.549 7.06148C137.513 7.43297 137.37 7.786 137.136 8.07723C136.884 8.37988 136.551 8.60452 136.176 8.72473C135.729 8.86773 135.256 8.91127 134.79 8.85229C134.499 8.81749 134.212 8.753 133.934 8.65981" fill="white"/>
<path d="M143.682 9.09378L143.661 9.15293C143.548 9.39374 143.357 9.58933 143.119 9.7079C142.92 9.80975 142.696 9.85096 142.474 9.82639C142.313 9.80806 142.162 9.7417 142.04 9.63598C141.917 9.53027 141.83 9.39013 141.788 9.23392C141.759 9.14881 141.722 9.10079 141.674 9.09523C141.651 9.09146 141.628 9.09231 141.606 9.09773C141.584 9.10316 141.564 9.11304 141.546 9.12676C141.032 9.42882 140.431 9.54939 139.839 9.46905C139.494 9.4393 139.169 9.29164 138.92 9.05092C138.818 8.94362 138.743 8.81383 138.701 8.67211C138.659 8.53038 138.651 8.38072 138.677 8.23527C138.704 8.00214 138.798 7.78178 138.948 7.60075C139.122 7.41254 139.338 7.26908 139.58 7.18262C139.757 7.11257 139.941 7.06474 140.13 7.04022C140.336 7.01055 140.646 6.97551 141.056 6.931C141.455 6.88979 141.712 6.86258 141.831 6.84589C141.886 6.84379 141.938 6.82164 141.978 6.78365C142.017 6.74567 142.042 6.69448 142.046 6.63981L142.081 6.38634C142.124 6.13728 142.145 5.885 142.145 5.6323C142.139 5.47427 142.091 5.32055 142.008 5.18635C141.934 5.07847 141.835 4.98945 141.721 4.92645C141.606 4.86345 141.478 4.82824 141.347 4.82365C141.157 4.78651 140.959 4.82218 140.793 4.9236C140.613 5.06357 140.472 5.24696 140.382 5.45652C140.216 5.80994 140.004 5.96718 139.749 5.93194C139.62 5.91263 139.502 5.85071 139.413 5.75615C139.367 5.70928 139.333 5.65211 139.313 5.58936C139.294 5.52662 139.289 5.46011 139.3 5.39531C139.334 5.23399 139.407 5.08346 139.513 4.95699C139.684 4.76164 139.908 4.62073 140.158 4.55184C140.568 4.43845 140.999 4.42201 141.417 4.50382C141.728 4.54449 142.03 4.64171 142.306 4.79068C142.527 4.90107 142.714 5.06833 142.848 5.27517C142.932 5.41878 142.984 5.57818 143.002 5.74317C143.017 5.93277 143.009 6.12346 142.978 6.31112C142.924 6.68206 142.878 6.98829 142.835 7.2362L142.635 8.56458C142.582 8.75851 142.604 8.96526 142.697 9.14366C142.761 9.23617 142.859 9.29994 142.97 9.32129C143.065 9.33288 143.162 9.3182 143.249 9.27884C143.361 9.22732 143.459 9.14955 143.535 9.05216C143.543 9.03907 143.554 9.02849 143.568 9.02161C143.582 9.01473 143.597 9.01182 143.613 9.01321C143.664 9.02063 143.689 9.04845 143.683 9.09564M140.993 9.00497C141.214 8.95497 141.424 8.86463 141.612 8.73851C141.679 8.69601 141.726 8.62881 141.743 8.5516L141.756 8.46092L141.925 7.4157C141.933 7.38437 141.934 7.35158 141.926 7.32005C141.919 7.28852 141.905 7.25915 141.884 7.23435C141.861 7.21403 141.833 7.19944 141.803 7.19174C141.773 7.18405 141.742 7.18346 141.711 7.19004C141.198 7.23073 140.693 7.34799 140.214 7.5379C140.064 7.59553 139.932 7.69207 139.832 7.81758C139.732 7.94309 139.667 8.09303 139.644 8.25196C139.63 8.34019 139.634 8.43041 139.657 8.51677C139.68 8.60314 139.721 8.68373 139.777 8.75335C139.933 8.92031 140.147 9.02102 140.376 9.03464C140.581 9.06217 140.79 9.05212 140.993 9.00497" fill="white"/>
<path d="M149.834 10.7088C149.888 10.7181 149.907 10.7624 149.892 10.8438C149.875 10.9382 149.84 10.9788 149.788 10.9695L147.48 10.5532C147.446 10.5458 147.428 10.531 147.422 10.5052C147.416 10.4695 147.418 10.433 147.426 10.3978C147.441 10.3183 147.474 10.2831 147.528 10.2923L147.649 10.3146C147.743 10.3346 147.841 10.3229 147.928 10.2812C147.964 10.2661 147.995 10.2428 148.019 10.2132C148.044 10.1836 148.061 10.1485 148.069 10.111C148.08 10.0409 148.067 9.96904 148.032 9.90738C147.95 9.71312 147.653 9.10752 147.139 8.0906C147.131 8.05951 147.114 8.03128 147.091 8.00908C147.068 7.98687 147.039 7.97157 147.007 7.96489C146.98 7.96132 146.953 7.96342 146.927 7.97105C146.901 7.97867 146.876 7.99167 146.856 8.0092L146.36 8.33295C146.319 8.35806 146.284 8.39171 146.257 8.43161C146.23 8.47151 146.212 8.51672 146.205 8.56417L146.023 9.56508C146 9.63214 145.998 9.70434 146.016 9.77273C146.034 9.84112 146.072 9.9027 146.125 9.94983C146.256 10.0396 146.407 10.0973 146.564 10.1182L146.696 10.1405C146.742 10.1497 146.759 10.194 146.744 10.2736C146.727 10.368 146.696 10.4104 146.648 10.4011L144.302 9.97806C144.248 9.96886 144.229 9.91706 144.246 9.82268C144.261 9.74313 144.296 9.70789 144.349 9.71717L144.468 9.73942C144.624 9.77552 144.785 9.77489 144.94 9.73757C145.061 9.70048 145.137 9.59146 145.17 9.41197L146.158 3.85138C146.183 3.77417 146.186 3.69176 146.167 3.61291C146.149 3.53405 146.109 3.46171 146.052 3.40357C145.902 3.29325 145.725 3.22375 145.539 3.20182C145.473 3.19069 145.448 3.13341 145.467 3.03346C145.469 3.01348 145.477 2.99465 145.491 2.98015C145.505 2.96565 145.523 2.95638 145.543 2.95391L146.997 2.87622H147.059C147.083 2.87933 147.106 2.88797 147.126 2.90146C147.146 2.91495 147.162 2.93291 147.174 2.95391C147.199 3.00092 147.207 3.05545 147.195 3.10744L146.381 7.59333C146.371 7.63904 146.375 7.68666 146.392 7.73017C146.398 7.74656 146.408 7.76113 146.421 7.77247C146.435 7.7838 146.451 7.79152 146.468 7.79488C146.523 7.80099 146.578 7.78506 146.622 7.75057C147.011 7.50451 147.381 7.26959 147.733 7.04579C148.084 6.82384 148.343 6.65548 148.508 6.54069C148.569 6.49106 148.61 6.42188 148.626 6.34492C148.633 6.30412 148.63 6.26221 148.618 6.22275C148.605 6.18329 148.583 6.14744 148.554 6.11823C148.464 6.03589 148.349 5.98468 148.228 5.97212L148.107 5.94987C148.054 5.94059 148.035 5.89072 148.05 5.80561C148.065 5.7205 148.1 5.6799 148.153 5.68897L150.419 6.09968C150.481 6.11081 150.502 6.15883 150.487 6.24579L150.478 6.29566C150.454 6.34739 150.396 6.36223 150.302 6.34739C149.879 6.29192 149.45 6.38975 149.092 6.62312C148.892 6.73962 148.489 6.98383 147.883 7.35573C147.857 7.36933 147.835 7.38785 147.817 7.41018C147.799 7.43251 147.785 7.45822 147.778 7.48579C147.77 7.51335 147.767 7.54222 147.771 7.57071C147.774 7.59919 147.783 7.62671 147.797 7.65165L148.059 8.16417C148.661 9.32782 148.992 9.97717 149.052 10.1122C149.127 10.2581 149.225 10.3911 149.342 10.5062C149.449 10.6022 149.581 10.6653 149.722 10.6876L149.834 10.7088Z" fill="white"/>
<path d="M155.283 10.9308C155.273 10.9615 155.257 10.9896 155.235 11.0133C155.005 11.3225 154.698 11.5662 154.344 11.7199C153.927 11.8985 153.462 11.9337 153.023 11.8199C152.586 11.7299 152.179 11.5299 151.841 11.2389C151.516 10.9593 151.274 10.5949 151.144 10.1863C151.009 9.75205 150.993 9.28932 151.098 8.84679C151.193 8.42431 151.377 8.02676 151.637 7.68039C151.895 7.32463 152.244 7.04475 152.648 6.87009C153.074 6.68929 153.548 6.65161 153.997 6.76272C154.505 6.8585 154.956 7.14645 155.256 7.56643C155.561 8.02055 155.705 8.56394 155.664 9.10933L155.654 9.14828C155.652 9.17542 155.643 9.20156 155.628 9.22464C155.614 9.24772 155.594 9.26711 155.57 9.28127C155.547 9.29544 155.521 9.30399 155.494 9.30627C155.466 9.30855 155.439 9.30448 155.414 9.29439L152.363 8.64607C152.224 8.61454 152.141 8.65905 152.116 8.77919L152.074 8.96796C151.934 9.60433 151.982 10.1359 152.219 10.5628C152.331 10.7703 152.488 10.9501 152.679 11.0892C152.87 11.2282 153.089 11.323 153.321 11.3665C153.635 11.4366 153.961 11.4233 154.268 11.3279C154.574 11.2324 154.851 11.0582 155.069 10.8227C155.08 10.8074 155.096 10.7956 155.114 10.7883C155.132 10.7811 155.151 10.7787 155.17 10.7814C155.202 10.7937 155.23 10.8141 155.252 10.8406C155.265 10.8515 155.275 10.8656 155.28 10.8816C155.286 10.8975 155.287 10.9147 155.284 10.9313M153.082 7.22516C152.783 7.41876 152.545 7.69337 152.396 8.01691C152.384 8.03807 152.376 8.06125 152.372 8.08533C152.366 8.10857 152.364 8.13308 152.369 8.15686C152.373 8.18064 152.383 8.20302 152.398 8.22217C152.433 8.2622 152.481 8.28899 152.533 8.298L154.47 8.69944C154.522 8.7144 154.578 8.7144 154.631 8.69944C154.65 8.69361 154.667 8.68292 154.68 8.66844C154.693 8.65396 154.703 8.63622 154.707 8.61701C154.798 8.26582 154.753 7.89309 154.581 7.57364C154.502 7.44652 154.398 7.33698 154.275 7.25188C154.152 7.16678 154.013 7.10794 153.866 7.07905C153.595 7.02405 153.314 7.07646 153.082 7.22516" fill="white"/>
<path d="M166.775 14.9956C166.788 14.9975 166.8 15.0028 166.809 15.0109C166.819 15.0191 166.827 15.0297 166.831 15.0417C166.833 15.0767 166.828 15.1117 166.816 15.1448C166.79 15.2354 166.751 15.2742 166.699 15.2596L163.79 14.427C163.744 14.414 163.733 14.3604 163.76 14.2698C163.785 14.1873 163.82 14.1494 163.866 14.1624L164.012 14.2049C164.227 14.2829 164.46 14.2939 164.681 14.2364C164.774 14.1949 164.854 14.1314 164.916 14.0513C164.978 13.9713 165.019 13.8773 165.035 13.7777L165.73 11.3614C165.748 11.3065 165.744 11.247 165.719 11.1949C165.704 11.17 165.684 11.1485 165.661 11.1317C165.637 11.1148 165.61 11.1029 165.582 11.0968L162.33 10.1661C162.303 10.1566 162.274 10.1526 162.246 10.1545C162.217 10.1564 162.189 10.1642 162.164 10.1773C162.139 10.1917 162.117 10.2111 162.1 10.2344C162.083 10.2576 162.071 10.2842 162.065 10.3123L161.374 12.7192C161.335 12.8131 161.319 12.9153 161.329 13.0167C161.339 13.118 161.373 13.2154 161.43 13.3002C161.589 13.4637 161.793 13.576 162.017 13.6229L162.154 13.6618C162.185 13.673 162.204 13.6897 162.208 13.7154C162.21 13.7518 162.205 13.7883 162.193 13.8228C162.169 13.9079 162.13 13.9413 162.078 13.9258L159.169 13.0937C159.123 13.0807 159.111 13.0319 159.135 12.9476C159.161 12.8569 159.198 12.8163 159.245 12.8309L159.391 12.8721C159.607 12.9511 159.841 12.9633 160.064 12.9074C160.157 12.8666 160.239 12.8034 160.301 12.7233C160.364 12.6432 160.406 12.5489 160.423 12.4487L161.938 7.17534C161.977 7.07975 161.992 6.97567 161.981 6.87279C161.969 6.76991 161.932 6.67159 161.872 6.58699C161.715 6.42161 161.512 6.30747 161.289 6.25954L161.141 6.21708C161.096 6.2041 161.085 6.15526 161.109 6.07098C161.137 5.9803 161.172 5.9397 161.216 5.95434L164.126 6.78689C164.178 6.80173 164.191 6.85531 164.166 6.94598C164.141 7.02841 164.103 7.06447 164.051 7.05149L163.914 7.01028C163.698 6.92997 163.462 6.91831 163.239 6.97689C163.147 7.02141 163.067 7.08731 163.006 7.16906C162.945 7.25081 162.904 7.34604 162.887 7.44675L162.288 9.52998C162.279 9.55735 162.275 9.58637 162.277 9.6153C162.279 9.64423 162.286 9.67248 162.3 9.69835C162.314 9.72269 162.334 9.74377 162.357 9.76031C162.381 9.77685 162.407 9.78851 162.435 9.79459L165.697 10.7289C165.725 10.7395 165.754 10.744 165.783 10.742C165.812 10.74 165.84 10.7316 165.865 10.7175C165.89 10.7033 165.912 10.6838 165.929 10.6602C165.946 10.6366 165.957 10.6095 165.962 10.581L166.557 8.50887C166.597 8.41304 166.612 8.30886 166.601 8.20579C166.59 8.10272 166.553 8.00402 166.494 7.91867C166.336 7.75496 166.132 7.64169 165.909 7.59306L165.763 7.55061C165.716 7.53763 165.705 7.48776 165.731 7.40265C165.757 7.31197 165.793 7.27323 165.838 7.28601L168.747 8.11856C168.781 8.12783 168.797 8.14453 168.801 8.17214C168.803 8.20794 168.798 8.24378 168.786 8.27765C168.762 8.36276 168.723 8.398 168.671 8.38316L168.534 8.34195C168.318 8.26259 168.083 8.25094 167.86 8.30856C167.768 8.35351 167.688 8.41977 167.626 8.50182C167.565 8.58387 167.525 8.67934 167.508 8.78028L165.996 14.0511C165.956 14.1451 165.94 14.2475 165.949 14.3493C165.958 14.451 165.993 14.5488 166.049 14.6339C166.21 14.7958 166.414 14.9076 166.637 14.9558L166.775 14.9956Z" fill="white"/>
<path d="M168.049 15.7278C168.004 15.713 167.995 15.6594 168.026 15.5706C168.052 15.4855 168.089 15.4521 168.136 15.4676L168.28 15.5156C168.491 15.6028 168.724 15.6235 168.947 15.5747C169.041 15.5372 169.125 15.477 169.19 15.3995C169.255 15.3221 169.3 15.2297 169.321 15.1306L171.061 9.93005C171.105 9.83611 171.125 9.73256 171.118 9.62903C171.111 9.52551 171.078 9.42538 171.022 9.33799C170.871 9.16716 170.673 9.04484 170.452 8.98642L170.307 8.94026C170.261 8.92357 170.254 8.87555 170.281 8.79044C170.311 8.70162 170.348 8.66473 170.394 8.67751L173.266 9.63206C173.279 9.63455 173.291 9.64104 173.301 9.65063C173.31 9.66023 173.316 9.67246 173.318 9.68564C173.318 9.72237 173.311 9.75872 173.297 9.79301C173.269 9.87544 173.231 9.90779 173.179 9.8911L173.044 9.84679C172.831 9.75809 172.596 9.73651 172.371 9.78497C172.277 9.82545 172.194 9.88793 172.129 9.96713C172.065 10.0463 172.02 10.1399 171.999 10.24L170.268 15.4449C170.225 15.5374 170.205 15.6392 170.211 15.7412C170.216 15.8432 170.247 15.9422 170.3 16.0295C170.452 16.1989 170.651 16.3193 170.872 16.3755L171.008 16.4198C171.039 16.4291 171.057 16.4477 171.059 16.4697C171.061 16.5045 171.055 16.5392 171.043 16.5715C171.013 16.6603 170.972 16.6972 170.92 16.6807L168.049 15.7278Z" fill="white"/>
<path d="M178.948 19.4689C178.914 19.5577 178.876 19.5926 178.831 19.5763L177.18 18.958C177.13 18.9423 177.085 18.9119 177.053 18.8706C177.02 18.8294 177 18.7793 176.996 18.7268C176.922 18.207 176.824 17.5705 176.7 16.8175C176.577 16.0645 176.457 15.4532 176.342 14.9834C176.334 14.9351 176.313 14.8898 176.281 14.8527C176.249 14.8155 176.208 14.7878 176.161 14.7726L176.018 14.7209L175.598 14.5637C175.572 14.5512 175.543 14.5445 175.515 14.5438C175.486 14.5432 175.457 14.5487 175.431 14.5599C175.405 14.5727 175.382 14.5906 175.364 14.6126C175.345 14.6345 175.332 14.66 175.323 14.6875L174.49 16.9076C174.442 17.0001 174.419 17.1029 174.422 17.2067C174.425 17.3104 174.454 17.4118 174.506 17.5015C174.648 17.6754 174.838 17.803 175.053 17.8679L175.197 17.9233C175.242 17.9382 175.247 17.988 175.218 18.0713C175.184 18.1601 175.146 18.197 175.101 18.1805L172.267 17.1194C172.222 17.1027 172.217 17.0492 172.25 16.9622C172.281 16.8798 172.318 16.8456 172.363 16.8622L172.506 16.9158C172.716 17.0108 172.949 17.0411 173.176 17.0028C173.273 16.9685 173.361 16.9107 173.43 16.8345C173.499 16.7582 173.548 16.666 173.573 16.5661L175.499 11.4397C175.546 11.3467 175.569 11.2432 175.565 11.139C175.561 11.0347 175.531 10.9332 175.476 10.844C175.333 10.6694 175.141 10.5413 174.924 10.4757L174.782 10.4203C174.737 10.4054 174.73 10.3556 174.761 10.2723C174.773 10.238 174.79 10.2061 174.813 10.1779C174.821 10.1688 174.831 10.1626 174.843 10.1602C174.855 10.1579 174.867 10.1595 174.878 10.1649L177.123 10.9938L178.079 11.3509C178.474 11.5016 178.836 11.7253 179.147 12.0104C179.432 12.267 179.647 12.5925 179.771 12.9558C179.886 13.3016 179.876 13.6766 179.743 14.0159C179.676 14.2045 179.57 14.3766 179.43 14.5203C179.291 14.6639 179.122 14.7759 178.935 14.8485C178.503 15.0168 178.037 15.0827 177.575 15.0409C177.473 15.0391 177.41 15.0706 177.386 15.1335C177.375 15.1775 177.377 15.2236 177.392 15.2666C177.447 15.4683 177.509 15.7383 177.577 16.0787C177.646 16.4192 177.691 16.6558 177.713 16.7872C177.861 17.5532 177.972 18.0879 178.046 18.3913C178.094 18.588 178.183 18.7725 178.306 18.9333C178.476 19.1137 178.69 19.2463 178.928 19.3181C178.972 19.3348 178.98 19.3846 178.949 19.4679M175.57 14.189C175.583 14.2145 175.601 14.2371 175.623 14.2555C175.645 14.274 175.671 14.2879 175.698 14.2964L175.785 14.3298C176.669 14.6595 177.336 14.7316 177.787 14.5461C178.003 14.461 178.197 14.3307 178.359 14.1642C178.52 13.9976 178.643 13.7986 178.721 13.5805C178.814 13.374 178.853 13.1472 178.834 12.9216C178.815 12.6959 178.738 12.4789 178.611 12.291C178.323 11.8967 177.919 11.6015 177.456 11.4461C177.258 11.3612 177.042 11.3268 176.828 11.3462C176.652 11.3721 176.518 11.5034 176.427 11.7458L175.573 14.0231C175.561 14.0491 175.555 14.0773 175.554 14.106C175.553 14.1346 175.559 14.1631 175.57 14.1896" fill="white"/>
<path d="M181.536 20.3976C181.16 19.8954 180.928 19.3007 180.864 18.677C180.792 17.9539 180.916 17.2248 181.223 16.5662C181.492 15.8939 181.937 15.3065 182.513 14.866C183.011 14.4859 183.603 14.2475 184.226 14.1759C184.785 14.1019 185.354 14.1809 185.872 14.4044C186.391 14.6279 186.838 14.9876 187.168 15.4451C187.541 15.9472 187.771 16.5402 187.835 17.1619C187.908 17.8821 187.785 18.6085 187.481 19.2654C187.211 19.9403 186.763 20.5301 186.186 20.9729C185.689 21.3535 185.098 21.5932 184.476 21.6668C183.917 21.7406 183.348 21.6616 182.83 21.4381C182.312 21.2146 181.865 20.855 181.535 20.3976M184.165 21.2208C184.642 21.0893 185.074 20.829 185.412 20.4684C185.867 19.9953 186.226 19.4395 186.47 18.8312C186.746 18.2387 186.904 17.5985 186.935 16.946C186.963 16.4545 186.857 15.9647 186.628 15.5288C186.435 15.1656 186.124 14.8786 185.746 14.7147C185.369 14.5507 184.947 14.5194 184.549 14.6259C184.074 14.7584 183.645 15.0182 183.307 15.3771C182.853 15.8485 182.495 16.4032 182.251 17.0107C181.975 17.6058 181.816 18.2483 181.783 18.9033C181.753 19.3953 181.856 19.8863 182.083 20.3242C182.28 20.6848 182.592 20.9692 182.969 21.1318C183.347 21.2945 183.768 21.3261 184.166 21.2215" fill="white"/>
<path d="M189.232 24.2345C188.991 24.0504 188.767 23.8461 188.561 23.6239C188.498 23.5646 188.427 23.5147 188.35 23.4759C188.205 23.4212 188.048 23.4122 187.898 23.45C187.847 23.4657 187.792 23.463 187.742 23.4426C187.676 23.4092 187.653 23.3463 187.677 23.2519L188.065 21.5277C188.076 21.4723 188.081 21.4481 188.078 21.4537C188.082 21.4468 188.088 21.441 188.096 21.4365C188.103 21.432 188.111 21.429 188.119 21.4277C188.138 21.4242 188.158 21.4224 188.178 21.4222C188.192 21.4247 188.206 21.4241 188.219 21.4203C188.24 21.4217 188.261 21.4281 188.279 21.4389C188.299 21.452 188.316 21.47 188.328 21.4914C188.339 21.5128 188.345 21.5367 188.345 21.5611C188.453 22.9043 189.019 23.8248 190.044 24.3225C190.421 24.5124 190.845 24.5889 191.265 24.5426C191.476 24.5146 191.676 24.4304 191.844 24.299C192.011 24.1675 192.14 23.9935 192.217 23.7952C192.325 23.576 192.366 23.3306 192.336 23.0885C192.301 22.822 192.192 22.5707 192.021 22.3633C191.731 22.0109 191.415 21.6803 191.076 21.3742C190.826 21.1509 190.591 20.9111 190.372 20.6564C190.078 20.3281 189.88 19.9246 189.802 19.4908C189.76 19.1344 189.824 18.7737 189.985 18.453C190.122 18.1865 190.311 17.95 190.541 17.7573C190.817 17.524 191.155 17.3756 191.514 17.3299C191.98 17.28 192.45 17.3743 192.861 17.6001C193.051 17.6926 193.23 17.8062 193.394 17.9386C193.558 18.0718 193.739 18.2346 193.931 18.427C194.002 18.4939 194.081 18.5511 194.166 18.5973C194.287 18.6537 194.423 18.6686 194.554 18.6397C194.609 18.6279 194.667 18.6286 194.722 18.6416C194.776 18.6694 194.793 18.724 194.774 18.8136L194.51 20.3263L194.496 20.3817C194.493 20.3954 194.487 20.4082 194.478 20.4186C194.469 20.4291 194.457 20.4368 194.444 20.4408L194.375 20.4427C194.344 20.4402 194.313 20.4327 194.284 20.4204C194.266 20.4098 194.251 20.3954 194.24 20.378C194.228 20.3607 194.221 20.3411 194.218 20.3205C194.189 20.088 194.138 19.8587 194.066 19.6359C193.958 19.2947 193.797 18.9721 193.591 18.6795C193.357 18.3382 193.037 18.0649 192.662 17.8877C192.368 17.7187 192.023 17.6597 191.69 17.7212C191.454 17.7695 191.237 17.8839 191.064 18.051C190.95 18.1636 190.853 18.2919 190.776 18.432C190.571 18.852 190.65 19.3016 191.014 19.7808C191.129 19.9332 191.256 20.0767 191.393 20.21C191.551 20.3654 191.712 20.5171 191.875 20.6634C192.24 20.9941 192.582 21.3495 192.898 21.7272C193.454 22.4598 193.546 23.2067 193.176 23.9676C193.016 24.3054 192.759 24.5885 192.439 24.7816C192.099 24.9803 191.709 25.0773 191.316 25.0611C190.847 25.0427 190.387 24.9214 189.971 24.7058C189.709 24.5743 189.461 24.4163 189.231 24.2341" fill="white"/>
<path d="M200.476 29.7939C200.488 29.7988 200.498 29.807 200.505 29.8174C200.513 29.8279 200.518 29.8402 200.518 29.8531C200.514 29.8874 200.502 29.9202 200.483 29.9493C200.437 30.0318 200.39 30.0623 200.342 30.0344L197.689 28.582C197.648 28.5579 197.65 28.5062 197.696 28.4211C197.738 28.3452 197.779 28.318 197.823 28.3386L197.956 28.4126C198.148 28.5362 198.373 28.5988 198.601 28.5921C198.7 28.5719 198.793 28.5274 198.871 28.4627C198.95 28.398 199.011 28.315 199.049 28.2212L200.259 26.0178C200.275 25.9937 200.285 25.9666 200.29 25.9382C200.295 25.9099 200.294 25.8808 200.287 25.8529C200.278 25.8256 200.263 25.8003 200.244 25.7787C200.225 25.7571 200.202 25.7396 200.176 25.7272L197.209 24.105C197.185 24.0881 197.158 24.0768 197.129 24.072C197.1 24.0672 197.071 24.0689 197.043 24.0771C197.015 24.0853 196.989 24.0997 196.968 24.1193C196.946 24.1389 196.929 24.1631 196.918 24.1901L195.712 26.3842C195.652 26.467 195.614 26.5632 195.601 26.6644C195.588 26.7655 195.601 26.8682 195.638 26.9633C195.757 27.1566 195.931 27.3105 196.138 27.4055L196.264 27.4758C196.277 27.4805 196.288 27.4891 196.295 27.5004C196.302 27.5118 196.306 27.5251 196.305 27.5386C196.3 27.5743 196.286 27.6084 196.266 27.6386C196.224 27.7163 196.179 27.7416 196.131 27.7144L193.478 26.2622C193.437 26.2399 193.437 26.1882 193.48 26.1124C193.526 26.0273 193.569 25.9976 193.609 26.0198L193.745 26.0938C193.938 26.2182 194.165 26.2819 194.395 26.277C194.495 26.2576 194.588 26.2138 194.667 26.1495C194.745 26.0853 194.806 26.0025 194.845 25.9088L197.489 21.1004C197.549 21.0156 197.587 20.9171 197.599 20.814C197.611 20.7109 197.596 20.6064 197.557 20.5102C197.438 20.3164 197.265 20.1615 197.059 20.0642L196.924 19.9902C196.883 19.968 196.883 19.9181 196.926 19.8404C196.972 19.758 197.015 19.7275 197.057 19.7497L199.71 21.2038C199.757 21.2298 199.758 21.2834 199.712 21.3666C199.67 21.4444 199.625 21.4703 199.579 21.4443L199.453 21.3759C199.26 21.2502 199.033 21.1869 198.803 21.1945C198.703 21.2178 198.61 21.2646 198.532 21.3308C198.454 21.3971 198.393 21.481 198.354 21.5756L197.311 23.4756C197.296 23.4999 197.285 23.527 197.28 23.5552C197.276 23.5835 197.277 23.6125 197.283 23.6405C197.292 23.6678 197.307 23.6931 197.326 23.7147C197.345 23.7363 197.368 23.7538 197.394 23.7662L200.37 25.396C200.394 25.4111 200.422 25.4211 200.45 25.4255C200.478 25.43 200.507 25.4288 200.535 25.422C200.563 25.4132 200.588 25.3988 200.61 25.3797C200.632 25.3606 200.649 25.3372 200.661 25.3109L201.701 23.4202C201.76 23.3352 201.798 23.2368 201.81 23.1337C201.822 23.0307 201.808 22.9263 201.769 22.83C201.65 22.6358 201.477 22.4807 201.271 22.384L201.135 22.31C201.094 22.2859 201.094 22.2379 201.137 22.1602C201.184 22.0778 201.226 22.0473 201.269 22.0695L203.922 23.5236C203.935 23.5285 203.945 23.5372 203.953 23.5485C203.96 23.5597 203.964 23.573 203.963 23.5865C203.958 23.6222 203.945 23.6564 203.924 23.6864C203.882 23.7642 203.837 23.7901 203.791 23.7641L203.665 23.6957C203.473 23.5694 203.246 23.5055 203.016 23.5125C202.916 23.5359 202.823 23.5829 202.745 23.6495C202.667 23.7161 202.605 23.8004 202.566 23.8954L199.925 28.7019C199.865 28.7853 199.828 28.8818 199.815 28.9832C199.802 29.0845 199.814 29.1874 199.851 29.2829C199.97 29.4762 200.144 29.6301 200.351 29.7251L200.476 29.7939Z" fill="white"/>
<path d="M201.555 30.791C201.514 30.765 201.518 30.7133 201.568 30.6319C201.613 30.5561 201.657 30.5301 201.698 30.5561L201.828 30.6338C202.014 30.7664 202.236 30.8383 202.465 30.8398C202.565 30.8241 202.66 30.7838 202.741 30.7227C202.821 30.6616 202.886 30.5815 202.928 30.4895L205.776 25.7996C205.839 25.7173 205.881 25.6205 205.897 25.5181C205.913 25.4157 205.904 25.3108 205.869 25.2131C205.758 25.0135 205.591 24.8507 205.389 24.7451L205.259 24.6674C205.218 24.6433 205.221 24.5916 205.265 24.5176C205.315 24.4351 205.36 24.4065 205.4 24.4306L207.992 25.9939C208.004 25.9996 208.014 26.0089 208.021 26.0205C208.028 26.032 208.031 26.0453 208.029 26.0586C208.022 26.0942 208.008 26.1282 207.988 26.1586C207.942 26.2344 207.896 26.2567 207.849 26.2288L207.727 26.1549C207.538 26.0225 207.314 25.9496 207.084 25.9459C206.984 25.9659 206.889 26.0094 206.809 26.0727C206.728 26.1361 206.664 26.2175 206.621 26.3105L203.783 31.0037C203.72 31.0841 203.678 31.179 203.661 31.2798C203.644 31.3805 203.652 31.4839 203.685 31.5807C203.796 31.7791 203.964 31.94 204.167 32.0431L204.289 32.1171C204.319 32.1356 204.332 32.1542 204.33 32.1789C204.324 32.2127 204.311 32.2448 204.291 32.2733C204.242 32.3557 204.193 32.3807 204.147 32.3529L201.555 30.791Z" fill="white"/>
<path d="M205.355 33.037C205.311 33.0074 205.314 32.9546 205.366 32.8742C205.416 32.8002 205.463 32.778 205.509 32.8077L205.618 32.8816C205.805 33.0027 206.03 33.0507 206.25 33.0166C206.365 33.0037 206.476 32.9653 206.574 32.9041C206.672 32.843 206.755 32.7606 206.817 32.6632L209.822 28.1584C209.881 28.0862 209.92 27.9999 209.935 27.9079C209.95 27.816 209.941 27.7218 209.908 27.6347C209.797 27.4357 209.635 27.2707 209.437 27.1574L209.328 27.0835C209.286 27.0575 209.292 27.0076 209.341 26.9336C209.395 26.8559 209.441 26.83 209.48 26.8559L211.048 27.8993C211.096 27.9253 211.134 27.9666 211.156 28.0165C211.178 28.0665 211.182 28.1222 211.169 28.175L210.061 33.7826C210.042 33.8844 210.055 33.951 210.102 33.9807C210.157 34.0178 210.221 34.0085 210.293 33.9491L215.097 30.7873C215.141 30.7557 215.195 30.7392 215.249 30.7402C215.303 30.7412 215.356 30.7596 215.399 30.7928L216.909 31.7975C216.92 31.803 216.928 31.8118 216.933 31.8225C216.937 31.8333 216.938 31.8453 216.935 31.8566C216.927 31.8921 216.911 31.9255 216.889 31.9547C216.841 32.0287 216.796 32.0509 216.756 32.025L216.637 31.9454C216.456 31.8044 216.236 31.7218 216.007 31.7087C215.907 31.7224 215.812 31.7598 215.729 31.8177C215.647 31.8756 215.579 31.9524 215.532 32.0417L212.488 36.6075C212.422 36.6858 212.375 36.7791 212.353 36.8794C212.331 36.9796 212.333 37.0838 212.361 37.1829C212.46 37.3884 212.619 37.5588 212.818 37.6713L212.937 37.749C212.978 37.7768 212.972 37.8267 212.924 37.8988C212.87 37.9784 212.824 38.0043 212.785 37.9784L210.284 36.3132C210.248 36.291 210.258 36.2411 210.312 36.1616C210.36 36.0876 210.402 36.0635 210.435 36.0857L210.571 36.1764C210.751 36.3157 210.97 36.397 211.199 36.4095C211.301 36.3966 211.398 36.359 211.482 36.3C211.567 36.241 211.635 36.1623 211.682 36.0709L214.376 32.0318C214.404 31.9934 214.422 31.948 214.426 31.9005C214.427 31.8844 214.424 31.8683 214.416 31.8538C214.409 31.8394 214.398 31.827 214.385 31.8181C214.343 31.7921 214.283 31.8032 214.199 31.8533L209.033 35.2884C208.938 35.355 208.866 35.3735 208.816 35.3383C208.766 35.3031 208.751 35.2309 208.779 35.1182L209.969 29.1129C209.984 29.0167 209.972 28.9557 209.932 28.9297C209.918 28.9203 209.903 28.9147 209.886 28.9134C209.87 28.9121 209.854 28.9152 209.839 28.9223C209.796 28.9445 209.761 28.9786 209.737 29.0204L207.156 32.8891C207.09 32.9839 207.046 33.0926 207.028 33.2069C207.01 33.3212 207.019 33.438 207.053 33.5485C207.105 33.7628 207.234 33.9505 207.416 34.0759L207.535 34.1554C207.57 34.1795 207.561 34.2275 207.513 34.2997C207.461 34.3792 207.416 34.407 207.383 34.3848L205.355 33.037Z" fill="white"/>
<path d="M219.858 42.9702C219.845 43.0003 219.828 43.0289 219.808 43.0553C219.756 43.1256 219.712 43.1478 219.68 43.1237L217.242 41.2995C217.203 41.2698 217.21 41.2218 217.264 41.1515C217.283 41.1209 217.309 41.095 217.34 41.0757C217.35 41.0686 217.362 41.0652 217.374 41.0658C217.386 41.0665 217.398 41.0713 217.407 41.0794C217.585 41.2219 217.79 41.3258 218.011 41.3846C218.093 41.411 218.181 41.4106 218.262 41.3832C218.343 41.3559 218.414 41.3033 218.463 41.2329C218.521 41.1502 218.564 41.0582 218.591 40.9609L219.032 39.5753C219.054 39.524 219.058 39.4666 219.042 39.413C219.027 39.3593 218.993 39.3127 218.947 39.2812L217.055 37.8658C217.013 37.8307 216.961 37.8108 216.906 37.8095C216.852 37.8081 216.798 37.8254 216.755 37.8584C216.267 38.1803 215.927 38.4085 215.732 38.543C215.615 38.6184 215.511 38.7114 215.422 38.8188C215.175 39.1498 215.314 39.5131 215.841 39.9085C215.851 39.9159 215.858 39.9269 215.861 39.9392C215.863 39.9516 215.861 39.9644 215.854 39.9751C215.841 40.0043 215.824 40.0319 215.804 40.0575C215.751 40.1278 215.708 40.1519 215.676 40.1278L213.646 38.6098C213.607 38.5803 213.614 38.5303 213.668 38.46C213.725 38.3841 213.771 38.36 213.811 38.3878C213.991 38.5184 214.208 38.5884 214.431 38.5877C214.721 38.5798 215.002 38.49 215.243 38.3287C215.493 38.1776 217.332 37.0115 220.76 34.8303C220.802 34.802 220.85 34.7846 220.9 34.7797C220.951 34.7749 221.001 34.7827 221.048 34.8025L221.287 34.8913C221.334 34.9041 221.378 34.925 221.418 34.9532C221.451 34.9791 221.47 34.9993 221.472 35.0197C221.48 35.0482 221.48 35.0786 221.47 35.1067L221.093 36.2859C220.882 36.95 220.612 37.793 220.283 38.8148C219.955 39.8367 219.673 40.7297 219.438 41.4938C219.341 41.7681 219.328 42.0655 219.403 42.3468C219.492 42.5718 219.645 42.7655 219.844 42.9032C219.855 42.9104 219.862 42.9214 219.864 42.9339C219.867 42.9463 219.864 42.9592 219.857 42.9698M217.401 37.4529C217.387 37.4691 217.377 37.4886 217.373 37.5097C217.368 37.5307 217.369 37.5526 217.375 37.5732C217.391 37.621 217.422 37.6621 217.464 37.6899L219.013 38.8499C219.116 38.9276 219.202 38.922 219.267 38.8369L219.298 38.7592L220.203 35.9248C220.235 35.851 220.25 35.7705 220.245 35.6899C220.238 35.627 220.219 35.6029 220.188 35.6215C219.682 35.9471 218.777 36.5372 217.474 37.3919C217.446 37.4084 217.422 37.4293 217.401 37.4537" fill="white"/>
</g>
</svg>
