<svg width="311" height="187" viewBox="0 0 311 187" fill="none" xmlns="http://www.w3.org/2000/svg">
<path d="M70.7901 142.234C70.7901 142.234 70.5409 144.966 74.1958 144.526C77.8506 144.086 80.697 143.277 82.2409 138.584L82.4017 138.093C83.8797 132.885 85.3989 127.705 86.9593 122.554C87.9708 119.218 91.7049 116.119 95.2323 115.667L100.249 115.022L103.254 114.661C103.942 114.578 104.418 114.695 104.681 115.011C104.939 115.329 104.964 115.815 104.747 116.47L102.246 124.063C100.721 128.387 99.1275 132.701 97.4649 137.006C96.1677 140.363 97.4319 143.203 100.612 143.529C103.309 143.805 106.429 142.783 108.053 137.852L108.248 137.261C109.3 133.661 110.827 128.522 112.828 121.844L115.002 115.24C115.198 114.613 115.571 114.058 116.076 113.642C116.588 113.23 117.207 112.974 117.859 112.906L135.782 110.755C136.535 110.666 137.26 110.416 137.911 110.023C138.283 109.76 138.576 109.398 138.757 108.977C138.863 108.648 137.985 102.892 135.892 101.676C131.12 98.9033 123.535 109.575 122.292 109.725L118.77 110.147C118.08 110.231 117.604 110.114 117.345 109.801C117.087 109.488 117.059 108.998 117.277 108.338L120.005 100.06C120.414 98.9321 121.218 97.993 122.266 97.4191L122.506 97.2948C122.904 97.0937 123.244 96.7922 123.492 96.4196C123.772 95.566 120.523 94.7571 113.743 93.9929C113.461 93.9212 113.169 93.8922 112.877 93.907C112.388 93.9698 111.931 94.1908 111.576 94.5368C111.19 94.9024 110.903 95.3613 110.742 95.8698L110.676 96.0679C106.922 111.244 105.617 111.73 104.165 111.903L100.852 112.302C96.818 112.661 93.8782 112.825 92.0325 112.793C90.6933 112.828 90.2406 112.188 90.6743 110.873C92.8311 104.329 98.0078 97.7744 104.713 93.0231C108.457 90.37 111.758 87.777 113.501 85.833C117.93 80.8912 121.621 75.3276 124.46 69.3175C124.723 68.7208 125.14 68.2059 125.668 67.8261C126.195 67.4463 126.814 67.2157 127.46 67.1581L129.325 66.934C130.012 66.8514 130.488 66.9681 130.752 67.2838C131.015 67.5996 131.036 68.0857 130.814 68.7422L125.618 84.516C125.069 86.0074 124.707 87.5619 124.541 89.1431C124.481 89.5865 124.57 90.0372 124.796 90.4225C125.021 90.8077 125.369 91.105 125.783 91.2663C126.658 91.6334 128.165 91.6885 130.306 91.4315L134.033 90.9852C137.831 90.5271 140.774 89.7469 142.863 88.6447C144.952 87.5425 146.299 86.0714 146.904 84.2316C147.336 82.9171 147.23 77.1626 147.23 77.1626C147.592 75.8558 145.043 75.7966 144.349 77.0265C139.757 85.1687 134.551 85.191 135.863 81.2017L140.117 68.2874C140.354 67.5638 141.224 66.7332 142.728 65.7954C143.338 65.5197 143.822 65.0223 144.083 64.4032C144.169 64.0599 144.15 63.6984 144.026 63.3671C141.598 52.5146 130.816 64.1018 129.713 64.2358C129.713 64.2358 120.431 66.1733 133.563 55.3409C138.024 51.6632 134.558 48.8486 123.166 51.4807C121.593 51.8463 120.748 52.184 120.335 53.4297L120.206 53.8267C119.398 57.0799 118.638 59.7907 117.926 61.959L117.276 63.9284C117.084 64.5186 116.706 65.03 116.199 65.3849C115.662 65.7702 115.035 66.009 114.38 66.078L112.769 66.27L112.677 66.277L107.742 66.5912C106.471 66.6168 105.696 67.0567 105.416 67.9111C105.287 68.2791 105.26 68.6752 105.338 69.0571L105.415 69.4255C105.441 69.5997 105.503 69.7665 105.597 69.9153C105.691 70.064 105.814 70.1915 105.96 70.2896C106.105 70.3878 106.269 70.4544 106.441 70.4854C106.613 70.5163 106.79 70.5109 106.961 70.4694C107.304 70.4069 107.639 70.3041 107.959 70.1632C109.252 69.681 110.58 69.3019 111.932 69.0292C111.99 69.0146 112.048 69.0057 112.105 68.9985L113.157 68.8734C114.539 68.7076 115.035 69.2161 114.646 70.3989L114.515 70.7933C111.355 82.0539 94.8082 98.3169 94.8082 98.3169L98.8932 85.9066L99.6022 83.7614C99.9698 82.6433 100.84 81.8127 102.213 81.2694L102.933 80.8965C103.544 80.6225 104.028 80.1246 104.288 79.5043C104.341 79.3467 104.35 79.1779 104.316 79.0153C104.282 78.8528 104.206 78.7026 104.094 78.5803C103.152 77.3099 102.031 76.1848 100.766 75.2406C99.2185 74.0067 98.1632 73.4236 97.613 73.4878C97.1999 73.538 96.5878 73.9271 95.7866 74.6549C94.9853 75.3828 94.3876 75.9298 94.0027 76.2903L92.5455 77.6947C91.5935 78.5679 90.8767 79.0333 90.395 79.091C90.1897 79.1153 90.0619 78.9417 90.0204 78.567C89.9939 78.0745 90.0714 77.5816 90.2479 77.1211L93.6239 66.8667C93.8207 66.2409 94.1938 65.6859 94.6978 65.2692C95.2108 64.8572 95.8304 64.6025 96.4827 64.5356L111.625 62.7144C112.307 62.6327 111.701 46.511 100.607 57.2318C97.5351 60.2042 93.6384 62.2244 90.0546 62.6558L75.8442 64.3642C71.121 64.8037 67.5838 65.0698 65.2324 65.1625C64.693 65.1561 64.1623 65.3031 63.7015 65.5864C63.2956 65.8391 62.9914 66.2281 62.8429 66.6846C62.7329 67.0233 62.717 67.3858 62.7971 67.7326L62.9122 68.2856C62.9388 68.4597 63.001 68.6263 63.0948 68.7749C63.1885 68.9235 63.3119 69.0508 63.4571 69.1489C63.6023 69.247 63.7662 69.3137 63.9384 69.3447C64.1106 69.3758 64.2874 69.3706 64.4576 69.3295C64.8007 69.2668 65.1353 69.1633 65.4543 69.0211C67.6081 68.3221 75.6602 66.7392 74.8766 69.1202L71.496 79.3733C71.3307 79.9206 71.0928 80.443 70.7888 80.9266C70.644 81.2132 70.3923 81.4305 70.089 81.5311C69.4427 81.603 68.789 81.5192 68.1817 81.2868L62.3883 79.2377C62.0762 79.1313 61.7421 79.1064 61.4175 79.1655C60.9815 79.2156 60.5713 79.4001 60.243 79.6938C59.9147 79.9874 59.6843 80.376 59.5835 80.8061L59.4552 81.1987C58.3669 86.3158 46.879 122.101 46.879 122.101C44.8622 128.024 43.1495 132.822 41.741 136.496C40.7806 139.004 39.785 141.567 38.7541 144.186C37.4818 147.422 39.725 149.709 43.2688 148.472C45.4061 147.728 47.6236 145.826 49.0045 141.637C49.1882 141.059 49.5463 140.552 50.029 140.187C50.5457 139.801 51.1568 139.562 51.797 139.498L70.7541 137.222L70.7737 137.219C71.9015 137.089 72.5731 137.855 72.2818 138.921L72.2667 138.969C72.0156 139.807 71.5195 140.025 70.7923 142.235M82.4383 68.2116C82.6263 67.5967 82.98 67.046 83.4599 66.6209C83.8848 66.2365 84.4156 65.9914 84.9817 65.9182C86.1548 65.7759 86.5143 66.395 86.0602 67.7754L82.6859 78.0292C82.2308 79.4082 81.4167 80.1688 80.2436 80.311C79.6871 80.3763 79.2994 80.2524 79.0747 79.9299C78.85 79.6074 78.8428 79.1222 79.0612 78.4635L82.4383 68.2116ZM58.7514 112.035L67.1211 86.6198C67.3094 86.0061 67.662 85.4563 68.1401 85.0307C68.5675 84.647 69.0999 84.4021 69.6673 84.3281C69.876 84.277 70.0941 84.2806 70.3008 84.3387C70.5075 84.3967 70.6958 84.5073 70.8478 84.6597C71.0865 84.9487 71.108 85.3855 70.9132 85.9763L70.2954 87.8515C69.2787 90.9391 68.4028 93.6392 67.4249 95.9596C63.3418 105.652 60.6499 110.138 58.7514 112.035ZM74.5501 132.029C74.3547 132.655 73.9813 133.211 73.4761 133.626C72.9642 134.039 72.345 134.295 71.693 134.363L52.736 136.638C52.0456 136.723 51.5669 136.607 51.3064 136.29C51.046 135.974 51.0245 135.488 51.2403 134.831L54.3587 125.366C54.5555 124.74 54.9286 124.185 55.4326 123.769C55.9457 123.357 56.5653 123.102 57.2175 123.035L76.1731 120.756C76.8647 120.674 77.3397 120.79 77.6001 121.106C77.8605 121.423 77.8835 121.911 77.6662 122.566L74.5501 132.029ZM79.9731 115.566C79.7785 116.195 79.4029 116.753 78.894 117.168C78.385 117.583 77.7655 117.837 77.1139 117.897L58.1593 120.175C57.4677 120.258 56.9902 120.144 56.7298 119.827C56.4693 119.511 56.4478 119.025 56.6636 118.368C56.982 116.493 57.8327 114.75 59.1129 113.35C59.4633 112.991 66.4233 107.298 70.4798 100.137C72.7966 96.0371 74.703 91.7159 76.1708 87.2375L76.7543 85.4621C76.9435 84.8477 77.297 84.2973 77.7759 83.8713C78.2027 83.4866 78.7353 83.2415 79.3031 83.1687C80.4762 83.0265 80.8357 83.6456 80.3816 85.026L74.6653 102.38C73.9927 104.418 73.8374 105.793 74.1996 106.507C74.5617 107.222 75.7447 107.458 77.7485 107.218L80.3365 106.905L81.6858 106.744C82.5122 106.643 82.7097 107.251 82.2784 108.568L79.9731 115.566ZM85.8168 97.8203C85.6212 98.4467 85.2479 99.0021 84.7429 99.4179C84.2308 99.8306 83.6117 100.086 82.9597 100.154L81.923 100.276C81.5772 100.32 81.3638 100.266 81.2813 100.118C81.1987 99.9705 81.2402 99.635 81.4151 99.1064L86.2853 84.3184C86.4502 83.6931 86.8037 83.1343 87.297 82.7192C87.7903 82.3041 88.3991 82.0531 89.0394 82.0008C90.4175 81.8341 90.8804 82.4405 90.4282 83.8201L85.8168 97.8203Z" fill="white"/>
<path d="M297.725 71.065L296.905 70.4042C296.699 70.2367 296.365 70.294 296.026 70.5542C288.575 76.2963 283.233 78.7407 276.327 79.571C272.278 80.057 267.238 79.0445 262.127 76.7168L259.687 75.6455C254.11 73.1624 249.001 72.3101 243.604 72.9602C235.66 73.9132 228.585 77.945 218.368 87.3361C218.027 87.658 217.781 88.0682 217.656 88.5216C217.59 88.6811 217.568 88.8559 217.594 89.0266C217.62 89.1974 217.693 89.3575 217.804 89.4892C218.462 90.0165 219.69 89.8446 220.746 89.0707C227.615 84.0364 232.59 81.8527 238.678 81.1211C242.942 80.6078 247.985 81.6045 253.266 84.0051L255.706 85.0765C261.295 87.5624 266.522 88.4684 271.682 87.8494C279.513 86.9084 286.176 83.0838 297.145 73.2317C297.492 72.9108 297.744 72.4992 297.873 72.0429C297.988 71.603 297.935 71.2326 297.725 71.0646" fill="white"/>
<path d="M219.205 38.6722C217.38 37.1911 215.611 36.5019 214.077 36.6873C212.987 36.8948 211.951 37.3262 211.032 37.9545C209.555 38.9633 207.947 39.7622 206.254 40.3288C200.952 42.0652 196.408 43.4135 192.153 44.5251C188.621 45.9758 181.512 44.6106 181.449 45.1909C181.176 47.6805 181.701 49.4015 182.856 51.0478C184.215 52.9852 185.287 53.5564 186.711 53.3838C187.577 53.2129 188.402 52.8766 189.142 52.3931C190.814 51.5545 192.532 50.8132 194.288 50.1727C198.605 48.5552 202.672 47.0659 206.593 45.6939L206.747 46.1753C192.953 57.738 180.457 66.945 166.122 77.272C161.98 80.2737 160.808 81.9148 160.157 83.8928C159.196 86.8103 160.289 88.2808 163.026 87.9502C164.229 87.8052 166.399 86.6448 168.59 84.7811C174.875 79.4245 179.629 75.8487 183.961 73.2283C189.341 69.9797 195.996 66.3789 203 65.5374C211.21 64.5496 215.067 66.8879 212.87 73.5563C210.397 81.0577 202.001 86.7683 191.637 89.8153C189.054 90.6315 189.856 89.5716 189.856 89.5716C191.441 88.3395 192.613 86.6467 193.213 84.7229C194.654 80.3466 192.009 78.1615 185.879 78.8986C179.639 79.6481 172.622 84.9954 171.249 89.1623C169.912 93.2272 171.59 94.8241 175.565 95.8469C165.602 102.149 155.891 108.019 147.293 113.052C144.041 114.946 139.051 117.646 136.519 118.949C133.513 120.415 131.775 122.825 130.852 125.937C129.865 129.256 131.328 130.883 133.953 130.567C136.033 130.317 138.599 128.909 142.191 125.676C145.311 122.898 149.407 119.403 153.008 116.772C155.24 115.101 158.018 113.366 160.208 113.105C168.746 112.077 170.196 127.769 170.204 128.012C170.812 141.147 177.431 138.593 180.181 136.614C182.71 134.792 181.855 132.261 183.521 131.074C184.905 130.086 186.126 130.471 187.436 133.315C188.746 136.159 190.328 140.375 192.951 138.305C195.56 136.25 190.68 131.899 189.558 130.21C188.436 128.521 183.84 122.46 184.691 120.961C185.363 119.778 188.401 120.964 189.255 120.393C191.111 119.151 190.887 118.568 190.14 115.221C189.063 110.398 203.069 101.149 206.873 100.694C211.034 100.191 215.477 102.662 216.635 107.124C216.747 107.587 216.733 108.072 216.594 108.529C216.264 109.411 215.648 110.155 214.846 110.64C213.332 111.63 207.308 113.136 207.514 115.503C207.594 116.405 210.156 116.281 210.156 116.281L210.151 116.284C212.719 116.346 215.236 117.011 217.501 118.227C218.362 119.124 219.797 119.552 221.549 119.34C224.392 118.998 227.051 116.677 228.423 112.511C229.069 110.549 229.162 108.446 228.691 106.436C228.221 104.425 227.206 102.587 225.76 101.125C223.847 99.2692 221.551 97.8628 219.034 97.0061C216.517 96.1494 213.843 95.8636 211.201 96.169C206.733 96.8092 202.437 98.3461 198.567 100.689C195.172 102.697 187.36 108.54 181.233 112.779C178.925 114.356 177.155 115.27 175.951 115.414C174.859 115.546 173.777 114.675 171.826 112.606C169.613 110.071 167.535 108.72 164.47 109.089C163.003 109.231 161.567 109.605 160.214 110.197L160.174 110.004C168.689 104.578 175.254 100.287 181.211 96.5674C182.743 96.3857 184.31 96.0977 188.649 95.3752C208.115 92.1357 219.452 83.5681 222.85 73.2529C225.595 64.9195 220.066 59.68 206.819 61.2711C201.344 61.9301 195.481 63.1365 186.192 68.355L186.043 68.1706C193.996 62.2126 203.397 55.3813 209.915 50.5933C213.085 48.3111 215.392 46.7336 218.184 45.5978C219.634 45.0232 221.072 43.8516 221.45 42.7056C221.829 41.5597 221.364 40.4128 219.203 38.6726M181.643 91.1162C177.661 91.3958 175.987 90.0949 176.742 87.8029C177.531 85.4049 181.098 82.8768 184.712 82.4425C187.446 82.1137 188.497 83.388 187.984 84.949C187.263 87.1368 185.504 88.6518 181.643 91.1162Z" fill="white"/>
</svg>
